<svg width="827" height="773" viewBox="0 0 827 773" fill="none" xmlns="http://www.w3.org/2000/svg">
<g opacity="0.2">
<path d="M744.476 286.219C745.923 291.62 745.596 298.624 743.239 308.463C736.715 334.65 705.036 368.199 671.525 403.638C653.131 423.136 634.099 443.272 619.2 462.378C590.971 492.011 577.072 533.151 563.585 572.976C553.746 602.072 544.42 629.553 530.034 652.757L530.001 652.805C518.692 670.366 505.953 680.579 491.085 684.019C462.071 690.744 429.211 670.525 391.167 647.072L387.506 644.828C359.193 627.471 321.815 606.171 266.366 575.686L261.794 573.065C213.542 545.431 153.485 511.013 108.377 457.671C9.00237 353.246 31.9133 232.412 78.7684 183.645C134.679 130.899 204.876 115.353 347.188 124.156C495.593 133.54 628.036 206.919 678.077 238.037C695.476 251.597 709.707 259.207 720.096 264.738C733.231 271.786 741.834 276.358 744.476 286.219ZM525.15 650.647C539.223 627.954 548.44 600.735 558.22 571.927C571.852 531.636 585.961 489.934 614.829 459.664C629.718 440.522 648.857 420.279 667.325 400.722C700.336 365.767 731.524 332.739 737.761 307.833C743.563 283.316 736.841 279.717 716.879 269.019C706.325 263.377 691.836 255.642 674.324 241.996C624.839 211.273 493.388 138.405 346.306 129.093C206.049 120.401 137.082 135.5 82.7556 186.773C37.3171 234.111 15.2889 352.028 112.782 454.47C157.474 507.264 217.108 541.445 264.998 568.904L269.56 571.489C325.06 601.998 362.49 623.324 390.865 640.742L394.526 642.986C431.498 665.794 463.44 685.443 489.957 679.309C503.212 676.224 514.692 666.853 525.15 650.647Z" fill="#A7CEFC" fill-opacity="0.7"/>
<path d="M708.421 303.767C710.422 311.235 709.769 319.88 707.772 332.071L707.747 332.311C701.211 356.442 676.385 380.811 650.133 406.573C632.175 424.167 613.661 442.377 598.63 462.335C573.394 491.554 556.447 524.341 540.055 556.009C529.067 577.291 518.667 597.407 506.16 615.872L505.892 616.216C468.296 657.061 442.8 641.824 396.489 614.214C391.455 611.212 386.154 608.047 380.51 604.781C370.646 598.021 359.745 590.918 348.186 583.369C296.784 549.858 226.395 503.911 159.552 430.399C85.4042 338.525 97.2316 249.023 141.817 201.021C188.65 152.338 259.397 147.408 381.867 155.194C506.567 166.268 600.405 222.328 650.81 252.454L656.431 255.804C690.565 279.101 704.536 289.267 708.421 303.767ZM702.25 331.608C707.642 298.342 703.102 294.158 652.969 259.84L647.503 256.565C597.479 226.686 504.343 171.06 381.06 160.073C260.644 152.397 191.175 157.062 146.069 203.961C102.913 250.415 91.7393 337.488 164.145 427.226C230.487 500.211 300.589 545.924 351.742 579.347C363.301 586.896 374.202 593.999 384.004 600.697C389.493 603.889 394.795 607.053 399.87 610.045C446.233 637.68 467.439 650.336 501.544 613.418C513.815 595.249 524.086 575.323 534.996 554.256C551.488 522.289 568.597 489.265 594.142 459.691C609.303 439.543 627.997 421.168 646.094 403.42C671.74 378.248 695.991 354.421 702.25 331.608Z" fill="#A7CEFC" fill-opacity="0.7"/>
<path d="M678.4 318.649C680.954 328.183 679.379 338.085 675.616 350.905C667.707 372.762 645.101 394.671 621.217 417.856C606.999 431.612 592.332 445.877 579.461 461.137C558.741 483.202 542.398 507.163 526.552 530.291C513.554 549.277 501.309 567.206 487.782 582.37L487.569 582.582C450.856 615.809 424.961 598.581 377.93 567.278L377.384 566.919L369.352 560.951C323.753 526.934 261.288 480.34 205.81 408.446C144.906 322.347 164.578 251.88 199.86 217.677C237.485 181.136 298.499 171.276 410.451 183.629C488.804 193.484 564.897 223.449 636.609 272.654C662.616 292.145 674.748 305.019 678.4 318.649ZM483.53 579.429C496.77 564.537 508.928 546.786 521.755 528.002C537.688 504.695 554.211 480.569 575.102 458.303C588.028 442.912 602.853 428.565 617.178 414.703C640.646 391.98 662.784 370.506 670.252 349.856C678.892 320.654 675.247 308.226 632.889 276.565C561.907 227.902 486.663 198.254 409.289 188.525C299.471 176.416 239.939 185.763 203.815 220.852C167.213 256.342 155.069 327.201 210.491 405.599C265.542 476.908 327.677 523.279 373.092 557.113L381.454 563.304C428.814 594.829 450.496 609.262 483.53 579.429Z" fill="#A7CEFC" fill-opacity="0.7"/>
<path d="M650.433 329.795C653.289 340.453 651.73 351.594 646.411 364.986L646.389 365.07C637.548 385.466 616.081 405.75 593.401 427.213C582.88 437.142 572.05 447.426 561.963 458.133C546.921 472.848 533.514 488.29 520.598 503.213C504.723 521.532 489.712 538.881 474.092 551.769C440.324 576.009 415.124 560.537 377.532 532.223C341.2 502.405 288.23 455.482 247.257 391.551C213.466 329.076 212.832 275.667 245.388 241.029C280.451 203.659 348.885 192.277 433.159 209.793C531.047 225.564 598.896 273.785 617.332 288.194C636.248 303.718 646.839 316.382 650.433 329.795ZM641.156 363.674C651.049 338.644 649.429 321.516 613.395 291.968C595.246 277.793 528.283 230.19 431.622 214.634C349.447 197.566 283.125 208.266 249.607 244.017C218.597 277.037 219.573 328.528 252.305 389.072C292.874 452.334 345.444 498.937 381.478 528.484C420.15 557.636 441.578 569.107 470.666 548.219C485.725 535.753 500.565 518.605 516.301 500.44C529.324 485.411 542.753 469.885 557.911 455.1C567.989 444.357 578.945 434.039 589.498 424.062C611.691 402.963 632.722 383.068 641.156 363.674Z" fill="#A7CEFC" fill-opacity="0.7"/>
<path d="M624.591 338.779C627.621 350.089 625.918 361.696 619.83 374.906L619.614 375.274C582.218 429.626 484.303 508.276 465.077 523.491L464.612 523.771C435.43 539.438 412.701 527.811 380.977 500.916C352.412 475.234 312.555 433.267 284.665 379.041C260.81 328.629 263.185 285.448 291.341 257.39C322.627 226.238 380.568 217.668 450.309 233.832C516.829 246.703 570.486 277.551 598.488 302.14C612.842 315.079 621.376 326.78 624.591 338.779ZM614.772 373.153C626.309 347.876 620.777 329.582 594.377 305.767C566.898 281.62 514.158 251.342 448.627 238.635C381.909 223.176 324.675 231.362 295.412 260.495C268.812 286.971 266.797 328.307 289.823 376.804C317.404 430.375 356.863 471.866 385.088 497.289C415.426 523.04 435.662 533.587 461.781 519.75C517.01 476.045 586.128 414.669 614.772 373.153Z" fill="#A7CEFC" fill-opacity="0.7"/>
<path d="M600.814 347.248C604.058 359.356 602.206 371.08 595.309 381.437C568.183 422.741 501.868 475.945 459.276 497.809C449.252 502.204 438.441 502.653 427.091 499.245C392.107 488.726 351.474 440.673 318.409 370.66C302.628 330.401 307.219 295.991 331.335 273.676C358.663 248.403 406.572 242.016 462.723 256.149C534.039 275 584.849 306.805 598.743 341.198C599.6 343.221 600.279 345.254 600.814 347.248ZM318.568 353.289C319.908 358.291 321.591 363.397 323.658 368.593C356.103 437.296 395.595 484.45 429.241 494.511C439.222 497.51 448.529 497.153 456.941 493.461C498.659 472.026 563.912 419.728 590.554 379.137C597.667 368.411 598.689 355.938 593.496 343.108C580.14 310.049 530.551 279.276 460.834 260.852C407.58 247.457 360.64 253.43 335.258 276.899C315.83 294.888 310.088 321.642 318.568 353.289Z" fill="#A7CEFC" fill-opacity="0.7"/>
<path d="M577.427 352.31C580.439 363.548 578.893 374.569 572.819 384.472C551.282 419.772 496.956 461.642 456.589 474.013L456.505 474.035C418.988 484.282 373.684 438.607 348.864 365.453C339.483 333.97 345.435 307.159 365.726 289.872C388.979 270.042 427.356 265.354 471.053 276.997C524.273 291.605 563.191 317.31 575.188 345.8C576.094 348.005 576.854 350.171 577.427 352.31ZM455.158 469.345C494.308 457.301 547.033 416.675 567.935 382.362C574.354 371.9 575.03 359.985 569.929 347.831C558.459 320.637 520.752 295.928 469.038 281.733C427.376 270.633 391.033 274.854 369.393 293.318C350.759 309.229 345.312 334.234 354.188 363.832C377.768 433.2 421.199 478.6 455.158 469.345Z" fill="#A7CEFC" fill-opacity="0.7"/>
<path d="M555.12 356.538C557.752 366.361 556.619 376.068 551.672 384.97C534.443 416.201 490.82 446.811 456.37 451.885C423.176 456.272 388.063 417.23 376.409 363.161C371.687 339.327 378.228 319.08 394.769 306.1C413.728 291.229 443.26 287.784 475.75 296.718C513.821 307.342 542.557 327.112 552.629 349.59C553.699 351.906 554.498 354.217 555.12 356.538ZM383.919 370.201C396.604 417.545 427.241 450.792 455.915 446.994C488.072 442.263 530.5 412.4 546.71 383.074C552.038 373.41 552.286 362.581 547.431 351.682C537.909 330.416 510.343 311.654 473.726 301.417C443.177 293.012 415.688 296.026 398.288 309.664C383.381 321.351 377.562 339.928 381.882 361.927C382.536 364.705 383.19 367.483 383.919 370.201Z" fill="#A7CEFC" fill-opacity="0.7"/>
<path d="M533.714 360.254C535.832 368.157 535.111 376.043 531.56 383.444C519.223 409.09 486.306 430.46 458.176 431.082C430.31 431.516 405.482 401.646 401.648 363.16C400.079 346.057 406.266 331.539 419.08 322.277C433.588 311.785 454.887 309.342 477.516 315.556C503.371 322.732 522.876 336.427 530.996 353.134C532.161 355.464 533.073 357.862 533.714 360.254ZM458.473 426.145C484.013 425.596 515.145 405.287 526.447 381.822C530.465 373.48 530.262 364.326 525.87 355.323C518.399 340.035 499.583 326.894 475.523 320.208C454.742 314.509 435.422 316.616 422.45 325.959C411.215 334.059 405.821 347.005 407.237 362.361C410.733 397.908 433.74 426.517 458.473 426.145Z" fill="#A7CEFC" fill-opacity="0.7"/>
<path d="M512.948 363.681C514.415 369.155 514.196 374.886 511.914 380.471C504.445 399.101 481.707 412.965 461.271 411.408C440.909 409.792 424.574 388.954 424.877 364.9C425.005 353.792 430.078 344.352 439.08 338.326C449.002 331.704 462.771 330.036 476.808 333.734C496.087 338.865 509.432 350.558 512.948 363.681ZM506.701 379.148C513.148 363.083 498.901 344.832 474.877 338.448C462.584 335.214 450.659 336.545 442.27 342.173C434.791 347.168 430.582 355.134 430.466 364.607C430.21 386.317 444.426 405.12 462.162 406.507C480.118 407.873 500.089 395.606 506.701 379.148Z" fill="#A7CEFC" fill-opacity="0.7"/>
<path d="M492.648 367.333C493.444 370.306 493.424 373.419 492.454 376.516C489.132 387.119 476.891 394.323 465.123 392.542C453.499 390.8 445.173 379.704 446.589 367.863C447.266 362.164 450.369 357.292 455.389 354.199C460.673 350.918 467.612 349.952 474.394 351.593C483.98 353.959 490.715 360.119 492.648 367.333ZM452.668 374.937C454.426 381.499 459.739 386.719 466.492 387.746C475.347 389.064 484.599 383.632 487.076 375.586C489.606 367.565 483.067 358.944 472.534 356.404C467.289 355.129 462.287 355.769 458.356 358.222C454.805 360.416 452.596 363.922 452.095 368.097C451.87 370.45 452.085 372.762 452.668 374.937Z" fill="#A7CEFC" fill-opacity="0.7"/>
</g>
</svg>
