<svg width="335" height="29" viewBox="0 0 335 29" fill="none" xmlns="http://www.w3.org/2000/svg">
<path d="M313.382 15.1771C312.925 15.2011 312.464 15.2176 312.016 15.2537C311.725 15.2762 311.601 15.2101 311.407 15.1756C311.343 15.1635 311.273 15.1395 311.213 15.1425C310.761 15.1665 310.309 15.1936 309.857 15.2206C309.718 15.2792 309.631 15.3573 309.418 15.3858C309.211 15.4129 308.966 15.4129 308.735 15.4264C308.431 15.4429 308.126 15.4595 307.822 15.4745C307.669 15.482 307.545 15.5105 307.494 15.5646C307.485 15.5736 307.586 15.5961 307.642 15.6097C307.826 15.6547 308.006 15.7058 308.209 15.7403C308.403 15.7734 308.643 15.7193 308.851 15.7614C309.317 15.856 309.321 15.8545 309.677 15.8365C309.981 15.8199 310.286 15.8019 310.59 15.7899C310.65 15.7869 310.72 15.8094 310.784 15.8214C310.978 15.8545 311.103 15.9296 311.389 15.9011C311.606 15.8785 311.846 15.874 312.072 15.862C312.261 15.9056 312.436 15.9551 312.639 15.9897C312.828 16.0227 312.884 16.0483 312.782 16.0918C312.69 16.1324 312.561 16.1489 312.39 16.1519C312.238 16.1534 312.085 16.1669 311.933 16.1744C311.855 16.1789 311.781 16.182 311.707 16.1865C311.416 16.203 311.416 16.203 310.886 16.1068C310.678 16.0693 310.443 16.1219 310.244 16.0858C310.11 16.0618 309.995 16.0257 309.866 16.0002C309.811 15.9897 309.723 15.9882 309.654 15.9912C309.423 16.0017 309.192 16.0092 308.971 16.0287C308.814 16.0423 308.721 16.0843 308.74 16.1264C308.745 16.1429 308.855 16.1669 308.92 16.1684C309.068 16.1714 309.224 16.1504 309.367 16.1609C309.506 16.1714 309.649 16.2015 309.751 16.2345C309.958 16.3036 310.193 16.242 310.392 16.2601C310.6 16.2796 310.77 16.3397 310.969 16.3757C311.019 16.3847 311.116 16.3697 311.195 16.3652C311.421 16.3547 311.647 16.3457 311.873 16.3352C312.062 16.3787 312.265 16.4178 312.436 16.4674C312.745 16.5575 313.078 16.592 313.479 16.5484C313.705 16.5244 313.927 16.5334 314.107 16.592C314.291 16.6521 314.504 16.6461 314.739 16.6341C314.956 16.6221 315.177 16.589 315.399 16.6311C315.879 16.7242 315.883 16.7287 316.451 16.6927C316.622 16.6821 316.751 16.6791 316.88 16.7137C317 16.7452 317.129 16.7723 317.254 16.8023C317.48 16.7918 317.711 16.7813 317.937 16.7693C318.227 16.7527 318.389 16.7738 318.458 16.8579C318.5 16.909 318.518 16.9555 318.62 16.9901C318.74 17.0321 318.869 17.0306 319.044 17.0186C319.21 17.0081 319.33 16.9916 319.399 16.9375C319.427 16.915 319.483 16.8939 319.533 16.8759C319.575 16.8624 319.639 16.8414 319.676 16.8444C319.746 16.8504 319.838 16.8669 319.861 16.8864C320.087 17.0682 320.087 17.0697 320.318 17.1223C320.572 17.1808 320.835 17.2334 321.065 17.2995C321.273 17.3581 321.481 17.3325 321.707 17.3325C321.877 17.3325 321.988 17.3716 321.974 17.4107C321.965 17.4332 321.901 17.4662 321.845 17.4692C321.393 17.4993 320.936 17.5248 320.479 17.5458C320.424 17.5488 320.355 17.5218 320.29 17.5083C320.161 17.4812 320.046 17.4392 319.907 17.4302C319.769 17.4212 319.607 17.4437 319.455 17.4512C319.303 17.4587 319.141 17.4783 319.003 17.4662C318.864 17.4542 318.753 17.4106 318.624 17.3821C318.564 17.3686 318.481 17.3491 318.43 17.3536C318.094 17.3896 317.844 17.3401 317.604 17.274C317.554 17.2604 317.466 17.2514 317.401 17.2544C316.866 17.28 316.336 17.31 315.8 17.3385C315.583 17.3506 315.408 17.298 315.362 17.2094C315.339 17.1598 315.293 17.1102 315.293 17.0607C315.293 16.9705 315.039 16.921 314.854 16.9315C314.55 16.9465 314.241 16.9585 313.941 16.981C313.696 16.9991 313.488 16.9811 313.322 16.927C313.128 16.8654 312.907 16.8774 312.685 16.8939C312.519 16.906 312.473 16.9555 312.482 17.0802C312.492 17.1808 312.413 17.2124 312.113 17.2289C311.735 17.2499 311.352 17.271 310.969 17.2875C310.909 17.2905 310.84 17.2649 310.78 17.2514C310.65 17.2244 310.535 17.1808 310.397 17.1718C310.258 17.1613 310.097 17.1838 309.944 17.1928C309.792 17.2004 309.631 17.2214 309.492 17.2109C309.354 17.2004 309.238 17.1553 309.114 17.1268C309.054 17.1132 308.98 17.0937 308.92 17.0967C308.615 17.1087 308.311 17.1268 308.006 17.1433C307.665 17.1613 307.665 17.1613 307.18 17.0682C306.959 17.0261 306.737 17.0592 306.52 17.0712C306.29 17.0832 306.073 17.0892 305.893 17.0291C305.773 16.9901 305.639 16.966 305.496 16.9735C305.113 16.9916 304.735 17.0141 304.352 17.0321C304.287 17.0351 304.199 17.0276 304.149 17.0141C303.904 16.951 303.664 16.9014 303.323 16.933C303.027 16.96 302.709 16.9615 302.413 16.9871C302.252 17.0006 302.178 17.0487 302.21 17.0862C302.229 17.1057 302.326 17.1283 302.39 17.1283C302.538 17.1298 302.7 17.1072 302.838 17.1162C303.124 17.1343 303.267 17.2604 303.641 17.2259C303.862 17.2049 304.093 17.1974 304.324 17.1913C304.384 17.1898 304.448 17.2184 304.513 17.2334C304.698 17.274 304.859 17.3265 305.127 17.2995C305.348 17.2785 305.584 17.2725 305.81 17.2605C306.17 17.2409 306.17 17.2424 306.636 17.3341C306.857 17.3776 307.079 17.3431 307.296 17.3325C307.457 17.325 307.609 17.31 307.739 17.331C307.937 17.3626 308.08 17.4347 308.325 17.4302C308.555 17.4257 308.781 17.4046 309.012 17.3971C309.155 17.3926 309.289 17.4167 309.404 17.4572C309.524 17.4978 309.654 17.5158 309.81 17.5068C310.037 17.4948 310.267 17.4797 310.498 17.4722C310.563 17.4707 310.637 17.4843 310.697 17.4963C310.826 17.5233 310.95 17.5548 311.075 17.5834C311.301 17.5744 311.532 17.5714 311.753 17.5533C311.924 17.5398 312.044 17.5458 312.182 17.5759C312.358 17.6164 312.501 17.6885 312.787 17.654C312.93 17.6375 313.096 17.642 313.239 17.6269C313.414 17.6074 313.534 17.6149 313.659 17.66C313.894 17.7456 314.19 17.7471 314.494 17.7141C314.827 17.678 315.076 17.7201 315.325 17.7862C315.588 17.8553 315.588 17.8538 315.791 18.0205C315.851 18.0686 316.022 18.0911 316.165 18.0821C316.405 18.0671 316.612 18.0746 316.788 18.1316C316.972 18.1932 317.194 18.1857 317.42 18.1692C317.72 18.1467 318.02 18.1271 318.264 18.2143C318.384 18.2563 318.514 18.2668 318.675 18.2563C319.132 18.2293 319.593 18.2128 320.041 18.1797C320.313 18.1587 320.47 18.2068 320.655 18.2473C320.904 18.3029 321.176 18.3525 321.176 18.4711C321.176 18.4906 321.241 18.5132 321.296 18.5282C321.416 18.5597 321.545 18.5868 321.67 18.6168C321.854 18.6619 322.034 18.6994 322.288 18.6754C322.51 18.6559 322.745 18.6499 322.971 18.6363C323.197 18.6228 323.405 18.6153 323.608 18.6724C323.843 18.737 324.092 18.7986 324.36 18.8466C324.549 18.8812 324.799 18.8226 325.002 18.8692C325.126 18.8977 325.246 18.9307 325.38 18.9548C325.435 18.9653 325.523 18.9578 325.597 18.9548C325.749 18.9488 325.906 18.9443 326.054 18.9293C326.224 18.9127 326.354 18.9157 326.483 18.9503C326.603 18.9818 326.723 19.0254 326.861 19.0344C327.069 19.0479 327.3 18.9878 327.507 19.0569C327.613 19.0915 327.747 19.1245 327.886 19.135C328.024 19.1456 328.186 19.123 328.333 19.1245C328.398 19.1245 328.476 19.1486 328.513 19.1681C328.536 19.1786 328.504 19.2071 328.472 19.2222C328.43 19.2402 328.37 19.2642 328.31 19.2672C327.853 19.2943 327.396 19.3168 326.94 19.3423C326.667 19.3573 326.667 19.3573 326.118 19.2627C325.989 19.2402 325.846 19.2447 325.685 19.2552C325.468 19.2687 325.246 19.2943 325.02 19.2672C324.725 19.1651 324.36 19.1561 323.973 19.1951C323.811 19.2116 323.663 19.2116 323.543 19.1831C323.29 19.126 323.022 19.0735 322.796 19.0059C322.62 18.9533 322.537 18.9488 322.464 19.0209C322.441 19.0434 322.417 19.0674 322.422 19.0885C322.45 19.1636 322.5 19.2372 322.528 19.3123C322.537 19.3333 322.501 19.3573 322.477 19.3799C322.404 19.443 322.307 19.4384 322.145 19.3859C321.984 19.3333 321.79 19.2988 321.531 19.3228C321.31 19.3438 321.07 19.3408 320.848 19.3634C320.507 19.3964 320.267 19.3483 320.022 19.2837C319.972 19.2702 319.884 19.2627 319.819 19.2657C319.132 19.3003 318.449 19.3393 317.761 19.3739C317.614 19.3814 317.48 19.3588 317.365 19.3183C317.245 19.2777 317.111 19.2567 316.963 19.2642C316.354 19.2958 315.745 19.3243 315.136 19.3634C314.886 19.3799 314.688 19.3603 314.517 19.3078C314.388 19.2687 314.268 19.2567 314.107 19.2612C313.931 19.2657 313.807 19.2807 313.719 19.3243C313.636 19.3664 313.696 19.3919 313.88 19.4249C314.079 19.461 314.264 19.5076 314.453 19.5496C314.605 19.5436 314.757 19.5316 314.905 19.5331C314.97 19.5331 315.03 19.5601 315.094 19.5751C315.279 19.6187 315.449 19.6623 315.712 19.6382C315.934 19.6172 316.169 19.6127 316.395 19.5992C316.709 19.5827 316.709 19.5827 317.217 19.6773C317.346 19.7013 317.484 19.6998 317.651 19.6863C317.794 19.6758 317.941 19.6968 318.043 19.7419C318.084 19.7599 318.071 19.7899 317.983 19.8891C317.983 19.9627 318.08 19.9296 318.112 19.8816C318.163 19.8125 318.066 19.7899 317.881 19.8275C317.752 19.8545 317.688 19.8936 317.72 19.9251C317.738 19.9417 317.826 19.9627 317.983 19.8891C318.389 19.799 318.698 19.7884 318.993 19.7644C319.169 19.7509 319.28 19.7569 319.418 19.7959C319.584 19.8425 319.75 19.8921 320.022 19.8681C320.318 19.841 320.632 19.838 320.932 19.8155C321.208 19.7944 321.351 19.8605 321.527 19.8996C321.739 19.9462 321.974 19.8936 322.168 19.9206C322.371 19.9477 322.514 20.0137 322.75 20.0258C323.091 19.9852 323.308 20.0603 323.566 20.1099C323.769 20.1474 324.009 20.1144 324.226 20.0979C324.471 20.0798 324.674 20.0964 324.845 20.1504C325.038 20.212 325.255 20.1985 325.477 20.185C325.994 20.155 326.012 20.1504 326.312 20.2331C326.529 20.2931 326.737 20.2661 326.954 20.2586C327.143 20.2991 327.327 20.3427 327.526 20.3787C327.576 20.3878 327.673 20.3727 327.752 20.3682C327.978 20.3562 328.209 20.3442 328.435 20.3322C328.587 20.3247 328.749 20.3021 328.887 20.3112C329.025 20.3217 329.141 20.3652 329.265 20.3938C329.39 20.4223 329.519 20.4509 329.639 20.4809C329.824 20.526 329.999 20.5635 330.257 20.541C330.479 20.5215 330.71 20.5154 330.94 20.5019C331.231 20.4854 331.222 20.4899 331.762 20.58C332.053 20.6296 332.352 20.5695 332.648 20.5635C332.795 20.5605 332.939 20.577 333.04 20.6206C333.082 20.6386 333.068 20.6687 333.082 20.6942C332.32 20.7348 331.554 20.7693 330.802 20.8189C330.511 20.8384 330.359 20.7843 330.202 20.7393C329.944 20.6672 329.602 20.7723 329.358 20.6792C329.21 20.6236 328.998 20.5921 328.744 20.6191C328.596 20.6341 328.439 20.6326 328.287 20.6461C327.899 20.6792 327.544 20.6807 327.235 20.577C327.129 20.541 326.977 20.5215 326.866 20.4869C326.737 20.4494 326.612 20.4283 326.46 20.4358C325.772 20.4719 325.089 20.5079 324.406 20.547C324.346 20.55 324.286 20.5725 324.236 20.589C324.106 20.6311 324.148 20.6642 324.355 20.6912C324.425 20.7002 324.48 20.7197 324.545 20.7347C324.669 20.7633 324.785 20.8083 324.923 20.8189C325.061 20.8294 325.223 20.8084 325.375 20.8008C325.528 20.7933 325.689 20.7708 325.828 20.7798C325.966 20.7903 326.081 20.8339 326.211 20.8609C326.271 20.8744 326.344 20.897 326.404 20.8955C326.709 20.8865 327.009 20.8699 327.313 20.8564C327.503 20.897 327.664 20.9556 327.89 20.9691C328.033 20.9781 328.186 20.9616 328.333 20.9646C328.398 20.9661 328.481 20.9886 328.513 21.0081C328.532 21.0201 328.472 21.0502 328.426 21.0652C328.25 21.1223 328.01 21.1118 327.793 21.1298C327.558 21.1493 327.346 21.1433 327.166 21.0847C327.046 21.0457 326.912 21.0247 326.764 21.0322C326.381 21.0517 326.003 21.0742 325.62 21.0907C325.555 21.0938 325.477 21.0802 325.417 21.0697C324.932 20.9781 324.932 20.9751 324.591 20.9946C324.088 21.0232 324.088 21.0231 323.751 20.9435C323.686 20.9285 323.617 20.9 323.562 20.9015C323.026 20.9255 322.496 20.9495 321.965 20.9841C321.79 20.9946 321.67 20.9946 321.541 20.9556C321.43 20.9225 321.301 20.885 321.162 20.8759C321.019 20.8669 320.862 20.8895 320.71 20.897C320.558 20.9045 320.396 20.924 320.262 20.912C320.124 20.9 320.004 20.8579 319.884 20.8279C319.759 20.7963 319.626 20.7978 319.455 20.8098C318.929 20.8444 318.924 20.8399 318.403 20.7468C318.343 20.7363 318.264 20.7242 318.2 20.7272C317.817 20.7453 317.438 20.7678 317.055 20.7858C316.908 20.7933 316.765 20.7738 316.663 20.7302C316.622 20.7122 316.635 20.6822 316.608 20.6236C316.575 20.6101 316.612 20.6341 316.622 20.6566C316.691 20.6536 316.774 20.6566 316.825 20.6446C316.954 20.6161 317.018 20.5785 316.986 20.547C316.968 20.5305 316.88 20.5094 316.825 20.5094C316.723 20.5094 316.635 20.5425 316.608 20.6236C316.317 20.6732 316.008 20.6837 315.708 20.7077C315.533 20.7227 315.422 20.7152 315.283 20.6762C315.117 20.6281 314.946 20.5815 314.674 20.6056C314.379 20.6326 314.065 20.6371 313.761 20.6581C313.41 20.6822 313.258 20.547 312.962 20.55C312.658 20.553 312.353 20.5785 312.049 20.5966C311.781 20.6116 311.781 20.6116 311.227 20.5139C311.024 20.4779 310.784 20.5305 310.586 20.4929C310.452 20.4689 310.337 20.4328 310.207 20.4073C310.152 20.3968 310.064 20.3968 309.995 20.3998C309.612 20.4178 309.224 20.4298 308.855 20.4629C308.435 20.5019 308.117 20.4599 307.817 20.3712C307.439 20.3878 307.056 20.3968 306.682 20.4253C306.41 20.4464 306.253 20.3968 306.068 20.3562C306.004 20.3427 305.948 20.3202 305.879 20.3142C305.81 20.3082 305.727 20.3202 305.653 20.3247C305.348 20.3412 305.034 20.3487 304.739 20.3758C304.375 20.4103 304.236 20.2871 303.955 20.2721C303.765 20.3457 303.664 20.4463 303.29 20.4539C302.986 20.4599 302.681 20.4839 302.376 20.5004C302.224 20.5079 302.072 20.517 301.92 20.5245C301.675 20.538 301.56 20.5966 301.611 20.6867C301.638 20.7362 301.661 20.7858 301.684 20.8354C301.73 20.924 301.615 20.9991 301.421 21.0096C300.886 21.0382 300.355 21.0682 299.82 21.0937C299.677 21.1012 299.539 21.0757 299.423 21.0352C299.303 20.9946 299.169 20.9766 299.022 20.9841C298.486 21.0126 297.956 21.0427 297.421 21.0682C297.361 21.0712 297.282 21.0562 297.222 21.0442C297.093 21.0171 296.968 20.9856 296.844 20.9571C296.539 20.9706 296.239 20.9796 295.939 20.9976C295.455 21.0246 295.455 21.0261 295.099 20.9435C295.035 20.9285 294.97 20.9 294.91 20.9015C294.68 20.9075 294.453 20.9225 294.223 20.936C293.544 20.9751 293.544 20.9751 293.346 20.93C293.166 20.888 293.004 20.8369 292.732 20.8609C292.437 20.888 292.123 20.897 291.818 20.912C291.592 20.9225 291.366 20.9345 291.14 20.9375C291.08 20.939 291.016 20.9105 290.951 20.8955C290.766 20.8489 290.586 20.8114 290.333 20.8369C290.185 20.8519 290.028 20.8549 289.876 20.8624C289.479 20.8835 289.479 20.8834 288.828 20.7933C288.764 20.7843 288.685 20.7738 288.621 20.7783C288.085 20.8053 287.555 20.8354 287.019 20.8609C286.955 20.8639 286.876 20.8549 286.812 20.8474C286.083 20.7603 286.083 20.7603 285.307 20.8023C285.012 20.8174 285.003 20.8234 284.694 20.7438C284.555 20.7092 284.44 20.6927 284.278 20.7032C283.669 20.7393 283.055 20.7633 282.451 20.8054C282.179 20.8234 282.022 20.7783 281.837 20.7377C281.773 20.7242 281.703 20.6942 281.648 20.6957C281.039 20.7242 280.43 20.7588 279.821 20.7873C279.765 20.7903 279.696 20.7603 279.631 20.7468C279.507 20.7197 279.387 20.6792 279.248 20.6702C279.105 20.6611 278.948 20.6837 278.792 20.6912C278.409 20.7107 278.409 20.7092 277.966 20.6206C277.906 20.6086 277.827 20.5921 277.767 20.5951C277.158 20.6251 276.544 20.6506 275.94 20.6942C275.594 20.7182 275.358 20.6747 275.114 20.6116C275.063 20.5981 274.975 20.5921 274.911 20.5951C274.223 20.6296 273.54 20.6687 272.853 20.7032C272.71 20.7107 272.571 20.6852 272.456 20.6461C272.271 20.5845 272.054 20.592 271.824 20.6056C271.293 20.6371 271.288 20.6356 270.975 20.5635C270.91 20.5485 270.855 20.529 270.785 20.5215C270.721 20.5139 270.638 20.5185 270.569 20.5215C270.264 20.5365 269.959 20.553 269.655 20.5695C269.35 20.586 269.041 20.5951 268.741 20.6206C268.372 20.6521 268.197 20.5545 267.938 20.5094C267.56 20.529 267.172 20.541 266.798 20.5725C266.512 20.5966 266.379 20.5305 266.189 20.4959C266.125 20.4839 266.055 20.4584 265.995 20.4614C265.308 20.4944 264.62 20.5305 263.937 20.571C263.771 20.58 263.661 20.568 263.522 20.532C263.213 20.4508 263.199 20.4539 262.682 20.4839C262.456 20.4974 262.239 20.5094 262.045 20.4479C261.875 20.3923 261.667 20.3787 261.423 20.3968C261.123 20.4193 260.813 20.4313 260.509 20.4464C260.204 20.4629 259.9 20.4854 259.595 20.4929C259.351 20.5004 259.203 20.4298 259.009 20.3938C258.949 20.3833 258.866 20.3818 258.797 20.3848C258.492 20.3983 258.179 20.4088 257.883 20.4343C257.523 20.4659 257.325 20.3833 257.071 20.3352C257.016 20.3247 256.923 20.3307 256.854 20.3352C256.319 20.3622 255.788 20.3923 255.253 20.4208C255.064 20.3803 254.87 20.3412 254.681 20.3007C254.376 20.3157 254.072 20.3322 253.767 20.3472C253.536 20.3592 253.301 20.3637 253.084 20.3863C252.803 20.4163 252.664 20.3457 252.475 20.3112C252.41 20.2991 252.341 20.2736 252.281 20.2766C251.898 20.2931 251.515 20.3112 251.137 20.3367C250.777 20.3622 250.634 20.227 250.338 20.2285C250.034 20.23 249.72 20.2496 249.425 20.2766C249.083 20.3082 248.843 20.2601 248.599 20.1955C248.548 20.182 248.46 20.1745 248.396 20.1775C248.013 20.1955 247.634 20.218 247.251 20.2361C247.187 20.2391 247.108 20.2316 247.044 20.2225C246.315 20.1339 246.315 20.1324 245.996 20.1504C245.77 20.1625 245.539 20.1775 245.309 20.185C245.244 20.188 245.165 20.1745 245.105 20.1625C244.626 20.0708 244.626 20.0693 244.279 20.0874C243.975 20.1039 243.67 20.1204 243.366 20.1369C243.177 20.0964 242.983 20.0573 242.794 20.0168C242.415 20.0363 242.028 20.0513 241.654 20.0783C241.478 20.0903 241.363 20.0858 241.229 20.0483C241.063 20.0032 240.897 19.9507 240.62 19.9762C240.325 20.0032 240.011 20.0062 239.711 20.0288C239.351 20.0558 239.204 19.9191 238.913 19.9206C238.608 19.9221 238.294 19.9416 237.999 19.9687C237.658 20.0002 237.418 19.9522 237.173 19.8876C237.122 19.8741 237.035 19.8666 236.97 19.8696C236.13 19.9131 235.295 19.9567 234.455 20.0032C233.938 20.0318 233.938 20.0333 232.956 19.9507C232.886 19.9447 232.812 19.9387 232.743 19.9417C232.439 19.9552 232.125 19.9657 231.829 19.9912C231.47 20.0228 231.271 19.9416 231.017 19.8921C230.962 19.8816 230.874 19.8876 230.8 19.8906C230.57 19.9011 230.344 19.9146 230.113 19.9266C229.808 19.9432 229.504 19.9597 229.199 19.9762C229.01 19.9371 228.816 19.8966 228.627 19.8575C228.249 19.8771 227.861 19.8876 227.487 19.9191C227.201 19.9432 227.067 19.8801 226.878 19.844C226.813 19.832 226.744 19.8065 226.684 19.808C225.997 19.841 225.309 19.8756 224.626 19.9176C224.345 19.9356 224.216 19.868 224.026 19.8335C223.962 19.823 223.888 19.8035 223.828 19.8065C223.371 19.8275 222.914 19.853 222.457 19.8786C222.199 19.8936 222.199 19.8936 221.636 19.8005C221.571 19.7899 221.498 19.7794 221.433 19.7824C219.984 19.8575 218.54 19.9371 217.091 20.0122C216.943 20.0198 216.809 19.9972 216.694 19.9567C216.574 19.9161 216.44 19.8951 216.292 19.9026C215.683 19.9341 215.07 19.9627 214.465 20.0017C214.216 20.0183 214.017 19.9987 213.847 19.9461C213.717 19.9071 213.598 19.8921 213.436 19.9011C213.131 19.9191 212.827 19.9341 212.522 19.9507C212.218 19.9672 211.913 19.9837 211.609 20.0002C211.304 20.0168 210.995 20.0258 210.695 20.0513C210.326 20.0828 210.146 19.9897 209.892 19.9432C209.435 19.9657 208.978 19.9882 208.526 20.0122C207.917 20.0438 207.308 20.0783 206.699 20.1084C206.643 20.1114 206.574 20.0844 206.51 20.0708C206.32 20.0333 206.182 19.9807 205.9 19.9972C204.535 20.0768 203.159 20.1444 201.789 20.2225C201.503 20.2391 201.378 20.1745 201.184 20.1399C201.12 20.1294 201.046 20.1084 200.986 20.1114C200.225 20.1489 199.463 20.191 198.702 20.2315C198.393 20.2481 198.393 20.2481 197.876 20.1549C197.816 20.1444 197.737 20.1309 197.673 20.1339C196.681 20.185 195.693 20.2391 194.701 20.2916C194.553 20.2991 194.42 20.2781 194.3 20.2376C194.184 20.197 194.046 20.1745 193.903 20.182C192.989 20.2301 192.071 20.2766 191.162 20.3292C190.917 20.3442 190.714 20.3307 190.539 20.2766C190.414 20.2376 190.29 20.221 190.133 20.23C188.762 20.3036 187.392 20.3743 186.021 20.4524C185.758 20.4674 185.573 20.4388 185.407 20.3893C185.274 20.3502 185.158 20.3427 184.992 20.3487C184.817 20.3562 184.711 20.3727 184.614 20.4178C184.489 20.4764 184.411 20.55 184.115 20.5545C183.811 20.559 183.502 20.577 183.202 20.6026C182.915 20.6281 182.782 20.5605 182.602 20.52C182.468 20.4914 182.343 20.4869 182.173 20.5004C182.016 20.5124 181.919 20.538 181.826 20.586C181.623 20.6882 181.605 20.6882 181.356 20.6236C181.222 20.589 181.102 20.562 180.954 20.568C180.345 20.5981 179.736 20.6311 179.127 20.6656C178.776 20.6852 178.772 20.6882 178.509 20.6131C178.379 20.5755 178.255 20.5575 178.102 20.5665C176.427 20.6566 174.752 20.7438 173.077 20.8384C172.819 20.8534 172.644 20.8219 172.459 20.7768C172.399 20.7618 172.339 20.7407 172.27 20.7347C172.201 20.7287 172.122 20.7347 172.048 20.7377C170.83 20.8023 169.607 20.8639 168.393 20.936C168.117 20.9526 167.969 20.9045 167.78 20.8654C167.715 20.8519 167.66 20.8309 167.591 20.8249C167.521 20.8204 167.438 20.8309 167.364 20.8354C166.146 20.9 164.923 20.9616 163.71 21.0337C163.419 21.0502 163.294 20.9871 163.105 20.9541C163.041 20.942 162.971 20.9195 162.911 20.9225C162.528 20.939 162.15 20.9616 161.767 20.9811C160.853 21.0307 159.94 21.0772 159.026 21.1283C158.675 21.1478 158.523 21.0141 158.228 21.0201C157.845 21.0276 157.466 21.0577 157.083 21.0787C156.779 21.0952 156.474 21.1103 156.17 21.1283C155.87 21.1448 155.87 21.1448 155.122 21.0577C155.057 21.0502 154.979 21.0397 154.914 21.0427C153.849 21.0982 152.778 21.1538 151.717 21.2139C151.472 21.2274 151.269 21.2199 151.094 21.1644C150.969 21.1253 150.84 21.1058 150.688 21.1148C149.086 21.2004 147.49 21.286 145.888 21.3701C145.828 21.3731 145.75 21.3581 145.69 21.3461C145.561 21.3191 145.436 21.2875 145.312 21.259C145.219 21.2935 145.099 21.3251 145.039 21.3641C144.956 21.4167 144.846 21.4317 144.67 21.4407C144.495 21.4497 144.384 21.4467 144.246 21.4077C144.08 21.3596 143.909 21.3221 143.637 21.3371C141.962 21.4317 140.286 21.5173 138.611 21.6105C138.334 21.6255 138.205 21.5594 138.011 21.5248C137.947 21.5143 137.873 21.4978 137.813 21.5008C137.125 21.5354 136.442 21.5729 135.755 21.609C133.849 21.7111 131.943 21.8087 130.042 21.9169C129.696 21.9364 129.461 21.8989 129.216 21.8343C129.165 21.8208 129.078 21.8132 129.013 21.8162C126.346 21.9574 123.679 22.1001 121.016 22.2428C120.873 22.2503 120.735 22.2263 120.619 22.1873C120.499 22.1467 120.365 22.1272 120.218 22.1347C119 22.1993 117.781 22.2639 116.563 22.33C116.259 22.3465 116.254 22.348 115.94 22.2759C115.876 22.2609 115.806 22.2323 115.756 22.2353C115.649 22.2428 115.548 22.2804 115.474 22.3314C115.4 22.3855 115.285 22.4005 115.114 22.4111C114.939 22.4216 114.823 22.4171 114.69 22.381C114.519 22.336 114.362 22.2924 114.085 22.3074C110.583 22.4997 107.08 22.6844 103.578 22.8752C103.296 22.8902 103.167 22.8271 102.973 22.7926C102.909 22.7821 102.844 22.7671 102.775 22.764C102.701 22.761 102.623 22.7701 102.549 22.7746C96.836 23.0795 91.1232 23.3859 85.4104 23.6908C85.069 23.7089 85.0735 23.7089 84.6998 23.8471C84.6536 23.8636 84.5936 23.8861 84.529 23.8891C82.7801 23.9852 81.0266 24.0784 79.2731 24.1715C78.5117 24.212 77.7503 24.2541 76.9889 24.2932C76.7167 24.3067 76.7167 24.3067 76.066 24.4689C76.0106 24.4824 75.946 24.5005 75.8814 24.5035C72.8358 24.6672 69.7901 24.8309 66.7399 24.9916C66.5 25.0037 66.3062 25.0307 66.1954 25.1028C66.117 25.1539 66.0155 25.1839 65.8632 25.1929C63.7313 25.3071 61.5994 25.4227 59.4629 25.5339C59.2091 25.5474 59.0568 25.5895 58.9322 25.6526C58.8907 25.6736 58.8537 25.6976 58.7937 25.7126C58.7383 25.7261 58.6553 25.7307 58.5861 25.7352C56.7587 25.8328 54.9314 25.9334 53.0995 26.0266C52.8272 26.0401 52.7164 26.0957 52.5826 26.1542C52.5364 26.1738 52.5041 26.2008 52.4441 26.2143C52.3841 26.2264 52.2965 26.2263 52.2226 26.2294C50.6998 26.3105 49.1771 26.3931 47.6543 26.4742C47.359 26.4667 47.2943 26.5538 47.1513 26.6064C47.1005 26.6244 47.0637 26.6484 47.0037 26.6604C46.9391 26.6725 46.8559 26.671 46.7775 26.674C45.5592 26.7386 44.341 26.8077 43.1182 26.8677C42.8367 26.8813 42.7813 26.9579 42.629 27.0104C42.5782 27.0269 42.5275 27.0525 42.4676 27.057C41.7062 27.1006 40.9448 27.1411 40.1834 27.1802C39.9296 27.1937 39.9296 27.1922 39.482 27.3409C39.4312 27.3574 39.3712 27.3754 39.3066 27.3799C38.1668 27.443 37.0224 27.5031 35.878 27.5647C35.7303 27.5722 35.6288 27.6083 35.555 27.6593C35.4812 27.7104 35.375 27.7434 35.2274 27.751C34.3137 27.8005 33.3999 27.8516 32.4863 27.8967C32.2325 27.9087 32.0664 27.9462 31.9556 28.0138C31.8726 28.0649 31.7711 28.0904 31.6096 28.0994C30.6959 28.1475 29.7822 28.2001 28.8639 28.2421C28.5963 28.2542 28.4578 28.3052 28.347 28.3683C28.2594 28.4194 28.1578 28.4374 27.9871 28.4464C26.312 28.5335 24.6324 28.6207 22.9619 28.7168C22.6804 28.7333 22.5374 28.6807 22.3528 28.6432C22.0897 28.5906 21.8452 28.5335 21.8452 28.4164C21.8452 28.3983 21.7668 28.3773 21.7114 28.3623C21.3007 28.2496 21.3007 28.2497 21.2361 28.1295C21.1992 28.0559 21.1576 27.9808 21.1253 27.9057C21.0654 27.7825 20.9176 27.751 20.4931 27.7735C20.3408 27.781 20.1885 27.7915 20.0363 27.7975C19.8102 27.808 19.6394 27.7585 19.5979 27.6683C19.5748 27.6188 19.5472 27.5692 19.5241 27.5196C19.7548 27.5076 19.7502 27.5061 20.1562 27.3244C20.327 27.2478 20.3271 27.2478 19.9994 27.1712C19.8748 27.1426 19.7548 27.1111 19.621 27.084C19.561 27.072 19.4826 27.0645 19.418 27.0675C19.035 27.0855 18.6566 27.1066 18.2782 27.1276C17.6691 27.1606 17.669 27.1606 17.0507 27.0074C16.9999 26.9954 16.9215 26.9729 16.9307 26.9609C16.9815 26.9053 17.106 26.8812 17.2629 26.8752C17.4937 26.8662 17.7198 26.8512 17.9459 26.8392C18.0981 26.8317 18.2504 26.8227 18.4027 26.8152C18.5458 26.7581 18.6935 26.7025 18.8273 26.6439C19.0396 26.5538 19.0395 26.5508 18.7488 26.4877C18.5642 26.4456 18.3658 26.4081 18.1766 26.369C17.9505 26.3811 17.7198 26.3946 17.4937 26.4051C17.2076 26.4186 17.0922 26.3901 17.0183 26.2924C16.9537 26.2068 17.0322 26.1332 17.2537 26.1152C17.4798 26.0972 17.6922 26.0852 17.8075 26.0086C17.9183 25.9349 18.1121 25.9064 18.352 25.9004C18.5043 25.8959 18.6566 25.8854 18.8088 25.8764C19.0073 25.8644 19.1134 25.7877 19.0719 25.7021C19.0488 25.6465 19.0027 25.6 18.8227 25.588C18.0244 25.5354 18.0151 25.5369 17.6183 25.4347C17.5813 25.4257 17.5537 25.3987 17.5676 25.3852C17.5906 25.3627 17.6414 25.3296 17.6968 25.3251C18.2274 25.2921 18.7581 25.262 19.2888 25.2395C19.4641 25.232 19.5933 25.2214 19.6533 25.1659C19.7364 25.0893 19.6995 25.0187 19.538 24.9661C19.4872 24.9496 19.4041 24.9285 19.3487 24.9301C18.7396 24.9571 18.1351 24.9916 17.526 25.0187C17.4706 25.0217 17.3691 24.9962 17.3461 24.9766C17.2999 24.9406 17.3691 24.8925 17.5306 24.876C17.7429 24.8534 17.9598 24.8519 18.1028 24.7768C18.3012 24.6702 18.5458 24.5726 18.7673 24.4704C18.8042 24.4524 18.8643 24.4178 18.8504 24.4148C18.735 24.3818 18.6012 24.3563 18.4812 24.3247C18.2782 24.2721 18.2781 24.1985 18.3243 24.1279C18.3612 24.0709 18.4996 24.0483 18.6704 24.0483C18.7442 24.0483 18.8365 24.0483 18.8965 24.0348C19.0534 24.0018 19.1042 23.9597 19.0257 23.9282C18.9796 23.9101 18.8965 23.8846 18.8412 23.8876C17.8537 23.9372 16.8615 23.9852 15.8786 24.0468C15.5879 24.0649 15.4541 24.0078 15.2788 23.9672C15.1449 23.9357 15.0203 23.9237 14.8542 23.9462C14.6973 23.9672 14.545 23.9552 14.4481 23.9056C14.3697 23.8651 14.5081 23.8305 14.8819 23.7915C14.9511 23.784 15.0295 23.7795 15.0803 23.7644C15.6155 23.6022 15.6155 23.6007 15.9847 23.5797C16.3446 23.5602 16.3447 23.5587 16.5339 23.4715C16.6216 23.431 16.7184 23.3904 16.8015 23.3484C16.8338 23.3318 16.8892 23.3018 16.8708 23.2928C16.7692 23.2462 16.6307 23.2357 16.4692 23.2462C16.1093 23.2718 15.6848 23.2507 15.4956 23.3934C15.4218 23.4475 15.3064 23.4625 15.1403 23.4715C13.4698 23.5587 11.7993 23.6518 10.1243 23.7359C9.852 23.7494 9.72748 23.805 9.62135 23.8666C9.52906 23.9177 9.42751 23.9327 9.25216 23.9417C9.07681 23.9507 8.9383 23.9552 8.83679 23.9056C8.7768 23.8756 8.82757 23.8335 8.96601 23.7915C9.16443 23.7314 9.1275 23.6563 9.06289 23.5857C9.01675 23.5391 8.8737 23.5061 8.72142 23.5091C8.49531 23.5151 8.27849 23.5316 8.08929 23.4715C7.97854 23.437 7.84008 23.4129 7.71549 23.3829C7.47553 23.3213 7.23557 23.2582 6.8987 23.2988C6.66798 23.2838 6.50647 23.2297 6.32189 23.1876C6.01271 23.1185 5.98503 23.108 6.20652 23.0344C6.45571 22.9518 6.26186 22.8437 6.4003 22.7625C6.54796 22.6754 6.75107 22.5988 6.93104 22.5177C6.97718 22.4967 7.01873 22.4772 7.06488 22.4561C6.95874 22.4261 6.86186 22.3885 6.73726 22.3675C6.57575 22.3405 6.49269 22.3074 6.50192 22.2143C6.46962 22.2008 6.48336 22.2353 6.52028 22.2443C6.56181 22.2533 6.66341 22.2458 6.71417 22.2353C6.84337 22.2068 6.90791 22.1692 6.87561 22.1377C6.85715 22.1212 6.76954 22.1001 6.71417 22.1001C6.61265 22.1001 6.52499 22.1332 6.4973 22.2143C5.98047 22.2759 5.4451 22.3059 4.90981 22.33C4.85444 22.333 4.78526 22.3029 4.72066 22.2879C4.50839 22.2368 4.50836 22.2383 3.8854 22.2233C3.8208 22.2218 3.73317 22.2008 3.70086 22.1798C3.56704 22.0881 3.57169 21.9875 3.50709 21.8898C3.62707 21.8268 3.74695 21.7652 3.87154 21.7036C4.12073 21.5789 4.44382 21.4693 4.63763 21.3326C4.5961 21.259 4.54071 21.1854 4.74375 21.1253C5.32057 21.0502 5.31599 21.0502 5.47289 20.9781C5.9205 20.7738 6.36346 20.568 6.82953 20.3667C6.95412 20.3142 6.95414 20.2856 6.73264 20.2631C6.66343 20.2571 6.58949 20.2556 6.51566 20.2586C6.28493 20.2691 6.05421 20.2961 5.8281 20.2901C5.60199 20.2856 5.43587 20.2195 5.25128 20.179C5.06209 20.1369 4.8729 20.0934 4.68371 20.0498C4.46682 20.0543 4.24998 20.0964 4.0331 20.0288C3.86697 19.9762 3.65933 19.9386 3.47014 19.8951C3.61319 19.7809 3.88087 19.6938 4.08853 19.5932C4.27772 19.5015 4.28223 19.503 4.78983 19.4324C5.02979 19.3994 5.11285 19.2297 4.90981 19.1801C4.66524 19.12 4.40688 19.0644 4.1577 19.0073C3.94082 19.0119 3.71936 19.0524 3.51171 18.9848C3.3502 18.9338 3.16558 18.8992 2.89794 18.9187C2.44572 18.9518 1.98428 18.9683 1.52744 18.9953C1.37054 19.0044 1.19976 18.9984 1.13054 18.9473C1.08439 18.9112 1.21822 18.8617 1.3705 18.8511C1.60123 18.8361 1.80886 18.8181 1.92422 18.743C2.03497 18.6679 2.23799 18.6454 2.47795 18.6348C2.54255 18.6318 2.61644 18.6138 2.64874 18.5958C2.81486 18.5087 2.99946 18.4336 3.35477 18.4366C3.50244 18.4065 3.58084 18.369 3.53469 18.3329C3.507 18.3134 3.41015 18.2879 3.35477 18.2909C2.97177 18.3059 2.58878 18.3209 2.215 18.348C2.03965 18.36 1.90575 18.363 1.795 18.3179C1.71656 18.2879 1.75808 18.2473 1.90575 18.2037C2.03496 18.1662 2.07191 18.1226 2.06268 18.0716C2.03961 17.9529 1.90115 17.9184 1.45815 17.9259C1.13975 17.9319 1.0613 17.9123 0.992079 17.8102C0.973621 17.7862 0.927557 17.7531 0.959859 17.7366C1.15828 17.6345 1.2875 17.5083 1.66128 17.4602C1.80894 17.4422 1.96577 17.4422 2.05806 17.4031C2.15035 17.3641 2.23346 17.319 2.33036 17.2815C2.45034 17.2364 2.53332 17.1944 2.47795 17.1658C2.38565 17.1147 2.23804 17.1102 2.0673 17.1283C1.91964 17.1433 1.76275 17.1448 1.61047 17.1538C1.33821 17.1703 1.11676 17.1313 1.08446 17.0652C0.996784 16.8909 0.904466 16.7182 0.826019 16.544C0.81679 16.5229 0.8398 16.4959 0.876716 16.4779C1.00592 16.4148 1.14441 16.3547 1.27823 16.2931C1.43513 16.2225 1.68435 16.236 1.89662 16.2225C2.19657 16.203 2.19646 16.2045 2.59793 16.0603C2.75482 16.0032 3.02709 16.0257 3.1886 15.9747C3.23936 15.9581 3.31781 15.9311 3.30397 15.9161C3.28551 15.8966 3.19327 15.8815 3.12405 15.8725C3.05944 15.8635 2.98102 15.859 2.9118 15.8635C2.07195 15.9071 1.23674 15.9536 0.396899 15.9957C0.253849 16.0032 0.0969503 15.9702 0.0461904 15.9236C-0.00456947 15.88 0.00922907 15.8275 0 15.7779C0.133821 15.7163 0.286042 15.6592 0.401406 15.5931C0.489082 15.5421 0.59062 15.5195 0.765972 15.5165C0.996699 15.512 1.22283 15.494 1.48125 15.4805C1.96116 15.2612 2.43181 15.0314 2.94864 14.8121C3.15629 14.7234 3.10561 14.6333 3.14714 14.5387C3.18867 14.4515 3.49783 14.4651 3.70548 14.4395C3.87161 14.4185 3.92691 14.3704 3.86231 14.3374C3.82539 14.3179 3.74237 14.2953 3.67777 14.2953C3.52549 14.2953 3.37321 14.3089 3.22093 14.3164C3.06866 14.3239 2.89331 14.3194 2.76872 14.3449C2.64874 14.3689 2.57025 14.42 2.4918 14.4636C2.40413 14.5116 2.28884 14.5282 2.11349 14.5312C1.88738 14.5342 1.66128 14.5477 1.43517 14.5582C1.18598 14.4996 0.927517 14.4425 0.687561 14.381C0.641416 14.3689 0.632137 14.3344 0.636751 14.3119C0.645981 14.2533 0.576781 14.2172 0.424501 14.1887C0.295294 14.1647 0.189151 14.1301 0.0691729 14.1001C0.161464 14.0595 0.263019 14.0205 0.336852 13.9769C0.498361 13.8853 0.701423 13.8192 1.05213 13.8222C1.19056 13.7636 1.30128 13.6915 1.48125 13.651C1.65198 13.6119 1.94271 13.6509 2.07192 13.5623C2.13652 13.5188 2.23348 13.4692 2.35808 13.4512C2.5565 13.4226 2.81491 13.4377 2.93027 13.3535C2.99949 13.3055 3.10097 13.2619 3.23479 13.2499C3.38707 13.2364 3.54393 13.2334 3.65467 13.2048C3.71466 13.1898 3.77928 13.1658 3.77928 13.1448C3.77928 13.1312 3.68706 13.1102 3.62245 13.1012C3.56246 13.0907 3.48393 13.0832 3.41471 13.0862C3.18398 13.0952 2.95788 13.1117 2.72715 13.1207C2.66254 13.1237 2.58873 13.1132 2.51952 13.1042C2.31648 13.0802 2.33029 13.0501 2.4918 12.996C2.65331 12.9435 2.76874 12.8759 2.90256 12.8143C3.05022 12.8038 3.23478 12.8083 3.3363 12.7797C3.50704 12.7332 3.62698 12.6656 3.76542 12.607C3.9177 12.598 4.07458 12.595 4.21763 12.5785C4.27762 12.5725 4.30533 12.5394 4.35609 12.5199C4.44838 12.4823 4.52689 12.4283 4.65148 12.4102C4.85452 12.3832 5.1037 12.3937 5.22368 12.3111C5.2929 12.263 5.39899 12.212 5.5282 12.209C5.88813 12.203 6.04042 12.1203 6.225 12.0422C6.36344 11.9836 6.65878 12.0137 6.81106 11.9551C6.91257 11.9175 6.98645 11.871 7.08797 11.8349C7.1295 11.8199 7.21715 11.8124 7.28637 11.8079C7.66476 11.7854 8.04775 11.7688 8.42614 11.7448C8.48613 11.7403 8.54155 11.7178 8.5877 11.6998C8.6846 11.6607 8.74452 11.6066 8.8645 11.5811C8.98448 11.5556 9.15519 11.5556 9.30286 11.548C9.77815 11.5255 9.81511 11.5315 10.032 11.4038C10.2073 11.3002 10.6365 11.3738 10.7796 11.2596C10.8627 11.1935 11.0149 11.1395 11.2871 11.132C11.6701 11.1215 12.0485 11.0929 12.4315 11.0734C12.773 11.0554 12.7684 11.0554 13.1376 10.9157C13.3037 10.8526 13.5483 10.8616 13.7652 10.8496C13.9959 10.8376 14.2082 10.8195 14.3189 10.7444C14.4297 10.6708 14.6327 10.6468 14.868 10.6363C15.0849 10.6258 15.3295 10.6333 15.5003 10.5732C15.9156 10.429 15.911 10.4275 16.2017 10.4125C16.6585 10.3884 17.1153 10.3644 17.5722 10.3389C17.8767 10.3223 18.1951 10.3193 18.4812 10.2863C18.6889 10.2623 18.7811 10.1781 18.915 10.1196C19.2934 10.097 19.6717 10.0745 20.0501 10.0535C20.5808 10.0234 21.1161 9.9964 21.6514 9.96786C21.8821 9.91078 21.9145 9.7846 22.3021 9.77859C22.5328 9.77559 22.7589 9.75606 22.9896 9.74405C23.3726 9.72302 23.751 9.69598 24.134 9.68546C24.4247 9.67795 24.4754 9.59683 24.6277 9.54576C24.6785 9.52774 24.7246 9.50221 24.7846 9.4977C25.3845 9.45565 26.0028 9.44663 26.5889 9.38505C26.6489 9.37904 26.7043 9.34749 26.7181 9.32496C26.7273 9.31295 26.6489 9.29043 26.5981 9.27991C26.5381 9.26789 26.4597 9.25588 26.3951 9.25888C24.4893 9.35952 22.5836 9.46166 20.6777 9.5623C20.4101 9.57732 20.4101 9.57581 19.7595 9.74104C19.7041 9.75456 19.6394 9.76958 19.5702 9.77408C19.2656 9.79211 18.9565 9.80263 18.6565 9.82517C18.412 9.84319 18.209 9.82515 18.0336 9.77107C17.909 9.73202 17.7798 9.72001 17.6229 9.72302C17.4475 9.72752 17.3322 9.74405 17.2307 9.78461C17.0969 9.84018 17.0276 9.91228 16.7462 9.9273C15.4495 9.99189 14.1527 10.064 12.8606 10.1331C12.6807 10.1121 12.593 10.0805 12.6392 10.043C12.6668 10.0204 12.7222 9.99039 12.7776 9.98738C13.3083 9.95584 13.8436 9.92881 14.3742 9.89877C14.4481 9.89426 14.5496 9.89725 14.5911 9.88223C14.7941 9.81463 14.868 9.70498 15.2511 9.69747C15.4726 9.69297 15.6986 9.67044 15.9109 9.64942C15.9709 9.64341 16.0263 9.61186 16.0401 9.58933C16.0447 9.57731 15.9709 9.55477 15.9155 9.54426C15.7125 9.5007 15.4772 9.55329 15.2741 9.52325C15.2049 9.51273 15.108 9.49771 15.0941 9.47968C15.0849 9.46316 15.1633 9.43612 15.2187 9.41959C15.2695 9.40457 15.3387 9.39106 15.4079 9.38655C16.017 9.35201 16.6262 9.31595 17.2353 9.28891C17.4845 9.2784 17.6598 9.24084 17.7706 9.17175C17.8536 9.12068 17.9551 9.09365 18.112 9.08614C19.178 9.03056 20.2439 8.96898 21.3145 8.9179C21.5821 8.90589 21.7206 8.85633 21.8314 8.79174C21.9191 8.74066 22.0206 8.72264 22.1913 8.71362C23.7187 8.63552 25.2369 8.5484 26.7643 8.4733C27.0458 8.45978 27.1289 8.39519 27.2719 8.33961C27.3227 8.32008 27.3549 8.29605 27.4195 8.28403C27.4841 8.27202 27.5672 8.27351 27.6456 8.2705C28.8639 8.20591 30.0822 8.13683 31.305 8.07675C31.5911 8.06323 31.6464 7.98811 31.7941 7.93554C31.8448 7.91902 31.891 7.89199 31.951 7.88748C32.8647 7.83641 33.7784 7.78835 34.692 7.73878C35.3011 7.70573 35.9102 7.67268 36.5194 7.64114C36.8193 7.62612 36.8193 7.62461 37.2254 7.48191C37.2715 7.46539 37.3362 7.44586 37.3962 7.44135C39.1497 7.34522 40.8986 7.25361 42.6521 7.15898C42.7998 7.15147 42.9059 7.1169 42.9797 7.06583C43.0535 7.01476 43.1598 6.98021 43.3028 6.9727C44.6733 6.8976 46.0438 6.824 47.4189 6.75341C47.6681 6.74139 47.8434 6.70534 47.9542 6.63774C48.0373 6.58667 48.1388 6.55964 48.2957 6.55213C49.6662 6.48003 51.0368 6.40342 52.4119 6.33432C52.6749 6.3208 52.8041 6.26974 52.9333 6.20965C52.9794 6.18862 53.0164 6.15408 53.0717 6.15107C53.7547 6.10901 54.433 6.06545 55.1206 6.03691C55.4067 6.02489 55.5036 5.9618 55.619 5.90172C55.7113 5.85365 55.8174 5.83714 55.9928 5.83113C56.3758 5.81761 56.7542 5.79208 57.1279 5.76655C57.1833 5.76204 57.2525 5.72899 57.2572 5.70797C57.2664 5.66891 57.1602 5.64187 56.9849 5.62835C55.1575 5.72599 53.3256 5.82361 51.4982 5.92125C51.1983 5.93777 51.1983 5.93778 50.7922 6.08048C50.746 6.097 50.6814 6.11653 50.6168 6.12104C48.8633 6.21567 47.1144 6.3088 45.3609 6.40343C45.2132 6.41094 45.1071 6.44549 45.0333 6.49656C44.9594 6.54763 44.8532 6.58217 44.7102 6.58968C43.0351 6.67981 41.3601 6.77144 39.6804 6.85706C39.4312 6.86908 39.2559 6.90361 39.1451 6.9727C39.0621 7.02377 38.9605 7.05082 38.8036 7.05833C37.2024 7.14245 35.6057 7.23106 33.9998 7.31217C33.8383 7.31968 33.7184 7.27612 33.7277 7.23557C33.7323 7.21454 33.8014 7.18001 33.8568 7.177C34.692 7.12743 35.5227 7.07636 36.3625 7.0388C36.644 7.02679 36.727 6.96069 36.8701 6.90512C36.9162 6.88559 36.9532 6.86006 37.0131 6.84954C37.0778 6.83752 37.1608 6.83903 37.2393 6.83603C39.2189 6.72938 41.1986 6.62123 43.1828 6.52059C43.4689 6.50557 43.5242 6.43196 43.6719 6.37939C43.7226 6.36136 43.7688 6.33434 43.8288 6.33133C44.4379 6.29528 45.047 6.26373 45.6562 6.23219C46.7221 6.17511 47.788 6.11803 48.8586 6.06095C49.1678 6.04443 49.1678 6.04442 49.5647 5.90322C49.6108 5.8867 49.6755 5.86569 49.7355 5.86268C52.5549 5.71097 55.3744 5.55926 58.1939 5.40905C58.3416 5.40154 58.4477 5.367 58.5215 5.31593C58.5954 5.26636 58.7015 5.23031 58.8445 5.22129C62.6561 5.01701 66.4631 4.81272 70.2747 4.61144C70.5239 4.59792 70.6992 4.56638 70.81 4.49578C70.8884 4.44471 70.9946 4.41768 71.1515 4.40866C75.3415 4.18485 79.5314 3.96105 83.7261 3.73574C86.5455 3.58553 89.3651 3.43232 92.1845 3.28511C92.4429 3.27159 92.5813 3.22502 92.7105 3.16344C92.7521 3.14241 92.7936 3.10786 92.849 3.10485C93.4535 3.0673 94.058 3.03276 94.6625 2.99821C94.8517 3.03877 95.0409 3.07783 95.2301 3.11838C95.3731 3.06131 95.5116 3.00272 95.6547 2.94564C96.5683 2.90208 97.4681 2.83449 98.3911 2.81346C98.451 2.81196 98.5156 2.8405 98.5802 2.85552C99.0094 2.95015 99.254 2.94264 99.5262 2.81647C99.6231 2.7714 99.7062 2.73085 99.8538 2.72334C100.311 2.6963 100.772 2.67827 101.224 2.64673C101.469 2.63021 101.672 2.64522 101.847 2.6993C101.972 2.73835 102.101 2.75488 102.253 2.74587C103.093 2.70081 103.929 2.65724 104.768 2.60918C104.828 2.60617 104.884 2.58063 104.93 2.5626C105.027 2.52355 105.11 2.4815 105.202 2.44095C105.327 2.46648 105.465 2.48601 105.567 2.51906C105.696 2.55811 105.816 2.5581 105.991 2.54759C109.341 2.36584 112.696 2.18859 116.046 2.00534C116.332 1.99032 116.457 2.05341 116.651 2.08646C116.715 2.09847 116.78 2.11349 116.849 2.11649C116.923 2.1195 117.001 2.11049 117.075 2.10599C119.59 1.9708 122.105 1.8371 124.62 1.70192C124.952 1.68389 124.952 1.68389 125.446 1.77702C125.506 1.78904 125.585 1.80256 125.649 1.79805C126.794 1.73947 127.938 1.67639 129.078 1.61631C129.225 1.6088 129.35 1.63282 129.484 1.66737C129.747 1.73497 129.765 1.73497 129.959 1.63583C130.051 1.58927 130.148 1.56072 130.301 1.5472C130.467 1.53218 130.601 1.5367 130.73 1.56374C130.914 1.60129 131.048 1.66437 131.33 1.64784C132.548 1.57725 133.771 1.51867 134.984 1.44657C135.261 1.43005 135.409 1.48112 135.593 1.51867C135.658 1.53219 135.718 1.55322 135.787 1.55772C135.856 1.56223 135.94 1.5517 136.013 1.5472C137.536 1.46609 139.064 1.38649 140.582 1.29937C140.868 1.28285 140.992 1.34742 141.186 1.38047C141.251 1.39249 141.325 1.41353 141.385 1.41052C142.298 1.36396 143.217 1.31438 144.13 1.26481C144.458 1.24678 144.458 1.24828 144.956 1.33991C145.016 1.35193 145.095 1.36395 145.159 1.36094C146.225 1.30537 147.296 1.24829 148.362 1.19121C148.689 1.17318 148.689 1.17319 149.635 1.25129C149.705 1.2573 149.779 1.26633 149.848 1.26332C151.066 1.19873 152.289 1.13564 153.507 1.06654C153.752 1.05302 153.955 1.06504 154.13 1.11911C154.255 1.15816 154.384 1.1747 154.536 1.16568C155.907 1.09208 157.282 1.02149 158.648 0.943379C158.911 0.928358 159.081 0.96139 159.266 1.00495C159.326 1.01997 159.386 1.041 159.455 1.04701C159.524 1.05302 159.603 1.04701 159.677 1.0425C161.047 0.968901 162.422 0.899808 163.788 0.820198C164.065 0.803675 164.213 0.854743 164.397 0.892295C164.462 0.905814 164.531 0.932852 164.587 0.93135C165.122 0.905815 165.657 0.883292 166.188 0.84574C166.474 0.824711 166.598 0.893794 166.792 0.92684C166.857 0.937354 166.931 0.959896 166.991 0.956892C168.135 0.898311 169.28 0.83673 170.419 0.773643C170.581 0.764631 170.701 0.778137 170.83 0.817191C171.001 0.869764 171.199 0.890793 171.448 0.874271C171.979 0.839723 172.514 0.815696 173.05 0.787157C173.363 0.770634 173.363 0.770639 174.323 0.848747C174.392 0.854755 174.466 0.863761 174.535 0.860757C175.449 0.812691 176.367 0.766129 177.276 0.713556C177.521 0.698536 177.724 0.712051 177.899 0.766125C178.024 0.805179 178.149 0.821711 178.306 0.812699C179.145 0.767636 179.981 0.72257 180.821 0.677508C181.125 0.660985 181.43 0.632438 181.734 0.632438C181.956 0.63394 182.117 0.706037 182.316 0.742087C182.371 0.752602 182.463 0.740599 182.537 0.737595C183.603 0.680516 184.674 0.627938 185.735 0.563348C186.012 0.546826 186.16 0.597893 186.344 0.635445C186.409 0.648964 186.478 0.676003 186.533 0.674501C186.916 0.657978 187.295 0.635445 187.678 0.615918C188.134 0.591884 188.596 0.573859 189.048 0.540814C189.417 0.513776 189.556 0.644453 189.851 0.648959C190.077 0.653465 190.308 0.627934 190.534 0.615918C190.991 0.591884 191.448 0.56485 191.905 0.543821C192.066 0.53631 192.191 0.512267 192.241 0.458192C192.251 0.447677 192.172 0.425156 192.122 0.411637C191.508 0.258425 191.508 0.258418 190.889 0.291464C190.506 0.312493 190.128 0.333525 189.745 0.35155C189.68 0.354555 189.607 0.342539 189.542 0.333526C189.357 0.307991 189.376 0.277952 189.533 0.223877C189.69 0.169803 189.81 0.103717 189.943 0.0421319C190.133 0.0811859 190.317 0.120226 190.506 0.15928C190.659 0.15177 190.811 0.14277 190.963 0.13526C191.725 0.096206 192.486 0.0556469 193.247 0.019597C193.303 0.0165929 193.372 0.0466389 193.437 0.0616596C193.621 0.10522 193.787 0.142762 194.055 0.126239C194.738 0.0826785 195.425 0.0511348 196.108 0.0135829C196.408 -0.00293999 196.408 -0.00293852 196.934 0.0901903C196.994 0.100705 197.073 0.112722 197.137 0.109718C197.825 0.0751703 198.508 0.0376227 199.196 0.00157285C199.343 -0.00593754 199.486 0.0135887 199.592 0.057149C199.634 0.0751739 199.625 0.10521 199.8 0.35155C200.345 0.551327 200.718 0.530308 201.097 0.512283C201.258 0.504773 201.401 0.497255 201.507 0.467213C201.563 0.45069 201.632 0.426654 201.632 0.407127C201.632 0.392106 201.531 0.368068 201.466 0.365064C201.009 0.335022 200.575 0.398118 200.128 0.411637C199.92 0.417645 199.74 0.365072 199.703 0.279454C199.694 0.25542 199.68 0.229886 199.666 0.205853C199.652 0.18182 199.643 0.156286 199.629 0.132253C199.449 0.124743 199.343 0.151775 199.265 0.202846C199.2 0.244904 199.108 0.292971 198.983 0.315502C198.859 0.339535 198.688 0.335037 198.536 0.342547C198.388 0.350058 198.227 0.369583 198.088 0.359068C197.95 0.347052 197.839 0.303484 197.71 0.276446C197.65 0.262928 197.576 0.243408 197.516 0.246412C196.985 0.271948 196.459 0.297473 195.933 0.330519C195.656 0.348544 195.518 0.285466 195.342 0.246412C195.204 0.216371 195.065 0.223872 195.042 0.292967C194.982 0.458196 195.195 0.527288 195.665 0.495744C196.053 0.468707 196.404 0.464214 196.708 0.566356C196.75 0.579874 196.847 0.58588 196.907 0.582876C197.285 0.564851 197.659 0.542318 198.037 0.524293C198.106 0.521289 198.18 0.527288 198.245 0.533296C199.186 0.614408 199.186 0.615918 199.505 0.597893C199.657 0.588881 199.805 0.58137 199.791 0.353054C200.082 0.108215 200.543 0.0916953 200.991 0.0556455C201.281 0.0331143 201.406 0.0992086 201.595 0.133756C201.66 0.145773 201.729 0.169802 201.789 0.166798C202.781 0.117229 203.769 0.0646491 204.756 0.00907223C204.922 5.97674e-05 205.042 0.0090737 205.171 0.0481277C205.337 0.0976963 205.522 0.129247 205.785 0.111222C206.311 0.0751717 206.846 0.0526457 207.382 0.0226041C207.654 0.00758336 207.654 0.00756796 208.203 0.100697C208.263 0.111211 208.341 0.123229 208.406 0.120225C208.941 0.0946892 209.472 0.0631551 210.003 0.0361177C210.15 0.0286073 210.284 0.0496342 210.4 0.0901903C210.515 0.130746 210.653 0.151773 210.797 0.144263C211.332 0.117226 211.862 0.0871935 212.393 0.0601561C212.458 0.0571519 212.536 0.0676657 212.596 0.0781803C213.159 0.171309 213.159 0.171294 213.418 0.156273C213.796 0.133742 214.184 0.123239 214.557 0.0931974C214.922 0.0631558 215.111 0.150269 215.36 0.198336C216.043 0.163788 216.731 0.135256 217.409 0.0931974C217.686 0.0751725 217.834 0.124737 218.018 0.163791C218.083 0.177309 218.147 0.205852 218.207 0.20435C218.438 0.198341 218.664 0.181821 218.89 0.169805C219.117 0.157788 219.347 0.145773 219.573 0.133756C219.832 0.177317 220.003 0.279457 220.372 0.244909C220.593 0.22388 220.828 0.219373 221.055 0.207357C221.281 0.19534 221.511 0.183325 221.738 0.171308C221.89 0.163798 222.047 0.159285 222.194 0.145766C222.467 0.123235 222.6 0.196846 222.794 0.229892C222.859 0.240406 222.933 0.258419 222.993 0.255415C223.45 0.234386 223.911 0.216363 224.359 0.181815C224.705 0.154777 224.94 0.199846 225.185 0.262933C225.235 0.276452 225.323 0.283961 225.388 0.280957C225.923 0.255422 226.454 0.223869 226.984 0.196832C227.127 0.189322 227.266 0.213354 227.381 0.252408C227.501 0.292964 227.635 0.312506 227.783 0.304996C228.313 0.277958 228.849 0.247908 229.379 0.22087C229.444 0.217866 229.522 0.229885 229.582 0.241902C230.099 0.33503 230.099 0.336534 230.404 0.318509C230.477 0.314003 230.556 0.310987 230.63 0.306481C231.008 0.285452 231.4 0.277952 231.77 0.241902C232.194 0.201346 232.503 0.252418 232.803 0.338037C233.182 0.320012 233.569 0.309495 233.938 0.279454C234.215 0.256922 234.363 0.313998 234.547 0.35155C234.612 0.365069 234.681 0.392107 234.737 0.389102C235.272 0.363567 235.807 0.341044 236.333 0.303492C236.619 0.282463 236.744 0.350044 236.938 0.384592C237.002 0.396608 237.072 0.417648 237.132 0.414644C237.436 0.402628 237.741 0.384594 238.045 0.368071C238.401 0.348544 238.401 0.350045 238.871 0.441671C239.093 0.485232 239.314 0.450682 239.531 0.440168C239.762 0.428151 239.979 0.419142 240.163 0.480727C240.279 0.519781 240.417 0.543815 240.56 0.537807C240.865 0.524288 241.174 0.510776 241.474 0.488245C241.714 0.47022 241.921 0.48223 242.097 0.537807C242.221 0.576861 242.351 0.596399 242.503 0.587387C243.186 0.551337 243.873 0.513771 244.556 0.479223C244.616 0.476219 244.699 0.489743 244.755 0.503262C244.884 0.530299 245.009 0.560334 245.133 0.590376C245.433 0.576857 245.742 0.570864 246.038 0.549835C246.351 0.528806 246.638 0.521293 246.882 0.603908C246.933 0.621933 247.007 0.647454 247.067 0.645952C247.297 0.639943 247.523 0.624927 247.75 0.612911C247.976 0.600894 248.206 0.588879 248.433 0.576862C248.696 0.614414 248.862 0.722562 249.231 0.688014C249.452 0.666985 249.688 0.662479 249.914 0.650462C250.14 0.638446 250.371 0.624929 250.597 0.614414C250.671 0.61141 250.754 0.603895 250.818 0.609903C250.888 0.615912 250.948 0.636945 251.007 0.651966C251.192 0.695526 251.363 0.739092 251.626 0.713556C251.847 0.692527 252.083 0.68802 252.309 0.674501C252.618 0.657978 252.618 0.657981 253.13 0.752612C253.338 0.791666 253.573 0.740597 253.772 0.773643C253.905 0.796174 254.021 0.833718 254.15 0.859253C254.205 0.869768 254.293 0.874268 254.358 0.871264C254.662 0.857745 254.971 0.844233 255.271 0.821702C255.516 0.803677 255.719 0.821699 255.89 0.875774C256.014 0.914828 256.139 0.93136 256.296 0.922347C257.057 0.880289 257.819 0.844228 258.575 0.797663C258.834 0.78114 259.041 0.806682 259.184 0.860757C259.429 0.953886 259.775 0.844236 260.029 0.91934C260.186 0.965905 260.343 1.01998 260.629 0.997451C261.155 0.958397 261.69 0.937356 262.221 0.910319C262.41 0.950875 262.599 0.99144 262.793 1.032C263.098 1.01547 263.402 0.99894 263.707 0.983919C263.933 0.971903 264.164 0.958385 264.39 0.947871C264.463 0.944867 264.542 0.938857 264.611 0.946367C264.68 0.953878 264.736 0.973409 264.8 0.98843C265.119 1.06203 265.119 1.06354 265.645 1.0335C265.871 1.01998 266.088 1.01097 266.277 1.07105C266.452 1.12663 266.66 1.13714 266.9 1.12061C267.352 1.09057 267.809 1.06804 268.271 1.04701C268.414 1.0395 268.547 1.06504 268.667 1.10409C268.847 1.16568 269.069 1.15967 269.295 1.14315C269.595 1.12212 269.89 1.10109 270.144 1.18521C270.195 1.20324 270.273 1.22876 270.329 1.22726C270.707 1.21524 271.09 1.20623 271.459 1.17769C271.828 1.14915 272.008 1.24228 272.262 1.28734C272.64 1.26781 273.023 1.24829 273.402 1.22876C273.476 1.22425 273.563 1.21074 273.628 1.21825C273.9 1.2498 274.057 1.36245 274.431 1.3279C274.648 1.30837 274.883 1.30237 275.109 1.29787C275.169 1.29636 275.248 1.32189 275.289 1.34141C275.312 1.35193 275.289 1.38047 275.262 1.39549C275.178 1.43755 275.077 1.47661 275.003 1.52017C274.994 1.52618 275.082 1.55321 275.132 1.56522C275.257 1.59226 275.4 1.58776 275.566 1.57575C275.709 1.56523 275.857 1.58626 275.958 1.63132C276 1.64935 275.986 1.67939 275.898 1.77852C275.898 1.85213 275.995 1.81907 276.027 1.77101C276.078 1.70191 275.981 1.67938 275.797 1.71693C275.668 1.74397 275.603 1.78303 275.635 1.81457C275.654 1.8311 275.741 1.85213 275.898 1.77852C276.304 1.6884 276.609 1.67188 276.914 1.65536C276.992 1.65086 277.084 1.63582 277.14 1.64484C277.338 1.68089 277.523 1.72445 277.716 1.76501C277.938 1.756 278.146 1.73346 278.362 1.79204C278.667 1.87465 278.681 1.86714 278.976 1.85062C279.129 1.84161 279.281 1.83411 279.433 1.8266C279.585 1.81909 279.705 1.84162 279.839 1.87616C280.111 1.94676 280.134 1.94675 280.314 1.85062C280.421 1.79204 280.494 1.77252 280.628 1.79956C281.071 1.89118 281.076 1.89719 281.454 1.87015C281.768 1.84762 282.063 1.84161 282.294 1.92723C282.451 1.98731 282.502 1.9738 282.626 1.91071C282.959 1.74398 283.111 1.74698 283.734 1.86714C284.024 1.92422 284.324 1.86264 284.62 1.85513C284.869 1.84912 285.044 1.88517 285.063 1.9798C285.077 2.03838 285.118 2.08044 285.284 2.09997C285.349 2.10748 285.427 2.11799 285.492 2.11499C285.875 2.09696 286.253 2.07593 286.636 2.0549C286.83 2.04439 286.936 1.9738 286.899 1.88067C286.858 1.78154 286.932 1.74547 287.208 1.71693C287.375 1.70041 287.509 1.70343 287.642 1.73047C287.79 1.76051 287.748 1.78754 287.619 1.84162C287.31 1.9738 287.347 2.0549 287.744 2.14653C287.882 2.17807 287.993 2.20662 288.025 2.25319C288.044 2.27722 288.025 2.30876 288.067 2.32679C288.293 2.42743 288.607 2.49202 288.957 2.54009C289.294 2.49953 289.525 2.56711 289.783 2.62119C289.986 2.66325 290.226 2.62721 290.443 2.61219C290.688 2.59566 290.891 2.60767 291.066 2.66325C291.191 2.7023 291.32 2.72032 291.472 2.71281C291.777 2.69629 292.086 2.68578 292.386 2.66175C292.644 2.64072 292.838 2.67076 293 2.72183C293.203 2.78642 293.429 2.74286 293.641 2.75187C293.927 2.76238 294.07 2.89606 294.444 2.86001C294.666 2.83898 294.896 2.83148 295.127 2.82547C295.187 2.82397 295.261 2.84951 295.312 2.86753C295.556 2.95015 295.842 2.94564 296.156 2.9216C296.373 2.90508 296.585 2.89007 296.797 2.94715C297.148 3.04328 297.536 3.1274 297.905 3.21602C297.956 3.28512 297.919 3.36622 298.182 3.40677C298.32 3.4278 298.45 3.45936 298.556 3.4939C298.685 3.53446 298.805 3.54498 298.971 3.53446C299.271 3.51343 299.585 3.50891 299.88 3.48188C300.152 3.45784 300.323 3.50743 300.489 3.55399C300.623 3.59154 300.748 3.60956 300.909 3.58252C301.075 3.55699 301.195 3.5735 301.329 3.61406C301.518 3.66964 301.532 3.66364 302.16 3.68016C302.224 3.68166 302.303 3.70418 302.34 3.72371C302.358 3.73422 302.317 3.76428 302.284 3.7793C302.243 3.79733 302.178 3.81834 302.118 3.82285C301.435 3.8619 300.748 3.89645 300.065 3.93551C299.995 3.94001 299.922 3.95054 299.871 3.96556C299.815 3.98208 299.746 4.0046 299.746 4.02563C299.746 4.04065 299.838 4.05868 299.903 4.06919C300.106 4.10374 300.346 4.05117 300.545 4.09022C300.678 4.11576 300.789 4.1518 300.923 4.17583C300.978 4.18635 301.066 4.18485 301.135 4.18185C301.366 4.17133 301.592 4.15632 301.823 4.1473C301.887 4.1458 301.961 4.16083 302.021 4.17285C302.464 4.26297 302.464 4.26297 302.847 4.24344C302.999 4.23593 303.161 4.2134 303.304 4.22241C303.442 4.23142 303.562 4.27198 303.687 4.29751C303.945 4.35159 304.19 4.40416 304.208 4.52132C304.218 4.56638 304.37 4.60543 304.522 4.60843C304.67 4.61144 304.827 4.59493 304.979 4.58592C305.339 4.56789 305.339 4.56789 305.805 4.65952C305.934 4.68505 306.073 4.68805 306.239 4.67303C306.303 4.66702 306.382 4.67304 306.451 4.68055C306.677 4.70308 306.677 4.73161 306.53 4.78569C306.322 4.8653 306.34 4.87281 306.922 4.94041C307.143 4.96594 307.314 5.01401 307.499 5.05607C307.799 5.12366 307.794 5.12365 307.596 5.21227C307.549 5.2318 307.508 5.25283 307.462 5.27386C307.328 5.33244 307.222 5.39553 306.945 5.40154C306.64 5.40754 306.336 5.43159 306.031 5.44811C305.736 5.46463 305.657 5.50067 305.685 5.60281C305.717 5.72598 305.777 5.7395 306.308 5.738C306.46 5.738 306.594 5.75001 306.71 5.79057C306.654 5.83863 306.553 5.87619 306.405 5.8852C306.027 5.90773 305.644 5.92726 305.265 5.94679C304.961 5.96331 304.656 5.97983 304.352 5.99635C304.162 6.00687 304.042 6.08498 304.093 6.1721C304.121 6.22167 304.144 6.27124 304.167 6.32081C304.218 6.41994 304.315 6.44549 304.624 6.44098C304.702 6.43948 304.776 6.42745 304.85 6.43046C305.15 6.44097 305.293 6.56564 305.653 6.5401C305.953 6.51907 306.267 6.51457 306.562 6.48753C306.834 6.4635 306.986 6.51759 307.176 6.55815C307.24 6.57167 307.309 6.60019 307.365 6.59869C307.748 6.58216 308.131 6.56565 308.505 6.53712C308.68 6.5251 308.786 6.53411 308.924 6.57016C309.257 6.65728 309.266 6.65277 309.76 6.62573C310.12 6.6047 310.124 6.60771 310.586 6.69933C310.715 6.72487 310.853 6.72486 311.02 6.71285C311.236 6.69783 311.462 6.67379 311.689 6.69633C311.758 6.70233 311.846 6.72037 311.869 6.73989C311.882 6.75341 311.818 6.78646 311.763 6.79697C311.356 6.87508 310.881 6.86156 310.438 6.89311C310.3 6.90212 310.161 6.87358 310.046 6.83302C309.926 6.79246 309.797 6.77595 309.64 6.78346C309.335 6.79998 309.026 6.81049 308.726 6.83452C308.468 6.85555 308.288 6.821 308.108 6.77444C308.048 6.75942 307.979 6.73087 307.919 6.73237C307.236 6.76242 306.548 6.79247 305.87 6.83452C305.597 6.85255 305.441 6.80449 305.256 6.76393C305.191 6.75041 305.127 6.72187 305.067 6.72337C304.836 6.72938 304.61 6.7459 304.379 6.75792C303.539 6.80298 302.704 6.84804 301.864 6.8901C301.809 6.8931 301.74 6.86156 301.675 6.84804C301.551 6.821 301.421 6.79546 301.292 6.76993C301.061 6.78194 300.835 6.79696 300.604 6.80597C300.438 6.81198 300.291 6.83302 300.268 6.8901C300.254 6.92765 300.406 6.96219 300.568 6.95919C300.725 6.95619 300.881 6.93816 301.011 6.95769C301.652 7.05382 301.652 7.05532 302.053 7.0358C302.404 7.01777 302.367 7.00274 302.676 7.08536C302.81 7.12141 302.93 7.14245 303.083 7.13344C303.461 7.11241 303.844 7.09137 304.227 7.07335C304.287 7.07034 304.365 7.08537 304.425 7.09739C304.878 7.18751 304.878 7.19051 305.251 7.16798C305.74 7.14094 305.759 7.13343 306.087 7.22506C306.313 7.28815 306.52 7.24459 306.737 7.24158C306.986 7.30016 307.259 7.35274 307.485 7.41883C307.752 7.49694 308.034 7.48341 308.338 7.46088C308.565 7.44436 308.786 7.43835 308.971 7.49993C309.146 7.55701 309.358 7.56303 309.598 7.54801C309.815 7.53449 310.037 7.50594 310.263 7.53899C310.323 7.548 310.415 7.57054 310.41 7.58406C310.406 7.60509 310.346 7.63513 310.286 7.64415C309.861 7.70573 309.395 7.70422 308.948 7.73276C308.888 7.73727 308.809 7.72074 308.749 7.70872C308.62 7.68169 308.495 7.65015 308.371 7.62161C308.145 7.63062 307.914 7.63362 307.692 7.65165C307.522 7.66516 307.392 7.66367 307.268 7.62762C307.152 7.59458 307.028 7.55401 306.89 7.5435C306.751 7.53299 306.59 7.55552 306.437 7.56453C306.285 7.57354 306.11 7.56903 305.99 7.59306C305.87 7.6171 305.796 7.66967 305.717 7.71173C305.63 7.7583 305.51 7.77333 305.334 7.77783C305.173 7.78234 305.044 7.77633 304.924 7.73427C304.873 7.71624 304.804 7.70272 304.734 7.6907C304.67 7.68019 304.596 7.66366 304.536 7.66666C303.849 7.70121 303.166 7.73878 302.478 7.77483C302.137 7.79285 302.141 7.79284 301.431 7.70421C301.366 7.6967 301.287 7.68619 301.223 7.6892C300.84 7.70722 300.461 7.72825 300.078 7.74928C299.691 7.77031 299.695 7.76731 299.036 7.67268C298.916 7.65465 298.74 7.67869 298.597 7.67568C298.297 7.66817 298.15 7.542 297.799 7.56603C297.499 7.58706 297.185 7.59157 296.885 7.6186C296.613 7.64264 296.456 7.59007 296.271 7.54951C296.207 7.536 296.138 7.50595 296.082 7.50896C295.395 7.542 294.712 7.57955 293.798 7.58406C293.572 7.58406 293.673 7.61561 293.821 7.62612C294.033 7.64264 294.103 7.6111 293.987 7.55102C293.904 7.50896 293.784 7.48792 293.687 7.49843C293.637 7.50444 293.572 7.53299 293.798 7.58406C294.038 7.64114 294.024 7.67268 294.066 7.6907C294.167 7.73426 294.31 7.75229 294.458 7.74628C294.689 7.73576 294.915 7.72074 295.146 7.71173C295.21 7.70873 295.289 7.71924 295.349 7.73126C295.856 7.82439 295.861 7.8304 296.401 7.79435C296.571 7.78384 296.696 7.78384 296.83 7.81238C297.014 7.85143 297.148 7.91751 297.43 7.89648C297.804 7.86795 298.187 7.85144 298.57 7.83491C298.63 7.83191 298.694 7.85894 298.763 7.87096C298.952 7.90701 299.091 7.9746 299.372 7.94606C299.589 7.92353 299.825 7.91751 300.055 7.91301C300.115 7.9115 300.208 7.93554 300.235 7.95507C300.291 7.98962 300.222 8.03018 300.065 8.05872C300 8.07074 299.912 8.06773 299.839 8.07223C299.534 8.08876 299.229 8.10677 298.925 8.12029C298.763 8.1278 298.611 8.15034 298.593 8.20592C298.579 8.24347 298.745 8.27651 298.902 8.27351C299.132 8.269 299.363 8.25699 299.585 8.23746C299.977 8.20441 300.318 8.21342 300.637 8.30805C300.863 8.37414 300.849 8.35012 301.089 8.54539C301.149 8.59496 301.329 8.59946 301.486 8.59646C301.864 8.58895 302.04 8.61148 302.007 8.65805C301.966 8.71513 301.832 8.73314 301.661 8.74065C301.357 8.75267 301.052 8.77221 300.748 8.78873C300.674 8.79323 300.591 8.80224 300.521 8.79924C300.452 8.79623 300.388 8.77821 300.328 8.76469C300.198 8.73615 300.088 8.69258 299.949 8.68207C299.811 8.67155 299.649 8.69409 299.497 8.7031C299.345 8.71061 299.183 8.73314 299.045 8.72263C298.906 8.71211 298.791 8.66706 298.666 8.64002C298.606 8.62651 298.533 8.60546 298.473 8.60696C298.168 8.61898 297.864 8.63852 297.559 8.65354C297.185 8.67307 297.185 8.67307 296.733 8.57994C296.604 8.5529 296.47 8.55441 296.299 8.56642C295.93 8.59046 295.925 8.58594 295.252 8.49882C295.187 8.48981 295.109 8.4793 295.044 8.4838C294.356 8.51835 293.673 8.5559 292.991 8.59195C292.404 8.62349 292.404 8.6235 292.081 8.77371C291.841 8.88486 291.837 8.88486 292.072 8.93593C292.261 8.97799 292.432 9.03957 292.64 9.0621C292.834 9.08313 293.074 9.01554 293.286 9.08463C293.392 9.11918 293.53 9.15674 293.664 9.16274C293.876 9.17025 294.103 9.12669 294.306 9.19278C294.407 9.22582 294.56 9.26038 294.689 9.26189C294.915 9.26489 295.146 9.24084 295.372 9.23033C295.441 9.22733 295.519 9.22733 295.584 9.23484C295.653 9.24385 295.713 9.26188 295.773 9.2769C295.958 9.32797 296.156 9.352 296.396 9.32647C296.788 9.28441 297.139 9.30544 297.444 9.40157C297.485 9.41509 297.587 9.4166 297.651 9.41059C297.817 9.39557 297.96 9.39406 298.085 9.4226C298.136 9.43462 298.21 9.45564 298.2 9.46916C298.186 9.49169 298.131 9.52173 298.071 9.52924C297.637 9.58031 297.171 9.58633 296.724 9.61337C296.664 9.61637 296.59 9.59683 296.53 9.58331C296.401 9.55628 296.29 9.51123 296.152 9.50071C296.013 9.4902 295.852 9.50972 295.699 9.51723C295.547 9.52474 295.385 9.54728 295.247 9.53826C295.109 9.52775 294.979 9.49019 294.869 9.45715C294.739 9.41959 294.615 9.4151 294.444 9.43012C294.223 9.44965 293.992 9.45265 293.766 9.46316C293.641 9.43462 293.517 9.40306 293.387 9.37603C293.327 9.36251 293.254 9.34599 293.189 9.3475C292.884 9.35951 292.58 9.37753 292.275 9.39405C291.971 9.41057 291.971 9.41059 291.454 9.31746C291.394 9.30695 291.315 9.29493 291.251 9.29794C290.868 9.31596 290.489 9.33848 290.106 9.3565C289.959 9.36401 289.825 9.34298 289.705 9.30243C289.59 9.26187 289.451 9.23934 289.308 9.24685C288.699 9.27839 288.09 9.30844 287.481 9.34599C287.236 9.36101 287.029 9.3475 286.862 9.29342C286.669 9.23184 286.452 9.24686 286.226 9.25888C285.713 9.28892 285.709 9.28741 285.381 9.2108C285.317 9.19578 285.252 9.16724 285.192 9.16874C284.661 9.19127 284.126 9.21231 283.6 9.24835C283.323 9.26788 283.175 9.21531 282.991 9.17626C282.926 9.16274 282.857 9.1342 282.802 9.1372C282.419 9.15373 282.036 9.16875 281.662 9.19879C281.288 9.22883 281.145 9.08915 280.863 9.09065C280.48 9.09215 280.102 9.1267 279.724 9.14773C279.419 9.16425 279.115 9.18077 278.81 9.19729C278.505 9.21381 278.201 9.22732 277.896 9.24685C277.735 9.25737 277.615 9.24384 277.481 9.20629C277.31 9.15672 277.107 9.11769 276.923 9.07262C276.641 9.00803 276.641 9.00803 276.3 9.02605C276.226 9.03056 276.147 9.03355 276.074 9.03806C275.515 9.07111 275.515 9.06811 274.805 8.97348C274.772 8.96898 274.689 8.9855 274.657 8.99752C274.56 9.03657 274.472 9.07862 274.385 9.11918C274.26 9.09515 274.108 9.08163 274.025 9.04708C273.789 8.94945 273.42 9.08313 273.18 8.98699C273.093 8.95094 272.94 8.9194 272.802 8.91039C272.659 8.90137 272.497 8.92241 272.35 8.93142C271.967 8.95395 271.967 8.95245 271.639 9.08614C271.473 9.15223 271.233 9.14021 271.016 9.15523C270.79 9.17175 270.573 9.18076 270.384 9.11918C270.213 9.0636 270.006 9.05009 269.761 9.06811C269.461 9.09064 269.152 9.10416 268.847 9.11767C268.783 9.12068 268.704 9.11317 268.64 9.10416C267.934 9.01554 267.934 9.01404 267.592 9.03357C267.44 9.04258 267.283 9.04557 267.135 9.05909C266.886 9.08313 266.697 9.05158 266.517 9.00352C266.457 8.98849 266.388 8.95997 266.328 8.96147C266.023 8.96898 265.723 8.9825 265.423 8.99602C265.193 9.00653 264.962 9.01254 264.74 9.03357C264.371 9.06812 264.191 8.97047 263.937 8.9254C263.559 8.94493 263.176 8.95845 262.798 8.98549C262.622 8.99751 262.507 8.99301 262.373 8.95696C262.202 8.9119 262.046 8.86083 261.769 8.88336C261.399 8.9134 261.012 8.92392 260.633 8.94194C260.38 8.89538 260.195 8.80074 259.831 8.83528C259.609 8.85631 259.374 8.86082 259.148 8.87284C258.843 8.88936 258.538 8.90439 258.234 8.92242C257.906 8.94044 257.911 8.93593 257.408 8.84731C257.117 8.79474 256.817 8.85332 256.522 8.86233C256.291 8.86984 256.176 8.93893 256.231 9.02755C256.287 9.11618 256.162 9.18527 255.95 9.19729C255.419 9.22583 254.884 9.25586 254.353 9.2814C254.288 9.2844 254.21 9.27389 254.15 9.26337C253.582 9.16874 253.582 9.17026 253.329 9.18378C252.95 9.20631 252.563 9.21831 252.189 9.24685C251.93 9.26638 251.741 9.23485 251.575 9.18378C251.446 9.14472 251.326 9.13571 251.16 9.14472C249.332 9.24536 247.505 9.33849 245.682 9.44213C245.41 9.45715 245.253 9.4136 245.069 9.37304C245.004 9.35952 244.944 9.33098 244.879 9.33098C244.727 9.33098 244.575 9.3445 244.423 9.35351C243.74 9.38956 243.057 9.43312 242.369 9.46015C242.078 9.47217 242 9.54127 241.875 9.59835C241.778 9.64191 241.668 9.65993 241.497 9.66594C241.331 9.67194 241.211 9.66443 241.082 9.62538C240.916 9.57431 240.726 9.54276 240.468 9.56379C240.168 9.58782 239.863 9.59835 239.554 9.61487C239.397 9.62238 239.277 9.64941 239.227 9.70349C239.217 9.7125 239.314 9.73504 239.37 9.74856C239.554 9.79362 239.73 9.84619 239.937 9.87773C240.15 9.90928 240.38 9.87321 240.602 9.8642C240.68 9.8612 240.754 9.85219 240.828 9.8537C240.897 9.8552 240.98 9.86271 241.031 9.87623C241.271 9.94382 241.525 9.99039 241.857 9.94983C242.143 9.96936 242.291 10.094 242.655 10.061C242.877 10.0415 243.107 10.0324 243.338 10.0249C243.398 10.0234 243.463 10.0505 243.527 10.064C243.712 10.1015 243.86 10.1616 244.137 10.1361C244.432 10.109 244.746 10.1045 245.046 10.0835C245.212 10.0715 245.332 10.082 245.461 10.1211C245.627 10.1706 245.816 10.2082 246.075 10.1841C246.296 10.1631 246.531 10.1586 246.758 10.1451C247.053 10.1286 247.053 10.1301 247.579 10.2232C247.639 10.2337 247.717 10.2457 247.782 10.2427C248.165 10.2247 248.543 10.2022 248.926 10.1841C249.074 10.1766 249.217 10.1962 249.319 10.2397C249.36 10.2577 249.346 10.2878 249.36 10.3133C248.599 10.3539 247.837 10.3884 247.081 10.438C246.794 10.4575 246.665 10.3959 246.476 10.3614C246.411 10.3494 246.342 10.3238 246.282 10.3269C245.747 10.3524 245.216 10.3794 244.686 10.4125C244.519 10.423 244.395 10.417 244.27 10.3734C243.952 10.2577 243.564 10.3208 243.204 10.3374C242.927 10.3494 242.84 10.3959 242.872 10.4951C242.914 10.6122 243.08 10.6483 243.504 10.6273C243.657 10.6198 243.809 10.6092 243.961 10.6032C244.109 10.5972 244.243 10.6167 244.363 10.6573C244.478 10.6979 244.616 10.7189 244.759 10.7129C245.064 10.6994 245.373 10.6858 245.668 10.6633C245.913 10.6453 246.116 10.6603 246.287 10.7159C246.476 10.7775 246.698 10.764 246.919 10.7504C247.436 10.7204 247.44 10.7219 247.763 10.797C247.828 10.812 247.893 10.8406 247.953 10.8391C248.483 10.8165 249.019 10.797 249.54 10.761C249.812 10.7429 249.969 10.791 250.149 10.83C250.214 10.8436 250.278 10.8736 250.338 10.8706C250.721 10.8541 251.104 10.8376 251.478 10.809C251.654 10.7955 251.76 10.8045 251.903 10.8406C252.244 10.9292 252.253 10.9262 252.738 10.8976C252.886 10.8886 253.047 10.8721 253.186 10.8841C253.324 10.8961 253.435 10.9397 253.564 10.9667C253.624 10.9788 253.698 10.9953 253.762 10.9923C254.067 10.9802 254.371 10.9622 254.676 10.9457C254.962 10.9292 254.962 10.9307 255.497 11.0238C255.714 11.0629 255.941 11.0298 256.157 11.0178C256.393 11.0043 256.605 11.0043 256.785 11.0629C256.965 11.1215 257.182 11.1184 257.413 11.1064C257.629 11.0944 257.851 11.0614 258.072 11.1019C258.58 11.1951 258.58 11.1965 258.894 11.1785C259.351 11.153 259.803 11.129 260.264 11.1064C260.324 11.1034 260.403 11.1215 260.463 11.1335C260.592 11.1605 260.703 11.2056 260.841 11.2161C260.98 11.2281 261.141 11.2101 261.289 11.2011C261.764 11.1725 261.796 11.162 262.115 11.2611C262.382 11.3423 262.715 11.2251 262.964 11.3182C263.107 11.3708 263.301 11.4128 263.568 11.3873C263.79 11.3663 264.02 11.3603 264.251 11.3483C264.616 11.3287 264.616 11.3302 265.077 11.4204C265.137 11.4324 265.216 11.4474 265.276 11.4444C265.58 11.4324 265.889 11.4219 266.185 11.3948C266.531 11.3633 266.752 11.4204 267.011 11.4759C267.214 11.5195 267.454 11.4835 267.671 11.4684C267.906 11.4534 268.118 11.4579 268.294 11.5165C268.478 11.5766 268.695 11.5691 268.926 11.557C269.143 11.5465 269.364 11.512 269.586 11.554C270.061 11.6472 270.061 11.6472 270.407 11.6291C270.712 11.6126 271.016 11.5946 271.321 11.5826C271.381 11.5796 271.454 11.5991 271.514 11.6126C271.644 11.6397 271.754 11.6847 271.893 11.6952C272.031 11.7058 272.193 11.6862 272.345 11.6787C272.497 11.6712 272.659 11.6487 272.797 11.6577C272.936 11.6667 273.065 11.7043 273.176 11.7373C273.305 11.7764 273.425 11.7809 273.6 11.7658C273.822 11.7463 274.052 11.7418 274.279 11.7313C274.403 11.7598 274.532 11.7884 274.652 11.8199C274.777 11.853 274.911 11.85 275.081 11.8394C275.649 11.8034 275.654 11.8079 276.129 11.901C276.346 11.9431 276.572 11.9085 276.789 11.898C277.02 11.886 277.236 11.88 277.416 11.9401C277.592 11.9972 277.809 12.0047 278.039 11.9866C278.187 11.9746 278.344 11.9671 278.496 11.9626C278.566 11.9611 278.649 11.9671 278.699 11.9791C278.944 12.0422 279.184 12.0993 279.521 12.0588C279.816 12.0708 279.964 12.1939 280.319 12.1699C280.619 12.1489 280.933 12.1444 281.228 12.1173C281.5 12.0933 281.694 12.1354 281.833 12.1879C282.082 12.2811 282.433 12.1549 282.682 12.2465C282.825 12.2991 283.009 12.3411 283.286 12.3186C283.591 12.2946 283.688 12.3261 283.775 12.4207C283.826 12.4748 283.817 12.5184 283.725 12.5604C283.632 12.604 283.531 12.5965 283.383 12.5469C283.212 12.4914 283.009 12.4808 282.765 12.4928C282.525 12.5049 282.377 12.4268 282.179 12.3967C281.98 12.3652 281.745 12.4178 281.537 12.3772C281.048 12.2826 281.048 12.2826 280.716 12.3006C280.49 12.3126 280.254 12.3186 280.033 12.3396C279.77 12.3652 279.599 12.3186 279.419 12.2765C279.355 12.2615 279.29 12.233 279.235 12.2345C278.704 12.257 278.169 12.2781 277.643 12.3156C277.366 12.3351 277.218 12.2811 277.034 12.2435C276.969 12.23 276.9 12.203 276.844 12.206C276.387 12.227 275.935 12.254 275.478 12.2796C275.391 12.3201 275.294 12.3592 275.211 12.4027C275.123 12.4478 275.003 12.4673 274.828 12.4658C274.537 12.4658 274.251 12.5289 273.96 12.4493C273.66 12.3682 273.637 12.3727 273.347 12.3922C272.977 12.4177 272.585 12.4117 272.239 12.4703C272.179 12.4808 272.114 12.5094 272.114 12.5304C272.11 12.5439 272.207 12.5634 272.267 12.5755C272.47 12.6115 272.705 12.5589 272.908 12.5965C273.042 12.6205 273.153 12.6566 273.286 12.6821C273.342 12.6926 273.425 12.6911 273.499 12.6896C273.577 12.6881 273.651 12.6776 273.725 12.6791C273.794 12.6806 273.868 12.6896 273.923 12.7031C274.177 12.7602 274.445 12.8128 274.671 12.8804C274.892 12.9465 275.1 12.9014 275.321 12.8984C276.207 13.0036 276.208 13.0051 276.803 12.972C276.95 12.9645 277.103 12.9555 277.255 12.957C277.32 12.957 277.38 12.984 277.444 12.999C277.629 13.0441 277.804 13.0847 278.063 13.0606C278.284 13.0396 278.519 13.0351 278.746 13.0216C279.05 13.0051 279.05 13.0051 279.567 13.0997C279.696 13.1237 279.835 13.1207 280.001 13.1087C280.144 13.0982 280.291 13.1207 280.393 13.1643C280.434 13.1823 280.421 13.2123 280.434 13.2379C279.978 13.2619 279.516 13.2784 279.073 13.3145C278.787 13.337 278.658 13.2724 278.469 13.2379C278.404 13.2259 278.335 13.2003 278.275 13.2033C277.823 13.2259 277.37 13.2514 276.918 13.2814C276.863 13.2844 276.794 13.319 276.789 13.34C276.78 13.3791 276.895 13.4166 277.061 13.4151C277.283 13.4136 277.5 13.3881 277.698 13.4497C277.864 13.5037 278.072 13.5278 278.316 13.5038C278.464 13.4902 278.621 13.4902 278.769 13.4782C279.161 13.4422 279.516 13.4497 279.811 13.5518C280.037 13.5788 280.259 13.5533 280.476 13.5398C280.637 13.5293 280.794 13.5188 280.91 13.5473C281.154 13.6074 281.394 13.6675 281.731 13.6269C282.096 13.669 282.373 13.7576 282.677 13.8297C282.82 13.8642 282.931 13.8838 283.097 13.8612C283.166 13.8522 283.249 13.8522 283.323 13.8477C283.475 13.8402 283.637 13.8177 283.775 13.8267C283.914 13.8372 284.029 13.8808 284.154 13.9078C284.214 13.9213 284.283 13.9438 284.343 13.9423C284.574 13.9348 284.8 13.9198 285.026 13.9078C285.252 13.8973 285.478 13.8868 285.704 13.8763C285.893 13.9153 286.087 13.9544 286.276 13.9934C286.581 13.9769 286.886 13.9604 287.185 13.9454C287.522 13.9273 287.522 13.9288 288.007 14.022C288.224 14.064 288.454 14.037 288.662 14.0175C289.008 13.9859 289.239 14.043 289.484 14.1031C289.534 14.1151 289.627 14.1226 289.687 14.1166C289.926 14.0956 290.134 14.1121 290.309 14.1677C290.434 14.2067 290.559 14.2247 290.711 14.2172C291.242 14.1887 291.772 14.1586 292.303 14.1331C292.368 14.1301 292.441 14.1436 292.501 14.1556C292.972 14.2473 292.977 14.2518 293.323 14.2277C293.632 14.2067 293.918 14.1977 294.163 14.2803C294.213 14.2983 294.292 14.3239 294.347 14.3224C294.726 14.3074 295.109 14.2908 295.482 14.2653C295.653 14.2533 295.773 14.2578 295.907 14.2923C296.078 14.3359 296.23 14.3885 296.511 14.369C297.291 14.3134 297.296 14.3224 298.219 14.426C298.283 14.4335 298.371 14.4215 298.445 14.4155C298.602 14.4005 298.717 14.4215 298.856 14.4561C299.165 14.5342 299.174 14.5297 299.469 14.5131C299.695 14.4996 299.931 14.4966 300.152 14.4741C300.494 14.441 300.72 14.4996 300.974 14.5552C301.177 14.5988 301.412 14.5627 301.629 14.5492C301.864 14.5342 302.077 14.5387 302.252 14.5957C302.372 14.6348 302.501 14.6558 302.653 14.6483C303.184 14.6213 303.715 14.5912 304.245 14.5642C304.31 14.5612 304.388 14.5732 304.448 14.5837C304.974 14.6769 304.974 14.6814 305.496 14.6468C305.662 14.6363 305.8 14.6333 305.925 14.6649C306.045 14.6949 306.174 14.7234 306.299 14.752C306.525 14.7415 306.756 14.7385 306.977 14.7204C307.148 14.7069 307.268 14.7129 307.402 14.7445C307.577 14.785 307.725 14.8556 308.002 14.8211C308.145 14.8045 308.311 14.8091 308.454 14.794C308.625 14.7745 308.74 14.7865 308.874 14.8256C309.04 14.8721 309.211 14.9202 309.478 14.8962C309.774 14.8691 310.087 14.8646 310.387 14.8436C310.553 14.8316 310.669 14.8436 310.803 14.8826C310.969 14.9322 311.158 14.9638 311.416 14.9442C311.942 14.9067 311.947 14.9142 312.459 15.0088C312.588 15.0329 312.727 15.0299 312.893 15.0178C313.036 15.0073 313.184 15.0299 313.285 15.0734C313.382 15.1215 313.373 15.1515 313.382 15.1771ZM272.262 1.62982C272.11 1.63733 271.957 1.64634 271.736 1.51566C271.722 1.49313 271.731 1.4661 271.699 1.44657C271.625 1.40601 271.51 1.37748 271.371 1.37297C271.122 1.36696 270.822 1.41802 270.827 1.45708C270.832 1.49012 270.91 1.51866 271.062 1.54569C271.127 1.55621 271.178 1.57424 271.238 1.58625C271.413 1.6208 271.551 1.68841 271.805 1.65386C271.759 1.56073 271.782 1.60729 271.805 1.65386C271.782 1.71094 271.851 1.7515 272.017 1.76802C272.064 1.77252 272.133 1.76951 272.17 1.7605C272.313 1.72745 272.336 1.6824 272.23 1.56374C272.211 1.58326 272.225 1.6178 272.267 1.62681C272.308 1.63583 272.41 1.62832 272.46 1.61781C272.59 1.58927 272.654 1.55172 272.622 1.52017C272.604 1.50365 272.516 1.48262 272.46 1.48262C272.364 1.48262 272.276 1.51566 272.262 1.62982ZM309.575 19.0494C309.238 19.078 308.851 19.0674 308.514 19.126C308.454 19.1365 308.394 19.1636 308.389 19.1846C308.385 19.1981 308.477 19.2177 308.532 19.2282C308.657 19.2522 308.795 19.2447 308.957 19.2372C309.201 19.2267 309.344 19.2958 309.534 19.3303C309.594 19.3408 309.672 19.3483 309.737 19.3453C310.11 19.3273 310.48 19.3078 310.853 19.2868C310.918 19.2822 310.987 19.2717 311.043 19.2582C311.227 19.2146 311.209 19.1861 311.029 19.1531C310.83 19.117 310.673 19.0569 310.47 19.0284C310.18 18.9878 309.884 19.0419 309.575 19.0494ZM283.369 20.1459C283.143 20.158 282.922 20.17 282.695 20.182C282.622 20.1865 282.543 20.188 282.474 20.194C282.331 20.2045 282.225 20.2361 282.156 20.2856C282.262 20.3247 282.391 20.3472 282.534 20.3427C282.76 20.3337 282.982 20.3142 283.208 20.3097C283.452 20.3036 283.595 20.3712 283.785 20.4058C283.845 20.4163 283.918 20.4178 283.988 20.4193C284.329 20.4253 284.537 20.3472 284.472 20.2376C284.426 20.1519 284.251 20.1009 284.038 20.1114C283.817 20.1219 283.591 20.1339 283.369 20.1459ZM311.153 16.8293C311.209 16.8038 311.269 16.7858 311.296 16.7633C311.379 16.6866 311.347 16.6296 311.195 16.5695C311.01 16.4959 310.784 16.5454 310.577 16.553C310.526 16.5545 310.47 16.586 310.443 16.6055C310.424 16.619 310.424 16.6476 310.452 16.6551C310.678 16.7152 310.918 16.7708 311.153 16.8293ZM271.122 12.3922C270.901 12.4042 270.675 12.4132 270.453 12.4298C270.398 12.4343 270.347 12.4628 270.315 12.4823C270.255 12.5184 270.319 12.5679 270.509 12.5725C270.725 12.5785 270.951 12.5529 271.178 12.5409C271.464 12.5259 271.634 12.4703 271.528 12.4222C271.427 12.3757 271.288 12.3667 271.122 12.3922ZM28.2178 9.18227C28.3655 9.17476 28.5178 9.16875 28.6654 9.15823C28.8039 9.14772 28.9101 9.11467 28.9793 9.06511C28.8639 9.02605 28.7347 9.00502 28.5916 9.00953C28.3655 9.01854 28.144 9.03056 27.9225 9.04558C27.7841 9.05459 27.6503 9.08764 27.618 9.13871C27.5857 9.17776 27.8948 9.2003 28.2178 9.18227ZM251.607 8.95095C251.667 8.96447 251.727 8.99151 251.787 8.99151C251.935 8.99151 252.087 8.98249 252.226 8.96747C252.286 8.96146 252.332 8.93442 252.36 8.91339C252.378 8.89988 252.373 8.87585 252.346 8.86383C252.212 8.79173 251.677 8.81727 251.589 8.89988C251.58 8.9149 251.603 8.93442 251.607 8.95095ZM237.049 0.725566C237.062 0.7496 237.067 0.77363 237.085 0.797663C237.122 0.842726 237.224 0.875778 237.372 0.898309C237.487 0.860757 237.547 0.818705 237.542 0.773643C237.538 0.74961 237.524 0.725561 237.505 0.701528C237.468 0.656466 237.367 0.623432 237.219 0.6009C237.104 0.63695 237.049 0.679002 237.049 0.725566ZM321.817 20.4073C321.776 20.4268 321.734 20.4464 321.688 20.4644C321.813 20.5079 321.928 20.5215 322.016 20.4974C322.071 20.4824 322.104 20.4599 322.145 20.4403C322.021 20.3968 321.91 20.3848 321.817 20.4073ZM318.947 20.6116C319.007 20.6251 319.063 20.6431 319.127 20.6521C319.233 20.6672 319.33 20.6416 319.404 20.5875C319.344 20.574 319.289 20.556 319.224 20.547C319.118 20.532 319.021 20.5575 318.947 20.6116ZM320.765 20.3367C320.733 20.3728 320.798 20.4028 320.968 20.4283C321.01 20.4088 321.065 20.3908 321.093 20.3697C321.139 20.3352 321.061 20.3037 320.895 20.2796C320.848 20.2976 320.807 20.3172 320.765 20.3367ZM311.024 18.7175C310.992 18.7535 311.056 18.7835 311.227 18.8091C311.269 18.7896 311.324 18.7715 311.352 18.7505C311.398 18.716 311.319 18.6844 311.153 18.6604C311.107 18.6784 311.066 18.6979 311.024 18.7175ZM297.753 8.08875C297.711 8.10828 297.67 8.12781 297.624 8.14583C297.748 8.18939 297.863 8.20291 297.951 8.17888C298.007 8.16386 298.039 8.14132 298.08 8.1218C297.956 8.07824 297.845 8.06622 297.753 8.08875ZM285.04 2.44995C285.15 2.46046 285.243 2.43944 285.321 2.38387C285.261 2.37035 285.206 2.35232 285.141 2.34331C285.035 2.32829 284.938 2.35383 284.864 2.4079C284.924 2.42293 284.984 2.43643 285.04 2.44995ZM278.289 2.09696C278.247 2.11649 278.206 2.13602 278.159 2.15404C278.284 2.1976 278.399 2.21112 278.487 2.18709C278.542 2.17206 278.575 2.14953 278.616 2.13001C278.492 2.08645 278.381 2.07594 278.289 2.09696ZM232.508 0.724063C232.466 0.74359 232.425 0.763118 232.379 0.781142C232.503 0.824703 232.619 0.838217 232.706 0.814184C232.762 0.799163 232.794 0.776631 232.836 0.757104C232.711 0.713544 232.6 0.703034 232.508 0.724063ZM4.55449 12.945C4.4945 12.9314 4.43456 12.9179 4.37919 12.9029C4.24537 12.9435 4.20385 12.981 4.27768 13.0096C4.32383 13.0276 4.39299 13.0381 4.45298 13.0516C4.59141 13.0111 4.6237 12.975 4.55449 12.945Z" fill="#0F62FE"/>
<path d="M31.3185 7.641C30.7879 7.66954 30.2618 7.70558 29.7312 7.72361C29.4497 7.73262 29.3482 7.79721 29.2329 7.85729C29.1406 7.90536 29.0344 7.92038 28.8637 7.92939C27.4239 8.00299 25.9888 8.0811 24.5537 8.15771C24.3737 8.13818 24.286 8.10664 24.3276 8.06909C24.3506 8.04656 24.406 8.01502 24.4614 8.01201C25.4443 7.95643 26.4225 7.89935 27.41 7.85579C27.6915 7.84377 27.77 7.77768 27.9131 7.72361C27.9592 7.70558 27.9961 7.67854 28.0561 7.66803C28.1161 7.65601 28.2038 7.65752 28.2822 7.65452C29.8696 7.5689 31.4571 7.48479 33.0445 7.39917C33.2244 7.4187 33.3121 7.45024 33.2706 7.48779C33.2475 7.51032 33.1921 7.54186 33.1367 7.54487C32.5276 7.57641 31.923 7.60796 31.3185 7.641Z" fill="#0F62FE"/>
<path d="M321.878 15.6401C321.638 15.6581 321.334 15.6836 321.084 15.5965C320.964 15.5544 320.835 15.5409 320.678 15.5499C320.452 15.565 320.221 15.577 319.991 15.586C319.931 15.5875 319.852 15.571 319.792 15.5574C319.663 15.5304 319.552 15.4854 319.414 15.4733C319.276 15.4613 319.109 15.4944 318.966 15.4868C318.777 15.4763 318.699 15.4358 318.749 15.3982C318.777 15.3772 318.833 15.3472 318.893 15.3427C319.746 15.2871 319.751 15.2871 319.991 15.3412C320.175 15.3832 320.346 15.4298 320.609 15.4042C320.831 15.3832 321.066 15.3787 321.292 15.3652C321.606 15.3471 321.606 15.3487 322.113 15.4433C322.243 15.4673 322.381 15.4658 322.547 15.4523C322.69 15.4418 322.829 15.4658 322.944 15.5064C322.87 15.5574 322.764 15.5905 322.621 15.5995C322.39 15.6145 322.164 15.625 321.878 15.6401Z" fill="#0F62FE"/>
<path d="M313.384 15.1771C313.965 15.1455 314.551 15.1185 315.133 15.0825C315.373 15.0675 315.562 15.084 315.728 15.135C315.908 15.1906 316.111 15.1861 316.333 15.1756C316.471 15.1696 316.605 15.1936 316.697 15.2357C316.734 15.2522 316.725 15.2822 316.739 15.3063C316.231 15.3333 315.719 15.3618 315.207 15.3859C315.147 15.3889 315.073 15.3739 315.017 15.3619C314.893 15.3363 314.787 15.2913 314.653 15.2822C314.367 15.2612 314.081 15.3018 313.79 15.3093C313.651 15.3123 313.518 15.2898 313.425 15.2492C313.388 15.2297 313.398 15.2011 313.384 15.1771Z" fill="#0F62FE"/>
<path d="M103.26 2.26242C103.864 2.22937 104.469 2.19784 105.073 2.16479C105.253 2.18582 105.336 2.21586 105.299 2.25341C105.276 2.27594 105.221 2.30749 105.166 2.31049C103.957 2.37809 102.748 2.44267 101.543 2.50725C101.363 2.48623 101.28 2.45619 101.317 2.41864C101.34 2.39611 101.396 2.36456 101.451 2.36156C102.051 2.32701 102.655 2.29546 103.26 2.26242Z" fill="#0F62FE"/>
<path d="M10.1109 10.6087C9.83862 10.6117 9.55258 10.6673 9.24802 10.6253C9.18803 10.6178 9.10494 10.5937 9.10956 10.5802C9.11879 10.5577 9.17417 10.5291 9.23416 10.5201C9.49719 10.4826 9.82485 10.4781 9.95867 10.3729C10.0233 10.3188 10.1433 10.3008 10.3048 10.2903C10.4755 10.2783 10.5954 10.2828 10.7293 10.3143C10.9046 10.3549 11.0523 10.43 11.3292 10.3909C11.343 10.415 11.3752 10.442 11.3614 10.4645C11.3476 10.4871 11.2877 10.5081 11.2323 10.5246C11.1815 10.5396 11.1122 10.5532 11.0476 10.5577C10.7431 10.5757 10.4385 10.5907 10.1109 10.6087Z" fill="#0F62FE"/>
<path d="M250.104 10.3074C250.33 10.2954 250.565 10.2894 250.787 10.2684C250.962 10.2518 251.073 10.2623 251.211 10.2984C251.447 10.3615 251.46 10.3555 252.037 10.3645C252.102 10.366 252.18 10.3885 252.217 10.408C252.24 10.4186 252.208 10.4471 252.18 10.4621C252.139 10.4817 252.079 10.5072 252.023 10.5072C251.659 10.5117 251.29 10.6003 250.934 10.4982C250.754 10.4471 250.556 10.4231 250.311 10.4456C250.164 10.4591 250.007 10.4651 249.855 10.4711C249.707 10.4771 249.555 10.4606 249.462 10.4156C249.329 10.3495 249.407 10.3239 249.647 10.3284C249.799 10.3315 249.952 10.3149 250.104 10.3074Z" fill="#0F62FE"/>
<path d="M333.735 20.6616C334.026 20.6466 334.317 20.6286 334.612 20.6166C334.672 20.6136 334.746 20.6301 334.801 20.6406C335.023 20.6857 334.99 20.7623 335 20.8299C335.004 20.9005 334.492 20.9575 334.275 20.9095C334.035 20.8554 333.818 20.7938 333.486 20.8269C333.357 20.8389 333.205 20.8118 333.122 20.7683C332.997 20.7052 333.066 20.6797 333.302 20.6842C333.44 20.6872 333.588 20.6706 333.735 20.6616Z" fill="#0F62FE"/>
<path d="M187.235 0.216433C187.535 0.19991 187.835 0.174387 188.135 0.172885C188.31 0.171383 188.398 0.220942 188.357 0.256992C188.333 0.279523 188.278 0.311067 188.223 0.314071C187.623 0.350121 187.023 0.380168 186.423 0.413214C186.248 0.392185 186.16 0.360646 186.202 0.324596C186.225 0.302065 186.28 0.272023 186.335 0.267517C186.635 0.246487 186.935 0.232956 187.235 0.216433Z" fill="#0F62FE"/>
<path d="M327.982 15.7728C328.273 15.7578 328.568 15.7352 328.859 15.7277C329.011 15.7247 329.131 15.7593 329.149 15.7983C329.159 15.8163 329.085 15.8479 329.025 15.8554C328.609 15.9065 328.162 15.9125 327.728 15.938C327.59 15.9455 327.442 15.9215 327.359 15.8794C327.234 15.8148 327.304 15.7908 327.539 15.7953C327.687 15.7968 327.834 15.7803 327.982 15.7728Z" fill="#0F62FE"/>
<path d="M257.726 10.5104C257.874 10.5029 258.026 10.4834 258.169 10.4894C258.321 10.4969 258.418 10.5405 258.464 10.584C258.515 10.6336 258.511 10.6802 258.464 10.7222C258.391 10.7943 258.317 10.7913 258.146 10.7433C257.883 10.6682 257.864 10.6772 257.343 10.6802C257.283 10.6802 257.209 10.6576 257.163 10.6381C257.094 10.6081 257.131 10.5615 257.292 10.5345C257.412 10.515 257.578 10.518 257.726 10.5104Z" fill="#0F62FE"/>
<path d="M317.169 15.2796C317.386 15.2676 317.603 15.2481 317.82 15.2481C317.972 15.2466 318.092 15.2811 318.106 15.3187C318.111 15.3367 318.041 15.3668 317.986 15.3758C317.723 15.4163 317.428 15.4193 317.142 15.4328C317.008 15.4389 316.86 15.4148 316.777 15.3728C316.652 15.3097 316.726 15.2811 316.952 15.2901C317.022 15.2931 317.095 15.2841 317.169 15.2796Z" fill="#0F62FE"/>
<path d="M283.035 13.4364C282.712 13.4544 282.408 13.4319 282.431 13.3929C282.463 13.3418 282.597 13.3087 282.735 13.2997C282.957 13.2847 283.178 13.2727 283.405 13.2637C283.548 13.2577 283.677 13.2802 283.792 13.3192C283.723 13.3673 283.617 13.4018 283.478 13.4124C283.335 13.4229 283.183 13.4289 283.035 13.4364Z" fill="#0F62FE"/>
<path d="M280.92 13.2435C281.137 13.2315 281.354 13.212 281.571 13.212C281.723 13.2105 281.843 13.245 281.857 13.2826C281.862 13.3006 281.792 13.3306 281.737 13.3396C281.474 13.3802 281.179 13.3832 280.893 13.3967C280.759 13.4027 280.611 13.3787 280.528 13.3366C280.403 13.2735 280.477 13.245 280.703 13.254C280.773 13.257 280.846 13.248 280.92 13.2435Z" fill="#0F62FE"/>
<path d="M255.109 10.498C255.326 10.4859 255.542 10.4664 255.759 10.4649C255.912 10.4634 256.032 10.498 256.045 10.5355C256.05 10.5535 255.981 10.5821 255.926 10.5926C255.662 10.6331 255.367 10.6361 255.081 10.6497C254.947 10.6557 254.8 10.6316 254.716 10.5896C254.592 10.5265 254.666 10.4979 254.892 10.507C254.961 10.51 255.035 10.501 255.109 10.498Z" fill="#0F62FE"/>
<path d="M253.896 10.4102C254.127 10.3981 254.201 10.3906 254.275 10.3906C254.413 10.3906 254.556 10.4087 254.639 10.4522C254.764 10.5153 254.69 10.5333 254.464 10.5363C254.173 10.5393 253.887 10.5709 253.596 10.5769C253.444 10.5799 253.324 10.5438 253.315 10.5063C253.31 10.4883 253.379 10.4567 253.435 10.4507C253.628 10.4282 253.841 10.4147 253.896 10.4102Z" fill="#0F62FE"/>
<path d="M279.04 1.57313C278.892 1.58064 278.735 1.60167 278.597 1.59416C278.412 1.58365 278.338 1.5431 278.384 1.50555C278.412 1.48452 278.463 1.45448 278.518 1.44997C278.814 1.42894 279.114 1.41541 279.409 1.40039C279.584 1.42292 279.663 1.45446 279.617 1.49202C279.589 1.51304 279.538 1.54158 279.483 1.54759C279.34 1.56261 279.187 1.56562 279.04 1.57313Z" fill="#0F62FE"/>
<path d="M99.9497 2.43953C100.093 2.43803 100.222 2.45756 100.333 2.49511C100.263 2.54318 100.162 2.57472 100.023 2.58824C99.9543 2.59425 99.8758 2.59875 99.802 2.60025C99.6589 2.60325 99.5297 2.58222 99.4189 2.54467C99.4882 2.49661 99.5943 2.46506 99.7281 2.45154C99.7973 2.44554 99.8759 2.44404 99.9497 2.43953Z" fill="#0F62FE"/>
<path d="M326.406 15.7655C326.402 15.7219 326.683 15.6724 326.937 15.6739C327.071 15.6754 327.209 15.6964 327.288 15.737C327.408 15.7985 327.338 15.8226 327.112 15.8181C326.974 15.8151 326.826 15.8406 326.688 15.8361C326.531 15.8346 326.439 15.8015 326.406 15.7655Z" fill="#0F62FE"/>
<path d="M259.063 10.6928C259.059 10.6763 259.035 10.6568 259.049 10.6418C259.137 10.5592 259.668 10.5336 259.806 10.6057C259.829 10.6192 259.838 10.6418 259.82 10.6553C259.792 10.6763 259.742 10.7034 259.686 10.7094C259.543 10.7244 259.395 10.7319 259.248 10.7334C259.183 10.7334 259.123 10.7079 259.063 10.6928Z" fill="#0F62FE"/>
<path d="M11.7529 10.3693C11.2084 10.4009 11.1992 10.3979 11.2961 10.3228C11.3838 10.2552 11.5453 10.2146 11.7806 10.2146C11.8499 10.2146 11.9237 10.2116 11.9837 10.2176C12.0483 10.2251 12.1406 10.2401 12.1544 10.2582C12.1821 10.2927 12.1036 10.3303 11.9652 10.3558C11.9052 10.3678 11.8268 10.3648 11.7529 10.3693Z" fill="#0F62FE"/>
<path d="M106.766 2.22728C106.604 2.25281 106.466 2.24381 106.364 2.19574C106.263 2.14767 106.424 2.09059 106.706 2.07707C106.78 2.07407 106.858 2.06206 106.927 2.06807C106.997 2.07257 107.066 2.09058 107.107 2.10861C107.181 2.13865 107.135 2.17922 106.987 2.21376C106.928 2.22728 106.84 2.22427 106.766 2.22728Z" fill="#0F62FE"/>
<path d="M325.445 15.6528C325.487 15.6333 325.528 15.6137 325.574 15.5957C325.745 15.6212 325.819 15.6513 325.773 15.6858C325.745 15.7069 325.69 15.7249 325.648 15.7444C325.477 15.7189 325.408 15.6873 325.445 15.6528Z" fill="#0F62FE"/>
<path d="M19.0625 27.4686C19.0625 27.4506 19.1271 27.422 19.1779 27.416C19.2748 27.4055 19.3947 27.4265 19.4778 27.4686C19.5931 27.5287 19.524 27.5602 19.3117 27.5437C19.164 27.5317 19.0625 27.5016 19.0625 27.4686Z" fill="#0F62FE"/>
<path d="M260.943 9.29388C261.003 9.30739 261.063 9.32092 261.118 9.33594C261.04 9.39151 260.943 9.41554 260.841 9.40052C260.777 9.3915 260.721 9.37348 260.661 9.35996C260.74 9.30438 260.832 9.28336 260.943 9.29388Z" fill="#0F62FE"/>
<path d="M259.346 9.22597C259.439 9.20344 259.549 9.21547 259.679 9.25903C259.637 9.27855 259.6 9.30109 259.549 9.31611C259.462 9.34014 259.346 9.32811 259.222 9.28305C259.259 9.26502 259.3 9.24549 259.346 9.22597Z" fill="#0F62FE"/>
<path d="M258.121 9.29221C258.181 9.30572 258.241 9.31925 258.297 9.33427C258.218 9.38985 258.126 9.41387 258.02 9.39885C257.955 9.38984 257.9 9.37181 257.84 9.35829C257.918 9.30271 258.011 9.28019 258.121 9.29221Z" fill="#0F62FE"/>
<path d="M257.222 9.21223C257.291 9.24227 257.255 9.27831 257.121 9.31887C257.061 9.30535 256.992 9.29485 256.945 9.27683C256.872 9.24829 256.909 9.21072 257.047 9.17017C257.102 9.18519 257.162 9.19871 257.222 9.21223Z" fill="#0F62FE"/>
</svg>
