<svg width="320" height="23" viewBox="0 0 320 23" fill="none" xmlns="http://www.w3.org/2000/svg">
<path d="M300.885 12.1544C300.446 12.1736 300.003 12.1868 299.574 12.2157C299.294 12.2338 299.175 12.1808 298.989 12.1532C298.927 12.1435 298.86 12.1243 298.803 12.1267C298.368 12.1459 297.934 12.1676 297.5 12.1893C297.367 12.2362 297.283 12.2987 297.079 12.3216C296.88 12.3432 296.645 12.3432 296.423 12.3541C296.131 12.3673 295.839 12.3805 295.546 12.3926C295.4 12.3986 295.28 12.4214 295.232 12.4647C295.223 12.4719 295.32 12.49 295.373 12.5008C295.551 12.5369 295.723 12.5778 295.918 12.6055C296.104 12.6319 296.335 12.5886 296.534 12.6223C296.982 12.6981 296.986 12.6969 297.327 12.6824C297.62 12.6692 297.912 12.6548 298.205 12.6452C298.262 12.6428 298.329 12.6608 298.391 12.6704C298.577 12.6969 298.696 12.757 298.971 12.7342C299.179 12.7161 299.41 12.7125 299.627 12.7029C299.808 12.7378 299.977 12.7775 300.172 12.8051C300.353 12.8316 300.407 12.8521 300.309 12.887C300.22 12.9194 300.096 12.9327 299.932 12.9351C299.786 12.9363 299.64 12.9471 299.494 12.9531C299.418 12.9567 299.348 12.9591 299.277 12.9627C298.998 12.976 298.998 12.976 298.488 12.899C298.289 12.8689 298.063 12.911 297.872 12.8821C297.744 12.8629 297.633 12.834 297.509 12.8136C297.456 12.8052 297.372 12.8039 297.305 12.8063C297.084 12.8148 296.862 12.8208 296.649 12.8364C296.499 12.8472 296.41 12.8809 296.428 12.9146C296.432 12.9278 296.539 12.9471 296.601 12.9483C296.742 12.9507 296.893 12.9339 297.03 12.9423C297.163 12.9507 297.301 12.9748 297.398 13.0012C297.598 13.0566 297.823 13.0072 298.014 13.0217C298.213 13.0373 298.377 13.0854 298.568 13.1143C298.617 13.1215 298.71 13.1095 298.785 13.1059C299.002 13.0975 299.219 13.0902 299.436 13.0818C299.618 13.1167 299.813 13.148 299.977 13.1877C300.274 13.2599 300.593 13.2875 300.978 13.2526C301.195 13.2334 301.408 13.2406 301.581 13.2875C301.758 13.3356 301.962 13.3308 302.188 13.3212C302.396 13.3116 302.608 13.2851 302.821 13.3188C303.282 13.3934 303.286 13.397 303.831 13.3681C303.995 13.3597 304.119 13.3573 304.243 13.385C304.358 13.4102 304.483 13.4319 304.602 13.4559C304.819 13.4475 305.041 13.4391 305.258 13.4295C305.537 13.4162 305.692 13.4331 305.758 13.5004C305.798 13.5413 305.816 13.5786 305.914 13.6063C306.029 13.64 306.153 13.6388 306.321 13.6291C306.481 13.6207 306.596 13.6075 306.662 13.5642C306.689 13.5462 306.742 13.5293 306.791 13.5149C306.831 13.504 306.893 13.4872 306.928 13.4896C306.995 13.4944 307.083 13.5076 307.105 13.5233C307.322 13.6688 307.322 13.6701 307.544 13.7122C307.788 13.7591 308.04 13.8012 308.262 13.8541C308.461 13.901 308.66 13.8806 308.878 13.8806C309.042 13.8806 309.148 13.9118 309.135 13.9431C309.126 13.9612 309.064 13.9876 309.011 13.99C308.576 14.0141 308.138 14.0345 307.699 14.0514C307.646 14.0538 307.58 14.0321 307.517 14.0213C307.393 13.9996 307.283 13.966 307.15 13.9587C307.017 13.9515 306.862 13.9696 306.716 13.9756C306.569 13.9816 306.414 13.9973 306.281 13.9876C306.148 13.978 306.042 13.9431 305.918 13.9203C305.86 13.9094 305.781 13.8938 305.732 13.8974C305.409 13.9263 305.169 13.8866 304.939 13.8336C304.89 13.8228 304.806 13.8156 304.744 13.818C304.23 13.8385 303.721 13.8625 303.207 13.8854C302.998 13.895 302.83 13.8529 302.786 13.7819C302.763 13.7422 302.719 13.7025 302.719 13.6628C302.719 13.5907 302.476 13.551 302.298 13.5594C302.006 13.5714 301.709 13.581 301.421 13.5991C301.186 13.6135 300.987 13.5991 300.827 13.5558C300.641 13.5064 300.429 13.5161 300.216 13.5293C300.057 13.5389 300.012 13.5786 300.021 13.6785C300.03 13.7591 299.955 13.7843 299.667 13.7976C299.303 13.8144 298.936 13.8312 298.568 13.8445C298.51 13.8469 298.444 13.8264 298.386 13.8156C298.262 13.794 298.151 13.7591 298.018 13.7518C297.885 13.7434 297.73 13.7615 297.584 13.7687C297.438 13.7747 297.283 13.7915 297.15 13.7831C297.017 13.7747 296.906 13.7386 296.787 13.7158C296.729 13.7049 296.658 13.6893 296.601 13.6917C296.308 13.7013 296.016 13.7158 295.723 13.729C295.396 13.7434 295.396 13.7434 294.93 13.6688C294.718 13.6352 294.505 13.6616 294.297 13.6713C294.075 13.6809 293.867 13.6857 293.694 13.6376C293.579 13.6063 293.451 13.5871 293.313 13.5931C292.946 13.6075 292.582 13.6255 292.214 13.64C292.152 13.6424 292.068 13.6364 292.02 13.6255C291.785 13.575 291.554 13.5353 291.227 13.5606C290.943 13.5822 290.637 13.5834 290.354 13.6039C290.199 13.6147 290.128 13.6532 290.159 13.6833C290.176 13.6989 290.27 13.717 290.332 13.717C290.473 13.7182 290.628 13.7001 290.761 13.7073C291.036 13.7218 291.173 13.8228 291.532 13.7951C291.745 13.7783 291.966 13.7723 292.188 13.7675C292.245 13.7663 292.307 13.7891 292.37 13.8012C292.547 13.8336 292.702 13.8757 292.959 13.8541C293.171 13.8372 293.397 13.8325 293.615 13.8228C293.96 13.8072 293.96 13.8084 294.408 13.8818C294.62 13.9167 294.833 13.889 295.041 13.8806C295.196 13.8746 295.342 13.8625 295.466 13.8794C295.657 13.9046 295.794 13.9624 296.029 13.9587C296.251 13.9551 296.468 13.9383 296.689 13.9323C296.827 13.9287 296.955 13.9479 297.066 13.9804C297.181 14.0129 297.305 14.0273 297.456 14.0201C297.673 14.0105 297.894 13.9984 298.116 13.9924C298.178 13.9912 298.249 14.0021 298.306 14.0117C298.431 14.0333 298.55 14.0586 298.67 14.0814C298.887 14.0742 299.108 14.0718 299.321 14.0574C299.485 14.0466 299.6 14.0514 299.733 14.0754C299.901 14.1079 300.039 14.1657 300.313 14.138C300.451 14.1248 300.61 14.1284 300.748 14.1163C300.916 14.1007 301.031 14.1067 301.151 14.1428C301.377 14.2114 301.66 14.2126 301.953 14.1861C302.272 14.1572 302.511 14.1909 302.75 14.2438C303.003 14.2992 303.003 14.298 303.198 14.4315C303.255 14.47 303.419 14.488 303.557 14.4808C303.787 14.4688 303.986 14.4748 304.155 14.5205C304.332 14.5698 304.545 14.5638 304.762 14.5506C305.05 14.5325 305.338 14.5169 305.572 14.5867C305.688 14.6204 305.812 14.6288 305.967 14.6203C306.405 14.5987 306.848 14.5855 307.278 14.559C307.54 14.5422 307.69 14.5807 307.867 14.6131C308.107 14.6576 308.368 14.6973 308.368 14.7924C308.368 14.808 308.43 14.8261 308.483 14.8381C308.599 14.8633 308.723 14.885 308.842 14.9091C309.019 14.9451 309.192 14.9752 309.436 14.956C309.648 14.9403 309.874 14.9355 310.092 14.9247C310.309 14.9139 310.508 14.9079 310.703 14.9536C310.929 15.0053 311.168 15.0546 311.425 15.0931C311.607 15.1208 311.846 15.0739 312.041 15.1112C312.161 15.134 312.276 15.1605 312.404 15.1797C312.457 15.1881 312.542 15.1821 312.613 15.1797C312.759 15.1749 312.909 15.1713 313.051 15.1593C313.215 15.146 313.339 15.1484 313.463 15.1761C313.578 15.2014 313.694 15.2363 313.827 15.2435C314.026 15.2543 314.247 15.2062 314.447 15.2615C314.549 15.2892 314.677 15.3156 314.81 15.3241C314.943 15.3325 315.098 15.3144 315.24 15.3156C315.302 15.3156 315.377 15.3349 315.413 15.3505C315.435 15.359 315.404 15.3818 315.373 15.3938C315.333 15.4083 315.275 15.4275 315.218 15.4299C314.779 15.4516 314.34 15.4696 313.902 15.4901C313.64 15.5021 313.64 15.5021 313.113 15.4263C312.989 15.4083 312.852 15.4119 312.697 15.4203C312.489 15.4311 312.276 15.4516 312.059 15.4299C311.775 15.3481 311.425 15.3409 311.053 15.3722C310.898 15.3854 310.756 15.3854 310.641 15.3626C310.397 15.3168 310.14 15.2748 309.923 15.2206C309.755 15.1785 309.675 15.1749 309.604 15.2326C309.582 15.2507 309.56 15.2699 309.564 15.2868C309.591 15.3469 309.64 15.4059 309.666 15.466C309.675 15.4828 309.64 15.5021 309.618 15.5201C309.547 15.5707 309.454 15.5671 309.299 15.5249C309.143 15.4828 308.957 15.4552 308.709 15.4744C308.497 15.4913 308.266 15.4889 308.054 15.5069C307.726 15.5334 307.495 15.4949 307.26 15.4432C307.212 15.4323 307.128 15.4263 307.066 15.4287C306.405 15.4564 305.75 15.4877 305.09 15.5153C304.948 15.5213 304.819 15.5033 304.709 15.4708C304.593 15.4383 304.465 15.4215 304.323 15.4275C303.738 15.4528 303.153 15.4756 302.569 15.5069C302.329 15.5201 302.139 15.5045 301.975 15.4624C301.851 15.4311 301.736 15.4215 301.581 15.4251C301.412 15.4287 301.293 15.4408 301.208 15.4756C301.129 15.5093 301.186 15.5298 301.363 15.5562C301.554 15.5851 301.731 15.6224 301.913 15.6561C302.059 15.6513 302.205 15.6416 302.347 15.6428C302.409 15.6428 302.467 15.6645 302.529 15.6765C302.706 15.7114 302.87 15.7463 303.122 15.727C303.335 15.7102 303.561 15.7066 303.778 15.6958C304.079 15.6825 304.079 15.6825 304.567 15.7583C304.691 15.7776 304.824 15.7764 304.983 15.7655C305.12 15.7571 305.262 15.774 305.36 15.81C305.4 15.8245 305.386 15.8485 305.302 15.9279C305.302 15.9869 305.395 15.9604 305.426 15.9219C305.475 15.8666 305.382 15.8485 305.205 15.8786C305.081 15.9003 305.019 15.9315 305.05 15.9568C305.067 15.97 305.152 15.9869 305.302 15.9279C305.692 15.8558 305.989 15.8473 306.272 15.8281C306.441 15.8173 306.547 15.8221 306.68 15.8533C306.84 15.8906 306.999 15.9303 307.26 15.9111C307.544 15.8894 307.845 15.887 308.133 15.869C308.399 15.8521 308.536 15.9051 308.705 15.9364C308.909 15.9736 309.135 15.9315 309.321 15.9532C309.516 15.9748 309.653 16.0278 309.879 16.0374C310.207 16.0049 310.415 16.0651 310.663 16.1048C310.858 16.1348 311.088 16.1084 311.297 16.0951C311.531 16.0807 311.726 16.0939 311.89 16.1372C312.076 16.1866 312.285 16.1757 312.497 16.1649C312.994 16.1409 313.011 16.1372 313.299 16.2034C313.507 16.2515 313.707 16.2299 313.915 16.2239C314.097 16.2563 314.274 16.2912 314.465 16.3201C314.513 16.3273 314.606 16.3153 314.682 16.3117C314.899 16.302 315.12 16.2924 315.337 16.2828C315.484 16.2768 315.639 16.2587 315.771 16.266C315.904 16.2744 316.015 16.3093 316.135 16.3321C316.254 16.355 316.379 16.3778 316.494 16.4019C316.671 16.438 316.839 16.468 317.087 16.45C317.3 16.4344 317.522 16.4296 317.743 16.4187C318.022 16.4055 318.013 16.4091 318.532 16.4813C318.811 16.521 319.099 16.4729 319.382 16.4681C319.524 16.4656 319.661 16.4789 319.759 16.5138C319.799 16.5282 319.786 16.5523 319.799 16.5727C319.068 16.6052 318.332 16.6328 317.61 16.6725C317.331 16.6882 317.185 16.6449 317.034 16.6088C316.786 16.551 316.458 16.6352 316.223 16.5607C316.082 16.5162 315.878 16.4909 315.634 16.5126C315.492 16.5246 315.342 16.5234 315.195 16.5342C314.823 16.5607 314.482 16.5619 314.185 16.4789C314.083 16.45 313.937 16.4344 313.831 16.4067C313.707 16.3766 313.587 16.3598 313.441 16.3658C312.781 16.3947 312.125 16.4235 311.469 16.4548C311.412 16.4572 311.354 16.4753 311.306 16.4885C311.181 16.5222 311.221 16.5486 311.421 16.5703C311.487 16.5775 311.54 16.5931 311.602 16.6052C311.722 16.628 311.833 16.6641 311.966 16.6725C312.099 16.681 312.254 16.6641 312.4 16.6581C312.546 16.6521 312.701 16.634 312.834 16.6413C312.967 16.6497 313.078 16.6846 313.202 16.7062C313.259 16.7171 313.33 16.7351 313.388 16.7339C313.68 16.7267 313.968 16.7134 314.261 16.7026C314.442 16.7351 314.597 16.782 314.815 16.7928C314.952 16.8001 315.098 16.7868 315.24 16.7892C315.302 16.7904 315.382 16.8085 315.413 16.8241C315.43 16.8337 315.373 16.8578 315.328 16.8698C315.16 16.9155 314.93 16.9071 314.722 16.9215C314.496 16.9372 314.292 16.9324 314.119 16.8855C314.004 16.8542 313.875 16.8373 313.733 16.8434C313.366 16.859 313.002 16.877 312.635 16.8903C312.573 16.8927 312.497 16.8819 312.44 16.8734C311.975 16.8001 311.975 16.7976 311.647 16.8133C311.164 16.8361 311.164 16.8361 310.84 16.7724C310.778 16.7603 310.712 16.7375 310.659 16.7387C310.145 16.758 309.635 16.7772 309.126 16.8049C308.957 16.8133 308.842 16.8133 308.718 16.782C308.612 16.7555 308.488 16.7255 308.355 16.7183C308.217 16.711 308.067 16.7291 307.921 16.7351C307.774 16.7411 307.619 16.7567 307.491 16.7471C307.358 16.7375 307.243 16.7038 307.128 16.6798C307.008 16.6545 306.879 16.6557 306.716 16.6653C306.21 16.693 306.206 16.6894 305.705 16.6148C305.648 16.6064 305.572 16.5968 305.51 16.5992C305.143 16.6136 304.779 16.6316 304.412 16.6461C304.27 16.6521 304.133 16.6365 304.035 16.6016C303.995 16.5871 304.009 16.5631 303.982 16.5162C303.951 16.5053 303.986 16.5246 303.995 16.5426C304.062 16.5402 304.141 16.5426 304.19 16.533C304.314 16.5101 304.376 16.4801 304.345 16.4548C304.327 16.4416 304.243 16.4247 304.19 16.4247C304.093 16.4247 304.009 16.4512 303.982 16.5162C303.703 16.5559 303.406 16.5643 303.118 16.5835C302.95 16.5956 302.843 16.5895 302.71 16.5583C302.551 16.5198 302.387 16.4825 302.125 16.5017C301.842 16.5234 301.541 16.527 301.248 16.5438C300.912 16.5631 300.765 16.4548 300.482 16.4572C300.189 16.4596 299.897 16.4801 299.605 16.4945C299.348 16.5065 299.348 16.5065 298.816 16.4283C298.621 16.3995 298.391 16.4416 298.2 16.4115C298.072 16.3923 297.961 16.3634 297.837 16.3429C297.784 16.3345 297.699 16.3345 297.633 16.3369C297.265 16.3514 296.893 16.361 296.539 16.3874C296.135 16.4187 295.83 16.385 295.542 16.3141C295.178 16.3273 294.811 16.3345 294.452 16.3574C294.191 16.3742 294.04 16.3345 293.863 16.302C293.801 16.2912 293.747 16.2732 293.681 16.2684C293.615 16.2635 293.535 16.2732 293.464 16.2768C293.171 16.29 292.87 16.296 292.587 16.3177C292.237 16.3454 292.104 16.2467 291.833 16.2347C291.652 16.2936 291.554 16.3742 291.195 16.3802C290.903 16.385 290.611 16.4043 290.318 16.4175C290.172 16.4235 290.026 16.4308 289.88 16.4368C289.645 16.4476 289.534 16.4945 289.583 16.5667C289.609 16.6064 289.632 16.6461 289.654 16.6858C289.698 16.7567 289.587 16.8169 289.401 16.8253C288.887 16.8482 288.378 16.8722 287.864 16.8927C287.726 16.8987 287.593 16.8782 287.483 16.8458C287.367 16.8133 287.239 16.7988 287.097 16.8049C286.583 16.8277 286.074 16.8518 285.56 16.8722C285.502 16.8746 285.427 16.8626 285.369 16.853C285.245 16.8313 285.126 16.8061 285.006 16.7832C284.714 16.794 284.426 16.8012 284.138 16.8157C283.672 16.8373 283.672 16.8385 283.331 16.7724C283.269 16.7603 283.207 16.7375 283.15 16.7387C282.928 16.7435 282.711 16.7555 282.49 16.7664C281.838 16.7976 281.838 16.7976 281.648 16.7616C281.475 16.7279 281.32 16.687 281.058 16.7062C280.775 16.7279 280.474 16.7351 280.181 16.7471C279.964 16.7555 279.747 16.7652 279.53 16.7676C279.472 16.7688 279.41 16.7459 279.348 16.7339C279.171 16.6966 278.998 16.6665 278.755 16.687C278.613 16.699 278.462 16.7014 278.316 16.7074C277.935 16.7243 277.935 16.7243 277.31 16.6521C277.248 16.6449 277.173 16.6365 277.111 16.6401C276.597 16.6617 276.087 16.6858 275.573 16.7062C275.511 16.7086 275.436 16.7014 275.374 16.6954C274.674 16.6256 274.674 16.6256 273.93 16.6593C273.646 16.6713 273.637 16.6761 273.34 16.6124C273.208 16.5847 273.097 16.5715 272.942 16.5799C272.357 16.6088 271.768 16.628 271.187 16.6617C270.926 16.6762 270.775 16.6401 270.598 16.6076C270.536 16.5968 270.47 16.5727 270.416 16.5739C269.832 16.5968 269.247 16.6244 268.662 16.6473C268.609 16.6497 268.542 16.6256 268.48 16.6148C268.361 16.5932 268.245 16.5607 268.112 16.5535C267.975 16.5462 267.824 16.5643 267.674 16.5703C267.306 16.5859 267.306 16.5847 266.881 16.5138C266.823 16.5041 266.748 16.4909 266.69 16.4933C266.105 16.5174 265.516 16.5378 264.936 16.5727C264.604 16.592 264.378 16.5571 264.143 16.5065C264.094 16.4957 264.01 16.4909 263.948 16.4933C263.288 16.521 262.632 16.5522 261.972 16.5799C261.834 16.5859 261.702 16.5655 261.591 16.5342C261.414 16.4849 261.205 16.4909 260.984 16.5017C260.474 16.527 260.47 16.5258 260.169 16.4681C260.107 16.456 260.053 16.4404 259.987 16.4344C259.925 16.4284 259.845 16.432 259.779 16.4344C259.486 16.4464 259.194 16.4596 258.901 16.4729C258.609 16.4861 258.312 16.4933 258.024 16.5138C257.67 16.539 257.501 16.4608 257.253 16.4247C256.89 16.4404 256.518 16.45 256.159 16.4753C255.884 16.4945 255.756 16.4416 255.574 16.4139C255.512 16.4043 255.446 16.3838 255.388 16.3862C254.728 16.4127 254.068 16.4416 253.412 16.4741C253.253 16.4813 253.146 16.4716 253.013 16.4428C252.716 16.3778 252.703 16.3802 252.207 16.4043C251.99 16.4151 251.782 16.4247 251.595 16.3754C251.432 16.3309 251.232 16.3201 250.997 16.3345C250.709 16.3526 250.413 16.3622 250.12 16.3742C249.828 16.3875 249.535 16.4055 249.243 16.4115C249.008 16.4175 248.866 16.361 248.68 16.3321C248.623 16.3237 248.543 16.3225 248.476 16.3249C248.184 16.3357 247.883 16.3441 247.599 16.3646C247.254 16.3898 247.063 16.3237 246.819 16.2852C246.766 16.2768 246.678 16.2816 246.611 16.2852C246.097 16.3069 245.588 16.3309 245.074 16.3538C244.892 16.3213 244.706 16.29 244.524 16.2575C244.232 16.2696 243.94 16.2828 243.647 16.2948C243.426 16.3044 243.2 16.3081 242.991 16.3261C242.721 16.3502 242.588 16.2936 242.407 16.266C242.345 16.2563 242.278 16.2359 242.221 16.2383C241.853 16.2515 241.485 16.266 241.122 16.2864C240.776 16.3069 240.639 16.1986 240.355 16.1998C240.063 16.201 239.762 16.2166 239.478 16.2383C239.15 16.2635 238.92 16.2251 238.685 16.1733C238.636 16.1625 238.552 16.1565 238.49 16.1589C238.122 16.1733 237.759 16.1914 237.391 16.2058C237.329 16.2082 237.254 16.2022 237.192 16.195C236.492 16.124 236.492 16.1228 236.186 16.1372C235.969 16.1469 235.748 16.1589 235.526 16.1649C235.464 16.1673 235.389 16.1565 235.331 16.1469C234.87 16.0735 234.87 16.0723 234.538 16.0867C234.246 16.1 233.953 16.1132 233.661 16.1264C233.479 16.0939 233.293 16.0627 233.111 16.0302C232.748 16.0458 232.376 16.0578 232.017 16.0795C231.849 16.0891 231.738 16.0855 231.609 16.0554C231.45 16.0194 231.29 15.9773 231.025 15.9977C230.741 16.0194 230.44 16.0218 230.152 16.0398C229.806 16.0615 229.664 15.952 229.385 15.9532C229.093 15.9544 228.792 15.97 228.508 15.9917C228.18 16.0169 227.95 15.9785 227.715 15.9267C227.666 15.9159 227.582 15.9099 227.52 15.9123C226.714 15.9472 225.912 15.9821 225.106 16.0193C224.609 16.0422 224.609 16.0434 223.666 15.9772C223.599 15.9724 223.528 15.9676 223.462 15.97C223.169 15.9809 222.868 15.9893 222.584 16.0097C222.239 16.035 222.048 15.97 221.805 15.9303C221.752 15.9219 221.667 15.9267 221.596 15.9291C221.375 15.9375 221.158 15.9484 220.936 15.958C220.644 15.9712 220.352 15.9845 220.059 15.9977C219.877 15.9664 219.691 15.9339 219.51 15.9027C219.146 15.9183 218.774 15.9267 218.415 15.952C218.141 15.9712 218.012 15.9207 217.831 15.8918C217.769 15.8822 217.702 15.8618 217.645 15.863C216.984 15.8894 216.324 15.9171 215.669 15.9508C215.398 15.9652 215.274 15.9111 215.093 15.8834C215.031 15.875 214.96 15.8594 214.902 15.8618C214.463 15.8786 214.025 15.8991 213.586 15.9195C213.338 15.9315 213.338 15.9315 212.798 15.857C212.736 15.8485 212.665 15.8401 212.603 15.8425C211.211 15.9027 209.825 15.9664 208.433 16.0266C208.292 16.0326 208.163 16.0145 208.052 15.9821C207.937 15.9496 207.809 15.9327 207.667 15.9388C207.082 15.964 206.493 15.9869 205.913 16.0182C205.673 16.0314 205.483 16.0157 205.319 15.9736C205.195 15.9424 205.08 15.9303 204.925 15.9376C204.632 15.952 204.34 15.964 204.047 15.9772C203.755 15.9905 203.462 16.0037 203.17 16.017C202.878 16.0302 202.581 16.0374 202.293 16.0578C201.938 16.0831 201.766 16.0085 201.522 15.9712C201.083 15.9893 200.645 16.0073 200.21 16.0266C199.626 16.0518 199.041 16.0795 198.456 16.1036C198.403 16.106 198.336 16.0843 198.274 16.0735C198.093 16.0434 197.96 16.0013 197.689 16.0145C196.378 16.0783 195.058 16.1324 193.742 16.195C193.467 16.2082 193.348 16.1565 193.161 16.1288C193.099 16.1204 193.029 16.1036 192.971 16.106C192.24 16.136 191.509 16.1697 190.778 16.2022C190.481 16.2154 190.481 16.2154 189.985 16.1408C189.927 16.1324 189.852 16.1216 189.79 16.124C188.837 16.1649 187.889 16.2082 186.937 16.2503C186.795 16.2563 186.666 16.2395 186.551 16.207C186.44 16.1745 186.307 16.1565 186.17 16.1625C185.293 16.201 184.411 16.2383 183.538 16.2804C183.304 16.2924 183.109 16.2816 182.94 16.2383C182.821 16.207 182.701 16.1938 182.55 16.201C181.235 16.2599 179.919 16.3165 178.603 16.379C178.35 16.3911 178.173 16.3682 178.014 16.3285C177.885 16.2972 177.774 16.2912 177.615 16.296C177.446 16.302 177.345 16.3153 177.252 16.3514C177.132 16.3983 177.057 16.4572 176.773 16.4608C176.481 16.4644 176.184 16.4789 175.896 16.4993C175.621 16.5198 175.493 16.4656 175.32 16.4332C175.191 16.4103 175.072 16.4067 174.908 16.4175C174.757 16.4271 174.664 16.4476 174.576 16.4861C174.381 16.5679 174.363 16.5679 174.124 16.5162C173.995 16.4885 173.88 16.4668 173.738 16.4716C173.153 16.4957 172.568 16.5222 171.984 16.5498C171.647 16.5655 171.643 16.5679 171.39 16.5077C171.266 16.4777 171.146 16.4632 171 16.4704C169.392 16.5426 167.784 16.6124 166.175 16.6882C165.927 16.7002 165.759 16.6749 165.582 16.6389C165.524 16.6268 165.466 16.61 165.4 16.6052C165.333 16.6004 165.258 16.6052 165.187 16.6076C164.018 16.6593 162.843 16.7086 161.678 16.7664C161.412 16.7796 161.271 16.7411 161.089 16.7098C161.027 16.699 160.974 16.6822 160.907 16.6774C160.841 16.6737 160.761 16.6822 160.69 16.6858C159.521 16.7375 158.347 16.7868 157.181 16.8446C156.902 16.8578 156.783 16.8073 156.601 16.7808C156.539 16.7712 156.472 16.7531 156.415 16.7555C156.047 16.7688 155.684 16.7868 155.316 16.8025C154.439 16.8421 153.562 16.8794 152.684 16.9203C152.348 16.936 152.201 16.8289 151.918 16.8337C151.55 16.8397 151.187 16.8638 150.819 16.8806C150.527 16.8939 150.234 16.9059 149.942 16.9203C149.654 16.9336 149.654 16.9336 148.936 16.8638C148.874 16.8578 148.799 16.8494 148.737 16.8518C147.713 16.8963 146.685 16.9408 145.666 16.9889C145.432 16.9997 145.237 16.9937 145.068 16.9492C144.949 16.9179 144.825 16.9023 144.678 16.9095C143.141 16.9781 141.608 17.0467 140.071 17.114C140.013 17.1164 139.938 17.1044 139.88 17.0948C139.756 17.0731 139.636 17.0479 139.517 17.025C139.428 17.0527 139.313 17.0779 139.255 17.1092C139.176 17.1513 139.069 17.1633 138.901 17.1706C138.733 17.1778 138.626 17.1754 138.493 17.1441C138.334 17.1056 138.17 17.0755 137.909 17.0875C136.3 17.1633 134.692 17.2319 133.084 17.3065C132.818 17.3185 132.694 17.2656 132.508 17.2379C132.446 17.2295 132.375 17.2163 132.317 17.2187C131.657 17.2463 131.001 17.2764 130.341 17.3053C128.511 17.3871 126.682 17.4653 124.856 17.5519C124.524 17.5675 124.298 17.5374 124.063 17.4857C124.014 17.4749 123.93 17.4689 123.868 17.4713C121.307 17.5844 118.747 17.6986 116.19 17.8129C116.053 17.8189 115.92 17.7997 115.809 17.7684C115.694 17.7359 115.566 17.7203 115.424 17.7263C114.254 17.778 113.084 17.8298 111.915 17.8827C111.622 17.8959 111.618 17.8971 111.317 17.8394C111.255 17.8273 111.188 17.8045 111.139 17.8069C111.038 17.8129 110.94 17.843 110.869 17.8839C110.798 17.9272 110.687 17.9392 110.524 17.9476C110.355 17.9561 110.244 17.9525 110.116 17.9236C109.952 17.8875 109.801 17.8526 109.536 17.8646C106.173 18.0186 102.81 18.1666 99.4473 18.3193C99.177 18.3314 99.0529 18.2808 98.8669 18.2532C98.8048 18.2448 98.7428 18.2327 98.6764 18.2303C98.6055 18.2279 98.5302 18.2351 98.4593 18.2387C92.9743 18.4829 87.4894 18.7283 82.0044 18.9725C81.6765 18.987 81.681 18.987 81.3221 19.0976C81.2778 19.1109 81.2201 19.1289 81.1581 19.1313C79.4789 19.2083 77.7954 19.2829 76.1118 19.3575C75.3808 19.3899 74.6497 19.4236 73.9187 19.4549C73.6573 19.4657 73.6573 19.4657 73.0326 19.5956C72.9794 19.6065 72.9174 19.6209 72.8553 19.6233C69.9312 19.7544 67.007 19.8855 64.0785 20.0143C63.8481 20.0239 63.662 20.0455 63.5557 20.1033C63.4804 20.1442 63.3829 20.1682 63.2367 20.1754C61.1898 20.2669 59.143 20.3595 57.0916 20.4485C56.848 20.4593 56.7017 20.493 56.5821 20.5435C56.5422 20.5604 56.5067 20.5796 56.4491 20.5917C56.396 20.6025 56.3162 20.6061 56.2498 20.6097C54.4953 20.6879 52.7409 20.7685 50.9819 20.8431C50.7205 20.8539 50.6142 20.8984 50.4857 20.9453C50.4414 20.961 50.4103 20.9826 50.3527 20.9934C50.2951 21.0031 50.211 21.0031 50.1401 21.0055C48.678 21.0704 47.216 21.1366 45.7539 21.2015C45.4704 21.1955 45.4083 21.2653 45.271 21.3074C45.2222 21.3218 45.1868 21.3411 45.1292 21.3507C45.0672 21.3603 44.9874 21.3591 44.9121 21.3615C43.7424 21.4133 42.5728 21.4686 41.3987 21.5167C41.1284 21.5275 41.0752 21.5889 40.929 21.631C40.8803 21.6442 40.8316 21.6647 40.774 21.6683C40.043 21.7032 39.312 21.7356 38.5809 21.7669C38.3373 21.7777 38.3373 21.7765 37.9075 21.8956C37.8588 21.9089 37.8011 21.9233 37.7391 21.9269C36.6447 21.9774 35.546 22.0255 34.4472 22.0749C34.3055 22.0809 34.208 22.1097 34.1371 22.1507C34.0662 22.1915 33.9644 22.218 33.8226 22.224C32.9453 22.2637 32.068 22.3046 31.1908 22.3407C30.9471 22.3503 30.7876 22.3804 30.6813 22.4345C30.6016 22.4754 30.5041 22.4959 30.349 22.5031C29.4718 22.5416 28.5946 22.5837 27.7129 22.6174C27.4559 22.627 27.3229 22.6679 27.2166 22.7184C27.1324 22.7593 27.0349 22.7738 26.871 22.781C25.2627 22.8507 23.6501 22.9205 22.0462 22.9975C21.776 23.0107 21.6386 22.9686 21.4614 22.9386C21.2088 22.8965 20.9741 22.8507 20.9741 22.7569C20.9741 22.7425 20.8988 22.7256 20.8456 22.7136C20.4513 22.6234 20.4513 22.6234 20.3892 22.5272C20.3538 22.4682 20.3139 22.4081 20.2829 22.3479C20.2253 22.2493 20.0835 22.224 19.6759 22.2421C19.5297 22.2481 19.3835 22.2565 19.2373 22.2613C19.0202 22.2697 18.8562 22.23 18.8164 22.1579C18.7942 22.1182 18.7677 22.0785 18.7455 22.0388C18.9671 22.0291 18.9626 22.028 19.3524 21.8824C19.5164 21.8211 19.5164 21.821 19.2019 21.7597C19.0823 21.7368 18.967 21.7116 18.8385 21.6899C18.781 21.6803 18.7057 21.6743 18.6436 21.6767C18.2759 21.6911 17.9126 21.708 17.5493 21.7248C16.9645 21.7513 16.9644 21.7513 16.3707 21.6286C16.322 21.6189 16.2467 21.6009 16.2555 21.5913C16.3043 21.5468 16.4239 21.5275 16.5745 21.5227C16.796 21.5155 17.0131 21.5035 17.2302 21.4938C17.3764 21.4878 17.5226 21.4806 17.6688 21.4746C17.8062 21.4289 17.948 21.3844 18.0765 21.3375C18.2803 21.2653 18.2802 21.2629 18.0011 21.2124C17.8239 21.1787 17.6334 21.1486 17.4517 21.1173C17.2346 21.127 17.0131 21.1378 16.796 21.1462C16.5213 21.157 16.4106 21.1342 16.3397 21.056C16.2777 20.9874 16.353 20.9285 16.5656 20.914C16.7827 20.8996 16.9866 20.89 17.0974 20.8286C17.2037 20.7697 17.3898 20.7468 17.6202 20.742C17.7664 20.7384 17.9126 20.73 18.0588 20.7228C18.2493 20.7132 18.3512 20.6518 18.3113 20.5832C18.2892 20.5387 18.2449 20.5014 18.0721 20.4918C17.3056 20.4497 17.2967 20.4509 16.9157 20.3691C16.8802 20.3619 16.8537 20.3403 16.867 20.3294C16.8891 20.3114 16.9379 20.2849 16.9911 20.2813C17.5006 20.2548 18.0101 20.2308 18.5196 20.2127C18.6879 20.2067 18.812 20.1983 18.8696 20.1538C18.9493 20.0924 18.9139 20.0359 18.7588 19.9938C18.7101 19.9806 18.6303 19.9637 18.5771 19.9649C17.9923 19.9866 17.4119 20.0143 16.8271 20.0359C16.7739 20.0383 16.6765 20.0179 16.6543 20.0022C16.61 19.9734 16.6764 19.9349 16.8315 19.9216C17.0353 19.9036 17.2435 19.9024 17.3809 19.8422C17.5714 19.7568 17.8062 19.6786 18.0189 19.5968C18.0543 19.5824 18.112 19.5547 18.0987 19.5523C17.9879 19.5259 17.8594 19.5054 17.7442 19.4802C17.5493 19.4381 17.5492 19.3791 17.5935 19.3226C17.629 19.2769 17.7619 19.2588 17.9258 19.2588C17.9967 19.2588 18.0853 19.2588 18.1429 19.248C18.2936 19.2215 18.3423 19.1878 18.267 19.1626C18.2227 19.1481 18.143 19.1277 18.0898 19.1301C17.1417 19.1698 16.1891 19.2083 15.2454 19.2576C14.9662 19.2721 14.8378 19.2263 14.6695 19.1939C14.541 19.1686 14.4213 19.159 14.2618 19.177C14.1112 19.1939 13.965 19.1842 13.872 19.1446C13.7966 19.1121 13.9295 19.0844 14.2884 19.0531C14.3549 19.0471 14.4302 19.0435 14.4789 19.0315C14.9928 18.9016 14.9928 18.9004 15.3472 18.8835C15.6928 18.8679 15.6929 18.8667 15.8746 18.7969C15.9587 18.7644 16.0517 18.7319 16.1315 18.6983C16.1625 18.685 16.2157 18.661 16.198 18.6537C16.1005 18.6165 15.9675 18.608 15.8125 18.6165C15.4669 18.6369 15.0593 18.6201 14.8777 18.7344C14.8068 18.7777 14.696 18.7897 14.5365 18.7969C12.9327 18.8667 11.3288 18.9413 9.72052 19.0086C9.45912 19.0194 9.33956 19.064 9.23766 19.1133C9.14905 19.1542 9.05156 19.1662 8.8832 19.1734C8.71484 19.1806 8.58186 19.1842 8.48439 19.1446C8.42679 19.1205 8.47554 19.0868 8.60846 19.0531C8.79897 19.005 8.76351 18.9449 8.70148 18.8883C8.65717 18.851 8.51983 18.8246 8.37363 18.827C8.15653 18.8318 7.94835 18.845 7.7667 18.7969C7.66037 18.7692 7.52743 18.75 7.4078 18.7259C7.17742 18.6766 6.94702 18.6261 6.62359 18.6586C6.40207 18.6465 6.247 18.6032 6.06978 18.5695C5.77294 18.5142 5.74635 18.5058 5.95902 18.4468C6.19827 18.3807 6.01215 18.2941 6.14506 18.2291C6.28684 18.1593 6.48185 18.098 6.65464 18.0331C6.69894 18.0162 6.73884 18.0006 6.78314 17.9837C6.68124 17.9597 6.58822 17.9296 6.46859 17.9128C6.31352 17.8911 6.23377 17.8646 6.24263 17.7901C6.21162 17.7792 6.22482 17.8069 6.26026 17.8141C6.30014 17.8213 6.39768 17.8153 6.44642 17.8069C6.57047 17.784 6.63243 17.754 6.60142 17.7287C6.5837 17.7155 6.49958 17.6986 6.44642 17.6986C6.34895 17.6986 6.26478 17.7251 6.2382 17.7901C5.74198 17.8394 5.22796 17.8634 4.71402 17.8827C4.66085 17.8851 4.59443 17.861 4.53241 17.849C4.3286 17.8081 4.32858 17.8093 3.73046 17.7973C3.66843 17.7961 3.58429 17.7792 3.55328 17.7624C3.4248 17.689 3.42926 17.6084 3.36723 17.5302C3.48243 17.4797 3.59753 17.4304 3.71715 17.3811C3.9564 17.2812 4.26661 17.1934 4.45269 17.0839C4.41281 17.025 4.35964 16.9661 4.55458 16.9179C5.10839 16.8578 5.104 16.8578 5.25464 16.8001C5.6844 16.6365 6.1097 16.4717 6.55718 16.3105C6.6768 16.2684 6.67682 16.2455 6.46416 16.2275C6.3977 16.2227 6.32672 16.2214 6.25583 16.2239C6.0343 16.2323 5.81278 16.2539 5.59569 16.2491C5.37859 16.2455 5.21909 16.1926 5.04187 16.1601C4.86022 16.1264 4.67858 16.0915 4.49693 16.0566C4.28869 16.0603 4.0805 16.0939 3.87226 16.0398C3.71277 15.9977 3.51341 15.9676 3.33175 15.9327C3.4691 15.8413 3.72611 15.7715 3.92548 15.691C4.10713 15.6176 4.11146 15.6188 4.59882 15.5622C4.82921 15.5358 4.90896 15.3998 4.71402 15.3601C4.4792 15.312 4.23114 15.2675 3.9919 15.2218C3.78366 15.2254 3.57104 15.2579 3.37167 15.2038C3.2166 15.1629 3.03934 15.1352 2.78238 15.1508C2.34818 15.1773 1.90515 15.1905 1.46653 15.2122C1.31589 15.2194 1.15191 15.2146 1.08545 15.1737C1.04115 15.1448 1.16964 15.1051 1.31585 15.0967C1.53737 15.0847 1.73673 15.0703 1.84749 15.0101C1.95382 14.95 2.14874 14.9319 2.37913 14.9235C2.44116 14.9211 2.5121 14.9066 2.54311 14.8922C2.70261 14.8224 2.87984 14.7623 3.22099 14.7647C3.36277 14.7407 3.43804 14.7106 3.39373 14.6817C3.36715 14.6661 3.27416 14.6456 3.22099 14.648C2.85326 14.6601 2.48554 14.6721 2.12667 14.6937C1.95831 14.7034 1.82975 14.7058 1.72342 14.6697C1.6481 14.6456 1.68797 14.6131 1.82975 14.5783C1.9538 14.5482 1.98929 14.5133 1.98043 14.4724C1.95827 14.3774 1.82533 14.3497 1.4 14.3557C1.0943 14.3605 1.01897 14.3449 0.952517 14.2631C0.934795 14.2438 0.890568 14.2174 0.921581 14.2041C1.11209 14.1223 1.23616 14.0213 1.59503 13.9828C1.7368 13.9684 1.88738 13.9684 1.97599 13.9371C2.0646 13.9058 2.14439 13.8697 2.23743 13.8397C2.35262 13.8036 2.4323 13.7699 2.37913 13.747C2.29052 13.7061 2.14879 13.7025 1.98486 13.717C1.84308 13.729 1.69245 13.7302 1.54624 13.7374C1.28484 13.7506 1.07223 13.7194 1.04121 13.6664C0.957034 13.5269 0.868398 13.3886 0.793079 13.249C0.784218 13.2322 0.80631 13.2105 0.841754 13.1961C0.965809 13.1456 1.09878 13.0975 1.22726 13.0481C1.3779 12.9916 1.61718 13.0024 1.82099 12.9916C2.10897 12.976 2.10887 12.9772 2.49433 12.8617C2.64496 12.816 2.90638 12.834 3.06145 12.7931C3.11018 12.7799 3.1855 12.7582 3.17221 12.7462C3.15449 12.7306 3.06592 12.7185 2.99947 12.7113C2.93744 12.7041 2.86214 12.7005 2.79568 12.7041C1.98933 12.739 1.18743 12.7763 0.381072 12.81C0.243726 12.816 0.093084 12.7895 0.0443484 12.7522C-0.00438725 12.7173 0.00886103 12.6752 0 12.6355C0.128485 12.5862 0.274636 12.5405 0.385398 12.4876C0.469578 12.4467 0.567067 12.4286 0.735426 12.4262C0.956952 12.4226 1.17407 12.4082 1.42218 12.3974C1.88295 12.2217 2.33483 12.0377 2.83105 11.8621C3.03042 11.7911 2.98177 11.7189 3.02164 11.6431C3.06151 11.5734 3.35834 11.5842 3.55771 11.5637C3.71721 11.5469 3.77031 11.5084 3.70828 11.4819C3.67284 11.4663 3.59313 11.4482 3.53111 11.4482C3.3849 11.4482 3.2387 11.4591 3.09249 11.4651C2.94628 11.4711 2.77793 11.4675 2.65831 11.488C2.54311 11.5072 2.46775 11.5481 2.39243 11.583C2.30825 11.6215 2.19757 11.6347 2.02921 11.6371C1.81211 11.6395 1.59503 11.6503 1.37794 11.6588C1.13869 11.6118 0.890529 11.5661 0.660142 11.5168C0.615837 11.5072 0.606928 11.4795 0.611359 11.4615C0.62022 11.4146 0.553779 11.3857 0.407573 11.3628C0.283518 11.3436 0.181608 11.3159 0.0664144 11.2919C0.155025 11.2594 0.252531 11.2281 0.323419 11.1932C0.478487 11.1199 0.673451 11.0669 1.01017 11.0693C1.14309 11.0224 1.24939 10.9647 1.42218 10.9322C1.58611 10.9009 1.86524 10.9322 1.9893 10.8612C2.05132 10.8263 2.14442 10.7866 2.26404 10.7722C2.45455 10.7494 2.70266 10.7614 2.81342 10.694C2.87988 10.6555 2.97731 10.6206 3.10579 10.611C3.252 10.6002 3.4026 10.5978 3.50893 10.5749C3.56653 10.5629 3.62856 10.5437 3.62856 10.5268C3.62856 10.516 3.54002 10.4991 3.478 10.4919C3.4204 10.4835 3.34499 10.4775 3.27854 10.4799C3.05701 10.4871 2.83992 10.5004 2.61839 10.5076C2.55637 10.51 2.4855 10.5016 2.41904 10.4943C2.2241 10.4751 2.23737 10.451 2.39243 10.4077C2.5475 10.3656 2.65832 10.3115 2.78681 10.2622C2.92859 10.2537 3.10578 10.2574 3.20325 10.2345C3.36718 10.1972 3.48234 10.1431 3.61526 10.0962C3.76147 10.0889 3.9121 10.0865 4.04944 10.0733C4.10704 10.0685 4.13364 10.042 4.18238 10.0264C4.27099 9.99633 4.34637 9.95302 4.46599 9.93859C4.66093 9.91694 4.90018 9.92535 5.01537 9.85919C5.08183 9.8207 5.18369 9.77981 5.30775 9.7774C5.65333 9.77259 5.79954 9.70642 5.97676 9.64387C6.10967 9.59695 6.39323 9.62102 6.53944 9.5741C6.63691 9.54403 6.70784 9.50673 6.80532 9.47786C6.84519 9.46583 6.92934 9.45983 6.9958 9.45622C7.3591 9.43817 7.72682 9.42494 8.09012 9.40569C8.14772 9.40208 8.20093 9.38405 8.24523 9.36961C8.33827 9.33834 8.3958 9.29502 8.511 9.27458C8.62619 9.25413 8.7901 9.25413 8.93188 9.24811C9.38822 9.23007 9.4237 9.23487 9.63193 9.13262C9.80029 9.04962 10.2124 9.10857 10.3497 9.01715C10.4295 8.96422 10.5756 8.92092 10.837 8.9149C11.2047 8.90648 11.568 8.88363 11.9358 8.86799C12.2636 8.85355 12.2592 8.85355 12.6137 8.74167C12.7732 8.69115 13.008 8.69838 13.2163 8.68875C13.4378 8.67913 13.6416 8.6647 13.7479 8.60455C13.8542 8.54561 14.0491 8.52635 14.2751 8.51793C14.4833 8.50951 14.7182 8.51554 14.8821 8.46742C15.2809 8.35194 15.2765 8.35073 15.5556 8.3387C15.9942 8.31945 16.4328 8.30021 16.8714 8.27976C17.1638 8.26652 17.4695 8.26412 17.7442 8.23766C17.9436 8.21841 18.0322 8.15105 18.1607 8.10414C18.524 8.08609 18.8873 8.06804 19.2506 8.0512C19.7601 8.02714 20.274 8.00549 20.7879 7.98264C21.0095 7.93693 21.0405 7.83588 21.4127 7.83107C21.6342 7.82866 21.8513 7.81303 22.0728 7.8034C22.4406 7.78656 22.8039 7.76491 23.1716 7.75649C23.4507 7.75047 23.4994 7.68551 23.6456 7.64461C23.6943 7.63018 23.7387 7.60973 23.7963 7.60612C24.3722 7.57244 24.9659 7.56523 25.5286 7.51591C25.5862 7.51109 25.6393 7.48583 25.6526 7.46779C25.6615 7.45816 25.5862 7.44013 25.5374 7.43171C25.4798 7.42208 25.4045 7.41246 25.3425 7.41486C23.5127 7.49546 21.683 7.57726 19.8532 7.65786C19.5962 7.66989 19.5962 7.66868 18.9715 7.801C18.9183 7.81182 18.8562 7.82385 18.7898 7.82746C18.4974 7.84189 18.2005 7.85032 17.9125 7.86837C17.6777 7.8828 17.4828 7.86835 17.3145 7.82505C17.1949 7.79377 17.0707 7.78416 16.9201 7.78656C16.7517 7.79017 16.641 7.80341 16.5436 7.83589C16.4151 7.88039 16.3486 7.93813 16.0783 7.95016C14.8334 8.00188 13.5883 8.05962 12.3478 8.11496C12.175 8.09812 12.0908 8.07286 12.1351 8.04278C12.1617 8.02474 12.2149 8.00068 12.2681 7.99828C12.7776 7.97302 13.2915 7.95137 13.801 7.92731C13.8719 7.9237 13.9694 7.92609 14.0092 7.91406C14.2042 7.85993 14.2751 7.77212 14.6429 7.76611C14.8555 7.7625 15.0726 7.74446 15.2764 7.72762C15.334 7.72281 15.3872 7.69754 15.4005 7.6795C15.4049 7.66988 15.334 7.65183 15.2808 7.64341C15.0859 7.60852 14.86 7.65064 14.665 7.62658C14.5986 7.61816 14.5055 7.60612 14.4922 7.59169C14.4833 7.57846 14.5587 7.5568 14.6118 7.54357C14.6606 7.53154 14.727 7.52072 14.7934 7.51711C15.3783 7.48944 15.9632 7.46057 16.548 7.43892C16.7873 7.4305 16.9556 7.40042 17.0619 7.34509C17.1417 7.30419 17.2391 7.28254 17.3898 7.27653C18.4132 7.23202 19.4366 7.1827 20.4645 7.1418C20.7215 7.13217 20.8545 7.09248 20.9608 7.04076C21.045 6.99986 21.1424 6.98542 21.3064 6.9782C22.7729 6.91565 24.2305 6.84588 25.697 6.78574C25.9672 6.77491 26.047 6.72319 26.1844 6.67868C26.2331 6.66304 26.264 6.64379 26.3261 6.63417C26.3881 6.62455 26.4678 6.62574 26.5432 6.62333C27.7128 6.57161 28.8826 6.51628 30.0566 6.46817C30.3313 6.45734 30.3844 6.39719 30.5262 6.35508C30.5749 6.34185 30.6193 6.32021 30.6769 6.3166C31.5541 6.2757 32.4313 6.2372 33.3086 6.19751C33.8934 6.17104 34.4782 6.14458 35.063 6.11932C35.351 6.10729 35.351 6.10608 35.7409 5.9918C35.7852 5.97857 35.8473 5.96293 35.9049 5.95932C37.5885 5.88233 39.2676 5.80897 40.9512 5.73318C41.093 5.72717 41.1949 5.69949 41.2657 5.65859C41.3366 5.61769 41.4386 5.59002 41.576 5.58401C42.8918 5.52386 44.2077 5.46492 45.528 5.40838C45.7672 5.39876 45.9355 5.36989 46.0419 5.31576C46.1216 5.27486 46.2191 5.25321 46.3697 5.2472C47.6856 5.18946 49.0015 5.1281 50.3218 5.07277C50.5743 5.06194 50.6983 5.02104 50.8224 4.97293C50.8667 4.95609 50.9022 4.92842 50.9553 4.92601C51.611 4.89233 52.2623 4.85744 52.9225 4.83459C53.1971 4.82497 53.2902 4.77444 53.401 4.72632C53.4896 4.68783 53.5915 4.6746 53.7599 4.66979C54.1276 4.65896 54.4909 4.63852 54.8498 4.61807C54.9029 4.61446 54.9694 4.588 54.9738 4.57116C54.9827 4.53988 54.8808 4.51822 54.7124 4.5074C52.9579 4.58559 51.1991 4.66377 49.4446 4.74196C49.1566 4.75519 49.1566 4.7552 48.7667 4.86948C48.7224 4.88271 48.6603 4.89835 48.5983 4.90196C46.9147 4.97774 45.2356 5.05233 43.552 5.12811C43.4102 5.13412 43.3083 5.16179 43.2374 5.20269C43.1665 5.24359 43.0645 5.27126 42.9272 5.27727C41.3189 5.34945 39.7107 5.42283 38.098 5.49139C37.8587 5.50102 37.6904 5.52867 37.5841 5.58401C37.5043 5.62491 37.4069 5.64657 37.2562 5.65258C35.7188 5.71994 34.1858 5.79091 32.644 5.85587C32.4889 5.86188 32.3738 5.827 32.3827 5.79452C32.3871 5.77768 32.4534 5.75002 32.5066 5.74762C33.3085 5.70792 34.1061 5.66702 34.9125 5.63694C35.1827 5.62732 35.2624 5.57439 35.3998 5.52988C35.4441 5.51424 35.4795 5.49379 35.5371 5.48537C35.5992 5.47575 35.6789 5.47696 35.7542 5.47455C37.6549 5.38914 39.5557 5.30254 41.4608 5.22194C41.7355 5.20991 41.7885 5.15096 41.9303 5.10886C41.9791 5.09442 42.0234 5.07278 42.081 5.07037C42.6658 5.0415 43.2506 5.01624 43.8355 4.99097C44.8589 4.94526 45.8823 4.89955 46.9102 4.85384C47.2071 4.84061 47.2071 4.8406 47.5881 4.72753C47.6324 4.7143 47.6945 4.69747 47.7521 4.69506C50.4591 4.57357 53.1662 4.45207 55.8732 4.33178C56.015 4.32576 56.1169 4.2981 56.1878 4.2572C56.2587 4.2175 56.3606 4.18863 56.4979 4.18141C60.1575 4.01781 63.8127 3.85421 67.4723 3.69302C67.7115 3.68219 67.8799 3.65693 67.9862 3.60039C68.0615 3.55949 68.1634 3.53784 68.314 3.53063C72.337 3.35139 76.3599 3.17216 80.3872 2.99172C83.0942 2.87143 85.8013 2.74873 88.5084 2.63084C88.7565 2.62002 88.8893 2.58272 89.0134 2.5334C89.0533 2.51656 89.0932 2.48889 89.1463 2.48648C89.7267 2.45641 90.3071 2.42875 90.8875 2.40108C91.0691 2.43356 91.2508 2.46484 91.4324 2.49732C91.5698 2.45161 91.7028 2.40469 91.8401 2.35898C92.7174 2.3241 93.5813 2.26997 94.4674 2.25312C94.525 2.25192 94.587 2.27478 94.649 2.28681C95.061 2.36259 95.2959 2.35658 95.5573 2.25553C95.6503 2.21945 95.73 2.18697 95.8718 2.18095C96.3104 2.1593 96.7536 2.14486 97.1878 2.1196C97.4226 2.10637 97.6175 2.1184 97.7858 2.1617C97.9055 2.19298 98.0296 2.20622 98.1758 2.199C98.9821 2.16291 99.784 2.12802 100.59 2.08953C100.648 2.08712 100.701 2.06667 100.745 2.05223C100.838 2.02096 100.918 1.98728 101.007 1.9548C101.126 1.97525 101.259 1.99089 101.357 2.01736C101.481 2.04863 101.596 2.04863 101.764 2.04021C104.981 1.89465 108.202 1.75271 111.419 1.60595C111.693 1.59392 111.813 1.64445 111.999 1.67091C112.061 1.68054 112.123 1.69256 112.189 1.69497C112.26 1.69737 112.336 1.69016 112.407 1.68655C114.821 1.57829 117.236 1.47122 119.65 1.36296C119.969 1.34852 119.969 1.34852 120.444 1.42311C120.501 1.43273 120.576 1.44356 120.638 1.43995C121.737 1.39303 122.836 1.34252 123.93 1.2944C124.072 1.28839 124.192 1.30763 124.32 1.3353C124.573 1.38943 124.59 1.38943 124.776 1.31004C124.865 1.27275 124.958 1.24988 125.104 1.23906C125.264 1.22703 125.392 1.23065 125.516 1.2523C125.694 1.28237 125.822 1.33289 126.092 1.31966C127.262 1.26312 128.436 1.21621 129.601 1.15847C129.867 1.14524 130.009 1.18613 130.186 1.21621C130.248 1.22703 130.306 1.24388 130.372 1.24748C130.439 1.25109 130.518 1.24266 130.589 1.23906C132.051 1.1741 133.518 1.11035 134.976 1.04059C135.25 1.02735 135.37 1.07907 135.556 1.10553C135.618 1.11516 135.689 1.13201 135.746 1.1296C136.624 1.09231 137.505 1.0526 138.383 1.01291C138.697 0.998471 138.697 0.999674 139.176 1.07305C139.233 1.08268 139.309 1.0923 139.371 1.08989C140.394 1.04539 141.422 0.999675 142.445 0.953964C142.76 0.939529 142.76 0.939532 143.668 1.00208C143.735 1.0069 143.806 1.01412 143.872 1.01172C145.042 0.959991 146.216 0.909461 147.385 0.854127C147.62 0.8433 147.815 0.852921 147.984 0.896226C148.103 0.927502 148.227 0.940741 148.373 0.933524C149.689 0.87458 151.01 0.818045 152.321 0.755494C152.574 0.743464 152.737 0.769918 152.915 0.804803C152.972 0.816832 153.03 0.833676 153.096 0.838488C153.163 0.8433 153.238 0.838485 153.309 0.834876C154.625 0.775933 155.945 0.720601 157.257 0.656846C157.522 0.643614 157.664 0.684511 157.841 0.714584C157.903 0.72541 157.97 0.747064 158.023 0.745861C158.537 0.725411 159.051 0.707374 159.56 0.677301C159.835 0.66046 159.955 0.715784 160.141 0.742249C160.203 0.750669 160.274 0.768722 160.331 0.766316C161.43 0.719402 162.529 0.670086 163.623 0.619563C163.778 0.612345 163.894 0.623162 164.018 0.654438C164.181 0.69654 164.372 0.713381 164.611 0.700149C165.121 0.672482 165.635 0.653241 166.149 0.630385C166.45 0.617153 166.45 0.617157 167.371 0.679709C167.438 0.684521 167.509 0.691733 167.575 0.689327C168.453 0.650834 169.334 0.613545 170.207 0.571443C170.442 0.559414 170.637 0.570237 170.805 0.613542C170.925 0.644818 171.044 0.658058 171.195 0.65084C172.001 0.614752 172.803 0.578662 173.61 0.542574C173.902 0.529342 174.195 0.506481 174.487 0.506481C174.7 0.507684 174.855 0.565421 175.045 0.594292C175.098 0.602712 175.187 0.5931 175.258 0.590694C176.281 0.544983 177.309 0.502877 178.328 0.451151C178.594 0.437919 178.736 0.478816 178.913 0.508889C178.975 0.519715 179.041 0.541369 179.095 0.540166C179.462 0.526934 179.826 0.508888 180.193 0.49325C180.632 0.474004 181.075 0.459568 181.509 0.433104C181.864 0.411452 181.997 0.516102 182.28 0.519711C182.497 0.52332 182.719 0.502874 182.936 0.49325C183.374 0.474004 183.813 0.452353 184.252 0.435512C184.407 0.429498 184.526 0.410243 184.575 0.366938C184.584 0.358517 184.509 0.340481 184.46 0.329655C183.871 0.206957 183.871 0.206951 183.277 0.233415C182.909 0.250256 182.546 0.2671 182.178 0.281535C182.116 0.283941 182.045 0.274318 181.983 0.2671C181.806 0.246651 181.824 0.222595 181.974 0.17929C182.125 0.135984 182.24 0.0830606 182.369 0.0337408C182.55 0.0650168 182.728 0.0962816 182.909 0.127558C183.056 0.121543 183.202 0.114336 183.348 0.108321C184.079 0.0770454 184.81 0.0445642 185.541 0.0156941C185.594 0.0132882 185.661 0.0373502 185.723 0.0493794C185.9 0.0842641 186.059 0.114329 186.316 0.101097C186.972 0.0662121 187.632 0.0409507 188.288 0.0108777C188.576 -0.00235445 188.576 -0.00235328 189.081 0.0722278C189.139 0.0806483 189.214 0.0902722 189.276 0.0878664C189.936 0.0601992 190.592 0.0301297 191.252 0.0012596C191.394 -0.00475501 191.531 0.0108824 191.633 0.0457671C191.673 0.0602022 191.664 0.0842559 191.832 0.281535C192.355 0.441523 192.714 0.424691 193.077 0.410256C193.232 0.404241 193.37 0.398221 193.472 0.374162C193.525 0.36093 193.591 0.34168 193.591 0.326042C193.591 0.314013 193.494 0.294763 193.432 0.292357C192.993 0.268299 192.577 0.318828 192.147 0.329655C191.948 0.334466 191.775 0.292364 191.739 0.223797C191.73 0.20455 191.717 0.184102 191.704 0.164855C191.691 0.145608 191.682 0.12516 191.668 0.105913C191.496 0.0998986 191.394 0.121548 191.318 0.162447C191.256 0.196129 191.168 0.234622 191.048 0.252666C190.928 0.271913 190.765 0.26831 190.618 0.274325C190.477 0.28034 190.322 0.295976 190.189 0.287555C190.056 0.277932 189.949 0.243041 189.825 0.221389C189.768 0.210563 189.697 0.194931 189.639 0.197336C189.13 0.217786 188.625 0.238228 188.12 0.264692C187.854 0.279127 187.721 0.228612 187.552 0.197336C187.42 0.173278 187.287 0.179285 187.264 0.234619C187.207 0.366941 187.411 0.422272 187.863 0.397011C188.235 0.375358 188.572 0.371761 188.864 0.453559C188.904 0.464385 188.997 0.469195 189.054 0.46679C189.418 0.452354 189.777 0.434309 190.14 0.419874C190.206 0.417468 190.277 0.422272 190.339 0.427084C191.243 0.492041 191.243 0.493251 191.549 0.478816C191.695 0.471598 191.837 0.465583 191.823 0.282739C192.103 0.0866629 192.546 0.0734331 192.975 0.044563C193.255 0.0265192 193.374 0.0794501 193.556 0.107117C193.618 0.116741 193.684 0.135984 193.742 0.133578C194.694 0.0938816 195.643 0.0517735 196.591 0.00726539C196.75 4.7864e-05 196.865 0.00726657 196.989 0.0385425C197.149 0.0782389 197.326 0.103506 197.579 0.0890705C198.084 0.0602004 198.598 0.0421607 199.112 0.0181023C199.373 0.00607304 199.373 0.00606071 199.9 0.0806418C199.958 0.0890623 200.033 0.0986862 200.095 0.0962804C200.609 0.0758307 201.119 0.050577 201.628 0.0289244C201.77 0.0229098 201.898 0.039749 202.009 0.0722278C202.12 0.104707 202.253 0.121546 202.39 0.115531C202.904 0.0938787 203.414 0.0698279 203.923 0.0481753C203.985 0.0457694 204.061 0.0541893 204.118 0.0626098C204.659 0.137191 204.659 0.137179 204.907 0.125149C205.27 0.107106 205.642 0.0986945 206.001 0.074636C206.351 0.0505776 206.533 0.120341 206.772 0.158835C207.428 0.131167 208.088 0.108318 208.739 0.074636C209.005 0.060201 209.147 0.0998939 209.324 0.13117C209.386 0.141996 209.448 0.164854 209.506 0.163651C209.727 0.158839 209.944 0.14561 210.161 0.135986C210.379 0.126363 210.6 0.116741 210.817 0.107117C211.065 0.142002 211.229 0.223799 211.584 0.196132C211.796 0.179291 212.022 0.175683 212.239 0.166059C212.456 0.156436 212.678 0.146814 212.895 0.13719C213.041 0.131176 213.192 0.127562 213.334 0.116735C213.595 0.0986915 213.724 0.157642 213.91 0.184106C213.972 0.192526 214.042 0.206952 214.1 0.204546C214.539 0.187705 214.982 0.173271 215.412 0.145604C215.744 0.123952 215.97 0.160044 216.205 0.210567C216.253 0.221393 216.337 0.227407 216.4 0.225001C216.913 0.204552 217.423 0.179283 217.932 0.157631C218.07 0.151616 218.203 0.170862 218.314 0.202138C218.429 0.234617 218.557 0.250267 218.699 0.244252C219.208 0.222599 219.722 0.198534 220.232 0.176881C220.294 0.174476 220.369 0.184101 220.427 0.193724C220.923 0.268305 220.923 0.269509 221.216 0.255074C221.286 0.251465 221.362 0.24905 221.433 0.245441C221.796 0.228601 222.173 0.222594 222.527 0.193724C222.935 0.161245 223.231 0.202146 223.519 0.270713C223.883 0.256278 224.255 0.247856 224.609 0.223797C224.875 0.205753 225.017 0.251462 225.194 0.281535C225.256 0.292361 225.323 0.314014 225.376 0.311608C225.89 0.291158 226.404 0.273121 226.909 0.243048C227.183 0.226207 227.303 0.280329 227.489 0.307996C227.551 0.317619 227.618 0.334469 227.675 0.332063C227.968 0.32244 228.26 0.307997 228.552 0.294765C228.894 0.279127 228.894 0.280329 229.345 0.353707C229.558 0.388592 229.771 0.360924 229.979 0.352503C230.201 0.34288 230.409 0.335665 230.586 0.384984C230.697 0.41626 230.83 0.435508 230.967 0.430696C231.26 0.41987 231.556 0.409049 231.844 0.391005C232.075 0.37657 232.274 0.386188 232.442 0.430696C232.562 0.461972 232.686 0.477619 232.832 0.470402C233.488 0.441532 234.148 0.411448 234.804 0.38378C234.861 0.381374 234.941 0.392205 234.994 0.403031C235.118 0.424684 235.238 0.448737 235.358 0.472795C235.646 0.461969 235.943 0.45717 236.226 0.440329C236.527 0.423488 236.802 0.417472 237.037 0.483632C237.086 0.498067 237.156 0.518506 237.214 0.517303C237.436 0.512491 237.653 0.500466 237.87 0.490842C238.087 0.481219 238.308 0.471597 238.525 0.461973C238.778 0.492046 238.938 0.578655 239.292 0.550988C239.505 0.534147 239.731 0.530538 239.948 0.520915C240.165 0.511292 240.386 0.500467 240.603 0.492046C240.674 0.48964 240.754 0.483622 240.816 0.488434C240.883 0.493246 240.94 0.51009 240.998 0.522119C241.175 0.557004 241.339 0.591893 241.591 0.571443C241.804 0.554602 242.03 0.550992 242.247 0.540166C242.544 0.526934 242.544 0.526936 243.036 0.60272C243.235 0.633996 243.461 0.593099 243.652 0.619563C243.78 0.637607 243.891 0.667673 244.015 0.688123C244.068 0.696543 244.152 0.700147 244.214 0.697741C244.507 0.686915 244.804 0.676094 245.092 0.65805C245.326 0.643615 245.521 0.658048 245.685 0.701353C245.805 0.732629 245.924 0.745869 246.075 0.738651C246.806 0.704969 247.537 0.67609 248.264 0.638799C248.512 0.625567 248.711 0.646022 248.849 0.689327C249.083 0.763908 249.416 0.676097 249.659 0.736243C249.81 0.773533 249.961 0.816841 250.235 0.798797C250.74 0.767521 251.254 0.750671 251.764 0.729018C251.946 0.761497 252.127 0.793983 252.313 0.826462C252.606 0.81323 252.898 0.799989 253.191 0.78796C253.408 0.778337 253.629 0.767512 253.846 0.759091C253.917 0.756685 253.992 0.751872 254.059 0.757887C254.125 0.763902 254.179 0.779543 254.241 0.791572C254.546 0.850516 254.546 0.851724 255.051 0.827666C255.268 0.81684 255.477 0.809622 255.658 0.857739C255.827 0.902247 256.026 0.910662 256.256 0.89743C256.691 0.873372 257.129 0.855329 257.572 0.838488C257.71 0.832474 257.838 0.852924 257.953 0.8842C258.126 0.933519 258.339 0.928709 258.556 0.915477C258.844 0.898636 259.127 0.881799 259.371 0.949162C259.42 0.963597 259.495 0.984036 259.548 0.982833C259.912 0.973209 260.279 0.965997 260.634 0.943142C260.988 0.920286 261.161 0.994865 261.405 1.03095C261.768 1.01531 262.136 0.999675 262.499 0.984037C262.57 0.980428 262.654 0.969608 262.716 0.975623C262.978 1.00088 263.128 1.0911 263.487 1.06343C263.695 1.0478 263.921 1.04299 264.138 1.03938C264.196 1.03818 264.271 1.05862 264.311 1.07426C264.333 1.08268 264.311 1.10553 264.285 1.11756C264.205 1.15124 264.107 1.18253 264.036 1.21741C264.028 1.22222 264.112 1.24387 264.16 1.25349C264.28 1.27514 264.417 1.27154 264.577 1.26192C264.714 1.2535 264.856 1.27034 264.954 1.30643C264.993 1.32086 264.98 1.34492 264.896 1.42431C264.896 1.48325 264.989 1.45678 265.02 1.41829C265.069 1.36296 264.976 1.34491 264.798 1.37499C264.674 1.39664 264.612 1.42792 264.643 1.45318C264.661 1.46641 264.745 1.48325 264.896 1.42431C265.286 1.35213 265.578 1.33891 265.871 1.32568C265.946 1.32207 266.035 1.31003 266.088 1.31725C266.278 1.34612 266.456 1.38101 266.642 1.41349C266.854 1.40627 267.054 1.38822 267.262 1.43513C267.554 1.50129 267.568 1.49528 267.851 1.48205C267.997 1.47483 268.144 1.46883 268.29 1.46281C268.436 1.4568 268.551 1.47484 268.68 1.5025C268.941 1.55904 268.963 1.55904 269.136 1.48205C269.238 1.43513 269.309 1.4195 269.437 1.44115C269.862 1.51453 269.867 1.51934 270.23 1.49769C270.532 1.47964 270.815 1.47483 271.037 1.5434C271.187 1.59152 271.236 1.58069 271.356 1.53017C271.675 1.39664 271.821 1.39904 272.419 1.49528C272.698 1.54099 272.986 1.49168 273.27 1.48566C273.509 1.48085 273.677 1.50971 273.695 1.5855C273.708 1.63241 273.748 1.6661 273.908 1.68174C273.97 1.68775 274.045 1.69617 274.107 1.69376C274.475 1.67933 274.838 1.66248 275.206 1.64564C275.392 1.63722 275.494 1.5807 275.458 1.50612C275.418 1.42672 275.489 1.39784 275.755 1.37499C275.915 1.36175 276.043 1.36417 276.172 1.38582C276.313 1.40988 276.273 1.43153 276.149 1.47484C275.853 1.5807 275.888 1.64564 276.269 1.71902C276.402 1.74428 276.508 1.76715 276.539 1.80444C276.557 1.82368 276.539 1.84894 276.579 1.86338C276.796 1.94398 277.098 1.99571 277.434 2.0342C277.758 2.00172 277.979 2.05584 278.227 2.09915C278.422 2.13283 278.653 2.10397 278.861 2.09194C279.096 2.07871 279.291 2.08832 279.459 2.13283C279.579 2.16411 279.703 2.17854 279.849 2.17252C280.141 2.15929 280.438 2.15088 280.726 2.13163C280.974 2.11479 281.16 2.13885 281.315 2.17975C281.51 2.23147 281.727 2.19658 281.931 2.2038C282.206 2.21222 282.343 2.31928 282.702 2.29041C282.915 2.27357 283.136 2.26755 283.358 2.26274C283.415 2.26154 283.486 2.28199 283.535 2.29643C283.77 2.36259 284.045 2.35898 284.346 2.33973C284.554 2.3265 284.758 2.31448 284.962 2.36019C285.298 2.43717 285.671 2.50454 286.025 2.57551C286.074 2.63085 286.038 2.69579 286.291 2.72827C286.424 2.74511 286.548 2.77038 286.65 2.79805C286.774 2.83053 286.889 2.83895 287.048 2.83053C287.336 2.81369 287.638 2.81007 287.921 2.78842C288.183 2.76917 288.347 2.80888 288.506 2.84617C288.635 2.87624 288.754 2.89067 288.909 2.86902C289.069 2.84857 289.184 2.8618 289.312 2.89428C289.494 2.93878 289.507 2.93398 290.11 2.94721C290.172 2.94842 290.247 2.96645 290.283 2.98209C290.3 2.99051 290.261 3.01458 290.23 3.02661C290.19 3.04104 290.128 3.05788 290.07 3.06148C289.414 3.09276 288.754 3.12043 288.099 3.1517C288.032 3.15531 287.961 3.16374 287.912 3.17577C287.859 3.189 287.793 3.20703 287.793 3.22388C287.793 3.2359 287.881 3.25034 287.943 3.25877C288.138 3.28643 288.369 3.24433 288.559 3.27561C288.688 3.29606 288.794 3.32492 288.923 3.34417C288.976 3.35259 289.06 3.35139 289.126 3.34898C289.348 3.34056 289.565 3.32854 289.787 3.32132C289.849 3.32012 289.919 3.33215 289.977 3.34177C290.402 3.41395 290.402 3.41395 290.77 3.39831C290.916 3.39229 291.071 3.37425 291.209 3.38147C291.342 3.38868 291.457 3.42116 291.577 3.44161C291.825 3.48492 292.059 3.52702 292.077 3.62085C292.086 3.65693 292.232 3.6882 292.378 3.69061C292.52 3.69302 292.671 3.6798 292.817 3.67258C293.163 3.65814 293.163 3.65814 293.61 3.73152C293.734 3.75197 293.867 3.75437 294.026 3.74234C294.089 3.73753 294.164 3.74235 294.23 3.74836C294.447 3.76641 294.447 3.78926 294.306 3.83256C294.106 3.89632 294.124 3.90233 294.682 3.95647C294.895 3.97692 295.059 4.01541 295.236 4.04909C295.524 4.10322 295.52 4.10321 295.329 4.17419C295.285 4.18982 295.245 4.20667 295.201 4.22351C295.072 4.27042 294.97 4.32094 294.704 4.32576C294.412 4.33057 294.12 4.34982 293.827 4.36305C293.544 4.37629 293.468 4.40514 293.495 4.48694C293.526 4.58558 293.584 4.59641 294.093 4.59521C294.239 4.59521 294.368 4.60483 294.478 4.63731C294.425 4.6758 294.328 4.70588 294.186 4.71309C293.823 4.73114 293.455 4.74678 293.092 4.76242C292.799 4.77565 292.507 4.78888 292.214 4.80211C292.033 4.81053 291.918 4.87309 291.966 4.94285C291.993 4.98255 292.015 5.02225 292.037 5.06194C292.086 5.14134 292.179 5.16179 292.476 5.15818C292.551 5.15698 292.622 5.14735 292.693 5.14975C292.981 5.15817 293.118 5.25801 293.464 5.23756C293.752 5.22072 294.053 5.21712 294.337 5.19547C294.598 5.17622 294.744 5.21953 294.926 5.25201C294.988 5.26284 295.054 5.28568 295.108 5.28448C295.475 5.27125 295.843 5.25803 296.202 5.23517C296.37 5.22555 296.472 5.23276 296.605 5.26163C296.924 5.3314 296.933 5.32779 297.407 5.30614C297.753 5.2893 297.757 5.2917 298.2 5.36508C298.324 5.38553 298.457 5.38553 298.617 5.3759C298.825 5.36387 299.042 5.34463 299.259 5.36267C299.325 5.36749 299.41 5.38192 299.432 5.39756C299.445 5.40839 299.383 5.43485 299.33 5.44327C298.94 5.50583 298.484 5.495 298.058 5.52026C297.925 5.52748 297.792 5.50462 297.682 5.47214C297.566 5.43966 297.442 5.42644 297.292 5.43245C296.999 5.44568 296.703 5.4541 296.415 5.47335C296.167 5.49019 295.994 5.46252 295.821 5.42523C295.763 5.4132 295.697 5.39034 295.639 5.39154C294.984 5.4156 294.323 5.43967 293.672 5.47335C293.411 5.48778 293.26 5.44929 293.083 5.41681C293.021 5.40599 292.959 5.38313 292.901 5.38433C292.68 5.38914 292.463 5.40237 292.241 5.412C291.435 5.44808 290.633 5.48417 289.826 5.51785C289.773 5.52026 289.707 5.495 289.645 5.48417C289.525 5.46252 289.401 5.44206 289.277 5.42162C289.055 5.43124 288.838 5.44327 288.617 5.45048C288.457 5.4553 288.316 5.47214 288.293 5.51785C288.28 5.54793 288.426 5.57559 288.581 5.57318C288.732 5.57078 288.883 5.55634 289.007 5.57198C289.623 5.64897 289.623 5.65017 290.008 5.63453C290.345 5.6201 290.309 5.60807 290.606 5.67423C290.735 5.7031 290.85 5.71994 290.996 5.71273C291.359 5.69589 291.727 5.67904 292.095 5.66461C292.152 5.6622 292.228 5.67424 292.285 5.68386C292.72 5.75603 292.72 5.75844 293.078 5.74039C293.548 5.71874 293.566 5.71273 293.88 5.7861C294.097 5.83663 294.297 5.80174 294.505 5.79933C294.744 5.84625 295.006 5.88836 295.223 5.94129C295.48 6.00384 295.75 5.993 296.042 5.97496C296.259 5.96172 296.472 5.95691 296.649 6.00623C296.818 6.05194 297.022 6.05676 297.252 6.04473C297.46 6.03391 297.673 6.01105 297.89 6.03751C297.948 6.04473 298.036 6.06278 298.032 6.0736C298.027 6.09044 297.97 6.11451 297.912 6.12172C297.504 6.17104 297.057 6.16984 296.627 6.19269C296.57 6.1963 296.494 6.18306 296.437 6.17344C296.313 6.15179 296.193 6.12653 296.073 6.10368C295.856 6.11089 295.635 6.11329 295.422 6.12773C295.258 6.13856 295.134 6.13736 295.014 6.10849C294.904 6.08203 294.784 6.04954 294.651 6.04112C294.518 6.0327 294.363 6.05075 294.217 6.05797C294.071 6.06518 293.903 6.06157 293.787 6.08081C293.672 6.10006 293.601 6.14217 293.526 6.17585C293.442 6.21314 293.327 6.22518 293.158 6.22879C293.003 6.23239 292.879 6.22758 292.764 6.1939C292.715 6.17946 292.649 6.16863 292.582 6.15901C292.52 6.15059 292.449 6.13735 292.392 6.13976C291.732 6.16742 291.076 6.19751 290.416 6.22638C290.088 6.24081 290.092 6.2408 289.41 6.16983C289.348 6.16381 289.273 6.1554 289.211 6.1578C288.843 6.17224 288.48 6.18908 288.112 6.20592C287.74 6.22276 287.744 6.22036 287.111 6.14457C286.995 6.13014 286.827 6.14939 286.69 6.14698C286.402 6.14097 286.26 6.03992 285.923 6.05917C285.635 6.07601 285.334 6.07962 285.046 6.10127C284.784 6.12052 284.634 6.07842 284.457 6.04594C284.395 6.03511 284.328 6.01105 284.275 6.01346C283.615 6.03992 282.959 6.06999 282.082 6.0736C281.865 6.0736 281.962 6.09887 282.104 6.10729C282.308 6.12052 282.374 6.09526 282.264 6.04714C282.184 6.01346 282.069 5.99661 281.976 6.00503C281.927 6.00984 281.865 6.0327 282.082 6.0736C282.312 6.11931 282.299 6.14457 282.339 6.15901C282.436 6.19389 282.574 6.20833 282.715 6.20351C282.937 6.19509 283.154 6.18307 283.376 6.17585C283.438 6.17344 283.513 6.18186 283.571 6.19149C284.058 6.26607 284.062 6.27089 284.581 6.24202C284.745 6.2336 284.864 6.23359 284.993 6.25645C285.17 6.28773 285.298 6.34065 285.569 6.32381C285.928 6.30095 286.295 6.28773 286.663 6.2745C286.721 6.27209 286.783 6.29374 286.849 6.30337C287.031 6.33224 287.164 6.38637 287.434 6.36351C287.642 6.34547 287.868 6.34065 288.09 6.33704C288.147 6.33583 288.236 6.35508 288.262 6.37072C288.316 6.39839 288.249 6.43088 288.099 6.45373C288.036 6.46335 287.952 6.46094 287.881 6.46455C287.589 6.47779 287.297 6.49221 287.004 6.50304C286.849 6.50905 286.703 6.52711 286.685 6.57162C286.672 6.60169 286.831 6.62815 286.982 6.62574C287.204 6.62213 287.425 6.61251 287.638 6.59687C288.014 6.57041 288.342 6.57762 288.648 6.65341C288.865 6.70633 288.852 6.6871 289.082 6.84348C289.14 6.88317 289.313 6.88678 289.463 6.88437C289.826 6.87836 289.995 6.8964 289.964 6.9337C289.924 6.97941 289.795 6.99383 289.631 6.99985C289.339 7.00947 289.047 7.02512 288.754 7.03835C288.683 7.04196 288.604 7.04917 288.537 7.04676C288.471 7.04436 288.409 7.02992 288.351 7.0191C288.227 6.99624 288.121 6.96135 287.988 6.95293C287.855 6.94451 287.7 6.96256 287.554 6.96977C287.407 6.97579 287.252 6.99383 287.119 6.98541C286.986 6.97699 286.876 6.94091 286.756 6.91926C286.698 6.90843 286.628 6.89158 286.57 6.89279C286.278 6.90241 285.985 6.91805 285.693 6.93008C285.334 6.94572 285.334 6.94572 284.9 6.87114C284.776 6.84949 284.647 6.8507 284.483 6.86032C284.129 6.87957 284.124 6.87595 283.478 6.80618C283.415 6.79896 283.34 6.79054 283.278 6.79415C282.618 6.82182 281.962 6.85189 281.307 6.88076C280.744 6.90602 280.744 6.90603 280.434 7.02632C280.203 7.11534 280.199 7.11533 280.425 7.15623C280.607 7.18991 280.77 7.23923 280.97 7.25727C281.156 7.27412 281.386 7.21999 281.59 7.27532C281.692 7.30299 281.825 7.33306 281.953 7.33788C282.157 7.34389 282.374 7.309 282.569 7.36193C282.667 7.38839 282.813 7.41607 282.937 7.41727C283.154 7.41968 283.376 7.40042 283.593 7.392C283.659 7.3896 283.734 7.3896 283.797 7.39561C283.863 7.40283 283.921 7.41727 283.978 7.4293C284.155 7.4702 284.346 7.48944 284.576 7.46899C284.953 7.43531 285.29 7.45215 285.582 7.52914C285.622 7.53996 285.719 7.54117 285.781 7.53636C285.941 7.52433 286.078 7.52312 286.198 7.54598C286.247 7.5556 286.317 7.57243 286.309 7.58326C286.295 7.60131 286.242 7.62537 286.185 7.63138C285.768 7.67228 285.321 7.6771 284.891 7.69875C284.833 7.70116 284.762 7.68551 284.705 7.67468C284.581 7.65303 284.474 7.61695 284.341 7.60853C284.209 7.60011 284.053 7.61575 283.907 7.62176C283.761 7.62778 283.606 7.64582 283.473 7.63861C283.34 7.63019 283.216 7.60011 283.11 7.57364C282.986 7.54357 282.866 7.53997 282.702 7.552C282.49 7.56764 282.268 7.57004 282.051 7.57846C281.931 7.5556 281.812 7.53033 281.688 7.50868C281.63 7.49785 281.559 7.48463 281.497 7.48583C281.205 7.49546 280.912 7.50988 280.62 7.52312C280.327 7.53635 280.327 7.53636 279.831 7.46178C279.774 7.45336 279.698 7.44374 279.636 7.44614C279.268 7.46058 278.905 7.47861 278.537 7.49304C278.396 7.49906 278.267 7.48222 278.152 7.44974C278.041 7.41726 277.908 7.39922 277.771 7.40523C277.186 7.43049 276.601 7.45456 276.017 7.48463C275.782 7.49666 275.582 7.48583 275.423 7.44253C275.237 7.39321 275.029 7.40524 274.811 7.41486C274.32 7.43892 274.315 7.43771 274.001 7.37636C273.939 7.36433 273.877 7.34147 273.819 7.34268C273.309 7.36072 272.796 7.37757 272.29 7.40644C272.025 7.42207 271.883 7.37997 271.706 7.3487C271.644 7.33787 271.577 7.31501 271.524 7.31742C271.156 7.33065 270.788 7.34269 270.43 7.36674C270.071 7.3908 269.933 7.27893 269.663 7.28014C269.295 7.28134 268.932 7.30901 268.569 7.32585C268.276 7.33908 267.984 7.35231 267.692 7.36554C267.399 7.37877 267.107 7.38959 266.814 7.40523C266.659 7.41365 266.544 7.40282 266.416 7.37275C266.252 7.33305 266.057 7.30179 265.88 7.2657C265.609 7.21398 265.609 7.21397 265.281 7.22841C265.211 7.23201 265.135 7.23441 265.064 7.23802C264.528 7.26449 264.528 7.26209 263.846 7.18631C263.815 7.1827 263.735 7.19593 263.704 7.20556C263.611 7.23683 263.527 7.27051 263.443 7.30299C263.323 7.28374 263.177 7.27292 263.097 7.24525C262.871 7.16706 262.517 7.27412 262.286 7.19713C262.202 7.16826 262.056 7.143 261.923 7.13578C261.786 7.12856 261.631 7.1454 261.489 7.15262C261.121 7.17066 261.121 7.16947 260.807 7.27653C260.647 7.32945 260.417 7.31983 260.208 7.33185C259.991 7.34509 259.783 7.35231 259.601 7.30299C259.438 7.25848 259.238 7.24766 259.003 7.26209C258.715 7.28013 258.419 7.29096 258.126 7.30178C258.064 7.30419 257.989 7.29818 257.927 7.29096C257.249 7.21999 257.249 7.21879 256.921 7.23443C256.775 7.24164 256.624 7.24404 256.482 7.25487C256.243 7.27411 256.062 7.24885 255.889 7.21036C255.831 7.19833 255.765 7.17549 255.707 7.17669C255.415 7.1827 255.127 7.19353 254.839 7.20435C254.617 7.21277 254.396 7.21759 254.183 7.23443C253.828 7.26209 253.656 7.18389 253.412 7.1478C253.049 7.16344 252.681 7.17427 252.318 7.19592C252.149 7.20555 252.039 7.20195 251.91 7.17308C251.746 7.13699 251.596 7.09609 251.33 7.11413C250.975 7.13819 250.603 7.14661 250.24 7.16105C249.996 7.12376 249.819 7.04796 249.469 7.07563C249.256 7.09247 249.03 7.09608 248.813 7.1057C248.521 7.11894 248.228 7.13098 247.936 7.14541C247.621 7.15985 247.626 7.15624 247.143 7.08526C246.864 7.04316 246.576 7.09007 246.292 7.09729C246.071 7.10331 245.96 7.15864 246.013 7.22961C246.066 7.30058 245.947 7.35592 245.743 7.36554C245.233 7.3884 244.719 7.41245 244.21 7.4329C244.148 7.4353 244.073 7.42688 244.015 7.41846C243.47 7.34268 243.47 7.34389 243.226 7.35472C242.863 7.37276 242.491 7.38238 242.132 7.40523C241.884 7.42087 241.702 7.39562 241.543 7.35472C241.419 7.32344 241.303 7.31622 241.144 7.32344C239.389 7.40404 237.635 7.47862 235.885 7.56162C235.623 7.57365 235.473 7.53877 235.296 7.50629C235.234 7.49546 235.176 7.4726 235.114 7.4726C234.968 7.4726 234.822 7.48343 234.675 7.49065C234.02 7.51952 233.364 7.5544 232.704 7.57605C232.425 7.58567 232.349 7.64101 232.23 7.68673C232.137 7.72161 232.03 7.73604 231.867 7.74085C231.707 7.74566 231.592 7.73965 231.468 7.70837C231.308 7.66747 231.127 7.6422 230.878 7.65905C230.591 7.67829 230.298 7.68672 230.001 7.69996C229.851 7.70597 229.735 7.72762 229.687 7.77092C229.678 7.77814 229.771 7.79619 229.824 7.80702C230.001 7.8431 230.17 7.88521 230.369 7.91047C230.573 7.93573 230.794 7.90685 231.007 7.89963C231.082 7.89722 231.153 7.89001 231.224 7.89122C231.29 7.89242 231.37 7.89844 231.419 7.90926C231.649 7.96339 231.893 8.00068 232.212 7.9682C232.487 7.98384 232.629 8.08368 232.979 8.05722C233.191 8.04158 233.413 8.03436 233.634 8.02835C233.692 8.02715 233.754 8.0488 233.816 8.05963C233.993 8.0897 234.135 8.13782 234.401 8.11737C234.684 8.09571 234.986 8.09211 235.274 8.07527C235.433 8.06564 235.548 8.07406 235.672 8.10534C235.832 8.14504 236.013 8.1751 236.262 8.15585C236.474 8.13901 236.7 8.1354 236.917 8.12458C237.201 8.11134 237.201 8.11255 237.706 8.18713C237.763 8.19555 237.839 8.20517 237.901 8.20277C238.269 8.18833 238.632 8.17029 239 8.15585C239.141 8.14984 239.279 8.16547 239.376 8.20036C239.416 8.2148 239.403 8.23887 239.416 8.25932C238.685 8.2918 237.954 8.31946 237.227 8.35915C236.953 8.37479 236.829 8.32547 236.647 8.2978C236.585 8.28818 236.518 8.26773 236.461 8.27014C235.947 8.29059 235.437 8.31223 234.928 8.3387C234.768 8.34712 234.649 8.34231 234.529 8.30742C234.224 8.2148 233.851 8.26532 233.506 8.27855C233.24 8.28818 233.156 8.32547 233.187 8.40487C233.227 8.49869 233.386 8.52756 233.794 8.51072C233.94 8.50471 234.086 8.49628 234.232 8.49147C234.374 8.48666 234.503 8.5023 234.618 8.53478C234.729 8.56725 234.861 8.5841 234.999 8.57928C235.291 8.56846 235.588 8.55764 235.872 8.53959C236.106 8.52516 236.301 8.53718 236.465 8.58169C236.647 8.63101 236.86 8.62018 237.072 8.60936C237.569 8.5853 237.573 8.58651 237.883 8.64665C237.945 8.65868 238.007 8.68154 238.065 8.68034C238.574 8.6623 239.088 8.64666 239.589 8.61778C239.85 8.60335 240.001 8.64184 240.174 8.67311C240.236 8.68394 240.298 8.708 240.355 8.7056C240.723 8.69236 241.091 8.67913 241.45 8.65627C241.618 8.64545 241.72 8.65266 241.857 8.68153C242.185 8.7525 242.194 8.7501 242.659 8.72724C242.801 8.72002 242.956 8.70679 243.089 8.71642C243.222 8.72604 243.328 8.76093 243.452 8.78258C243.51 8.79221 243.581 8.80543 243.643 8.80302C243.935 8.7934 244.228 8.77897 244.52 8.76574C244.795 8.75251 244.795 8.75371 245.309 8.8283C245.517 8.85957 245.734 8.8331 245.942 8.82348C246.168 8.81265 246.372 8.81266 246.545 8.85957C246.718 8.90649 246.926 8.90407 247.147 8.89445C247.356 8.88482 247.568 8.85837 247.781 8.89085C248.268 8.96543 248.268 8.96662 248.57 8.95219C249.008 8.93174 249.442 8.91249 249.885 8.89445C249.943 8.89204 250.018 8.90648 250.076 8.91611C250.2 8.93776 250.306 8.97384 250.439 8.98226C250.572 8.99188 250.727 8.97745 250.869 8.97023C251.325 8.94738 251.356 8.93896 251.662 9.01835C251.919 9.08331 252.238 8.98948 252.477 9.06406C252.615 9.10617 252.801 9.13984 253.058 9.11939C253.27 9.10255 253.492 9.09774 253.713 9.08812C254.063 9.07248 254.063 9.07369 254.506 9.14587C254.564 9.15549 254.639 9.16751 254.697 9.1651C254.989 9.15548 255.286 9.14707 255.57 9.12541C255.902 9.10015 256.115 9.14587 256.363 9.19038C256.558 9.22526 256.788 9.19639 256.996 9.18436C257.222 9.17233 257.426 9.17593 257.594 9.22284C257.772 9.27096 257.98 9.26495 258.201 9.25532C258.41 9.2469 258.622 9.21923 258.835 9.25292C259.291 9.3275 259.291 9.3275 259.624 9.31306C259.916 9.29983 260.208 9.2854 260.501 9.27578C260.558 9.27337 260.629 9.28901 260.687 9.29983C260.811 9.32148 260.917 9.35758 261.05 9.366C261.183 9.37442 261.338 9.35878 261.484 9.35277C261.631 9.34675 261.786 9.32871 261.919 9.33593C262.052 9.34314 262.176 9.37322 262.282 9.39968C262.406 9.43096 262.521 9.43456 262.689 9.42253C262.902 9.40689 263.124 9.40329 263.341 9.39487C263.46 9.41772 263.584 9.44057 263.7 9.46584C263.819 9.4923 263.948 9.48989 264.112 9.48147C264.657 9.4526 264.661 9.45622 265.117 9.5308C265.326 9.56448 265.543 9.53681 265.751 9.52839C265.973 9.51877 266.181 9.51396 266.354 9.56207C266.522 9.60779 266.73 9.61379 266.952 9.59936C267.093 9.58974 267.244 9.58373 267.39 9.58012C267.457 9.57892 267.536 9.58373 267.585 9.59335C267.82 9.64388 268.05 9.68959 268.374 9.65711C268.657 9.66673 268.799 9.76537 269.14 9.74613C269.428 9.72928 269.73 9.72566 270.013 9.70401C270.275 9.68476 270.461 9.71846 270.594 9.76056C270.833 9.83514 271.17 9.7341 271.409 9.80748C271.546 9.84958 271.723 9.88326 271.989 9.86521C272.282 9.84597 272.375 9.87122 272.459 9.947C272.508 9.99031 272.499 10.0252 272.41 10.0589C272.322 10.0938 272.224 10.0878 272.082 10.0481C271.918 10.0036 271.723 9.99512 271.489 10.0047C271.258 10.0144 271.116 9.95183 270.926 9.92777C270.735 9.90251 270.509 9.94461 270.31 9.91213C269.84 9.83635 269.84 9.83634 269.521 9.85078C269.304 9.8604 269.078 9.86522 268.866 9.88206C268.613 9.90251 268.449 9.86521 268.276 9.83153C268.214 9.8195 268.152 9.79664 268.099 9.79784C267.59 9.81589 267.076 9.83273 266.571 9.86281C266.305 9.87844 266.163 9.83514 265.986 9.80507C265.924 9.79424 265.857 9.77259 265.804 9.77499C265.366 9.79184 264.931 9.81349 264.493 9.83394C264.409 9.86642 264.315 9.89769 264.236 9.93257C264.152 9.96866 264.036 9.9843 263.868 9.9831C263.589 9.9831 263.314 10.0336 263.035 9.96987C262.747 9.90491 262.725 9.90852 262.446 9.92416C262.091 9.9446 261.715 9.9398 261.383 9.98671C261.325 9.99513 261.263 10.018 261.263 10.0348C261.258 10.0456 261.352 10.0613 261.409 10.0709C261.604 10.0998 261.83 10.0577 262.025 10.0878C262.153 10.107 262.26 10.1359 262.388 10.1563C262.441 10.1647 262.521 10.1635 262.592 10.1623C262.667 10.1611 262.738 10.1527 262.809 10.1539C262.876 10.1551 262.947 10.1623 263 10.1732C263.243 10.2189 263.5 10.261 263.717 10.3151C263.93 10.368 264.129 10.3319 264.342 10.3295C265.193 10.4137 265.193 10.4149 265.764 10.3885C265.906 10.3825 266.052 10.3753 266.199 10.3765C266.261 10.3765 266.318 10.3981 266.38 10.4101C266.557 10.4462 266.726 10.4787 266.974 10.4594C267.187 10.4426 267.412 10.439 267.63 10.4282C267.922 10.4149 267.922 10.4149 268.418 10.4907C268.542 10.51 268.675 10.5076 268.835 10.498C268.972 10.4895 269.114 10.5076 269.211 10.5425C269.251 10.5569 269.238 10.581 269.251 10.6014C268.812 10.6206 268.369 10.6339 267.944 10.6628C267.669 10.6808 267.545 10.6291 267.364 10.6014C267.302 10.5918 267.235 10.5713 267.178 10.5737C266.743 10.5918 266.309 10.6122 265.875 10.6363C265.822 10.6387 265.755 10.6664 265.751 10.6832C265.742 10.7145 265.853 10.7445 266.012 10.7433C266.225 10.7421 266.433 10.7217 266.624 10.771C266.783 10.8143 266.983 10.8336 267.217 10.8143C267.359 10.8035 267.51 10.8035 267.652 10.7939C268.028 10.765 268.369 10.771 268.653 10.8528C268.87 10.8745 269.083 10.854 269.291 10.8432C269.446 10.8348 269.597 10.8263 269.707 10.8492C269.942 10.8973 270.173 10.9454 270.496 10.913C270.846 10.9466 271.112 11.0176 271.404 11.0753C271.542 11.103 271.648 11.1187 271.808 11.1006C271.874 11.0934 271.954 11.0934 272.025 11.0898C272.171 11.0838 272.326 11.0657 272.459 11.0729C272.592 11.0814 272.703 11.1162 272.822 11.1379C272.88 11.1487 272.946 11.1668 273.004 11.1656C273.225 11.1595 273.442 11.1475 273.659 11.1379C273.877 11.1295 274.094 11.1211 274.311 11.1126C274.492 11.1439 274.678 11.1752 274.86 11.2065C275.153 11.1932 275.445 11.18 275.733 11.168C276.056 11.1535 276.056 11.1547 276.522 11.2293C276.73 11.263 276.951 11.2413 277.151 11.2257C277.483 11.2004 277.705 11.2462 277.939 11.2943C277.988 11.3039 278.077 11.3099 278.134 11.3051C278.365 11.2883 278.564 11.3015 278.732 11.346C278.852 11.3773 278.972 11.3917 279.118 11.3857C279.627 11.3629 280.137 11.3388 280.646 11.3183C280.708 11.3159 280.779 11.3268 280.837 11.3364C281.289 11.4098 281.293 11.4134 281.625 11.3941C281.922 11.3773 282.197 11.3701 282.432 11.4362C282.481 11.4507 282.556 11.4711 282.609 11.4699C282.972 11.4579 283.34 11.4446 283.699 11.4242C283.863 11.4146 283.978 11.4182 284.107 11.4459C284.271 11.4807 284.417 11.5228 284.687 11.5072C285.436 11.4627 285.44 11.4699 286.326 11.5529C286.388 11.5589 286.473 11.5493 286.543 11.5445C286.694 11.5325 286.805 11.5493 286.938 11.577C287.235 11.6395 287.243 11.6359 287.527 11.6227C287.744 11.6119 287.97 11.6094 288.183 11.5914C288.511 11.5649 288.728 11.6119 288.971 11.6564C289.166 11.6912 289.392 11.6624 289.6 11.6515C289.826 11.6395 290.03 11.6431 290.199 11.6888C290.314 11.7201 290.438 11.737 290.584 11.7309C291.094 11.7093 291.603 11.6852 292.113 11.6636C292.175 11.6612 292.25 11.6708 292.308 11.6792C292.813 11.7538 292.813 11.7574 293.313 11.7297C293.473 11.7213 293.606 11.7189 293.725 11.7442C293.84 11.7682 293.965 11.7911 294.084 11.8139C294.301 11.8055 294.523 11.8031 294.735 11.7887C294.899 11.7779 295.015 11.7827 295.143 11.8079C295.311 11.8404 295.453 11.8969 295.719 11.8693C295.856 11.856 296.016 11.8597 296.153 11.8476C296.317 11.832 296.428 11.8416 296.556 11.8729C296.716 11.9102 296.88 11.9487 297.137 11.9294C297.42 11.9078 297.722 11.9042 298.01 11.8873C298.169 11.8777 298.28 11.8873 298.408 11.9186C298.568 11.9583 298.75 11.9836 298.998 11.9679C299.503 11.9378 299.507 11.9439 299.999 12.0196C300.123 12.0389 300.256 12.0365 300.415 12.0269C300.553 12.0184 300.694 12.0365 300.792 12.0714C300.885 12.1099 300.876 12.1339 300.885 12.1544ZM261.405 1.30522C261.258 1.31124 261.112 1.31845 260.9 1.2138C260.886 1.19576 260.895 1.17411 260.864 1.15847C260.793 1.12599 260.683 1.10314 260.55 1.09953C260.31 1.09472 260.022 1.13561 260.027 1.16688C260.031 1.19335 260.107 1.2162 260.253 1.23785C260.315 1.24627 260.364 1.26071 260.421 1.27033C260.589 1.298 260.722 1.35214 260.966 1.32447C260.922 1.24989 260.944 1.28718 260.966 1.32447C260.944 1.37018 261.01 1.40266 261.17 1.4159C261.214 1.41951 261.281 1.41709 261.316 1.40988C261.453 1.38341 261.476 1.34733 261.374 1.2523C261.356 1.26794 261.369 1.2956 261.409 1.30281C261.449 1.31003 261.546 1.30402 261.595 1.2956C261.719 1.27275 261.781 1.24267 261.75 1.21741C261.733 1.20418 261.648 1.18734 261.595 1.18734C261.502 1.18734 261.418 1.2138 261.405 1.30522ZM297.23 15.2555C296.906 15.2784 296.534 15.2699 296.211 15.3168C296.153 15.3253 296.096 15.3469 296.091 15.3638C296.087 15.3746 296.175 15.3902 296.229 15.3987C296.348 15.4179 296.481 15.4119 296.636 15.4059C296.871 15.3974 297.008 15.4528 297.19 15.4804C297.248 15.4889 297.323 15.4949 297.385 15.4925C297.744 15.478 298.098 15.4624 298.457 15.4456C298.519 15.442 298.586 15.4335 298.639 15.4227C298.816 15.3878 298.798 15.365 298.625 15.3385C298.435 15.3096 298.284 15.2615 298.089 15.2387C297.81 15.2062 297.527 15.2495 297.23 15.2555ZM272.069 16.1336C271.852 16.1433 271.639 16.1529 271.422 16.1625C271.351 16.1661 271.276 16.1673 271.209 16.1721C271.072 16.1805 270.97 16.2058 270.904 16.2455C271.006 16.2768 271.13 16.2948 271.267 16.2912C271.484 16.284 271.697 16.2684 271.914 16.2647C272.149 16.2599 272.286 16.3141 272.468 16.3417C272.525 16.3502 272.596 16.3514 272.663 16.3526C272.99 16.3574 273.19 16.2948 273.128 16.207C273.083 16.1384 272.915 16.0975 272.711 16.106C272.499 16.1144 272.282 16.124 272.069 16.1336ZM298.745 13.4776C298.798 13.4571 298.856 13.4427 298.882 13.4247C298.962 13.3633 298.931 13.3176 298.785 13.2695C298.608 13.2105 298.391 13.2502 298.191 13.2562C298.143 13.2574 298.089 13.2827 298.063 13.2983C298.045 13.3092 298.045 13.332 298.072 13.338C298.289 13.3862 298.519 13.4307 298.745 13.4776ZM260.31 9.92416C260.098 9.93378 259.881 9.941 259.668 9.95423C259.615 9.95784 259.566 9.98069 259.535 9.99633C259.477 10.0252 259.539 10.0649 259.721 10.0685C259.929 10.0733 260.146 10.0529 260.363 10.0432C260.638 10.0312 260.802 9.9867 260.7 9.94821C260.603 9.91092 260.47 9.90371 260.31 9.92416ZM27.0925 7.35351C27.2343 7.3475 27.3805 7.34268 27.5223 7.33426C27.6552 7.32584 27.7572 7.29938 27.8236 7.25968C27.7129 7.22841 27.5888 7.21157 27.4514 7.21518C27.2343 7.22239 27.0217 7.23201 26.809 7.24404C26.6761 7.25126 26.5477 7.27773 26.5167 7.31862C26.4856 7.3499 26.7824 7.36795 27.0925 7.35351ZM241.574 7.16826C241.631 7.17909 241.689 7.20074 241.746 7.20074C241.888 7.20074 242.035 7.19352 242.167 7.18149C242.225 7.17668 242.269 7.15503 242.296 7.13819C242.314 7.12736 242.309 7.10812 242.283 7.0985C242.154 7.04075 241.64 7.0612 241.556 7.12736C241.547 7.13939 241.569 7.15503 241.574 7.16826ZM227.595 0.581061C227.609 0.600308 227.613 0.619552 227.631 0.638799C227.666 0.674887 227.764 0.701356 227.906 0.7194C228.016 0.689327 228.074 0.655651 228.07 0.619563C228.065 0.600316 228.052 0.581057 228.034 0.56181C227.999 0.525723 227.901 0.499268 227.759 0.481224C227.649 0.510094 227.595 0.543771 227.595 0.581061ZM308.984 16.3429C308.944 16.3586 308.904 16.3742 308.86 16.3887C308.979 16.4235 309.09 16.4344 309.174 16.4151C309.228 16.4031 309.259 16.385 309.299 16.3694C309.179 16.3345 309.073 16.3249 308.984 16.3429ZM306.228 16.5065C306.286 16.5174 306.339 16.5318 306.401 16.539C306.503 16.551 306.596 16.5306 306.667 16.4873C306.609 16.4765 306.556 16.462 306.494 16.4548C306.392 16.4428 306.299 16.4632 306.228 16.5065ZM307.974 16.2864C307.943 16.3153 308.005 16.3393 308.169 16.3598C308.209 16.3441 308.262 16.3297 308.288 16.3129C308.333 16.2852 308.257 16.2599 308.098 16.2407C308.053 16.2551 308.014 16.2708 307.974 16.2864ZM298.621 14.9897C298.59 15.0185 298.652 15.0426 298.816 15.063C298.856 15.0474 298.909 15.033 298.936 15.0161C298.98 14.9884 298.905 14.9632 298.745 14.9439C298.701 14.9584 298.661 14.974 298.621 14.9897ZM285.879 6.47778C285.839 6.49342 285.799 6.50906 285.755 6.5235C285.874 6.55838 285.985 6.5692 286.069 6.54996C286.122 6.53793 286.154 6.51988 286.193 6.50424C286.074 6.46936 285.967 6.45974 285.879 6.47778ZM273.673 1.96201C273.779 1.97043 273.868 1.9536 273.943 1.90909C273.885 1.89826 273.832 1.88383 273.77 1.87661C273.668 1.86458 273.575 1.88504 273.504 1.92834C273.562 1.94037 273.62 1.95119 273.673 1.96201ZM267.191 1.67933C267.151 1.69497 267.111 1.71061 267.067 1.72504C267.187 1.75993 267.297 1.77075 267.381 1.7515C267.435 1.73947 267.466 1.72143 267.506 1.70579C267.386 1.6709 267.28 1.66249 267.191 1.67933ZM223.236 0.579857C223.196 0.595495 223.156 0.611134 223.112 0.625569C223.231 0.660453 223.342 0.671276 223.426 0.652029C223.48 0.64 223.511 0.621956 223.55 0.606318C223.431 0.571433 223.324 0.563016 223.236 0.579857ZM4.37286 10.3668C4.31526 10.356 4.25772 10.3452 4.20455 10.3332C4.07607 10.3656 4.03621 10.3957 4.10709 10.4186C4.1514 10.433 4.2178 10.4414 4.2754 10.4522C4.40832 10.4198 4.43932 10.3909 4.37286 10.3668Z" fill="#FFE492"/>
</svg>
