<svg width="1719" height="632" viewBox="0 0 1719 632" fill="none" xmlns="http://www.w3.org/2000/svg">
<g opacity="0.3">
<path d="M657.557 631.809C651.42 631.809 645.445 631.293 639.704 630.263C627.663 628.102 616.539 623.665 606.64 617.075C596 609.993 586.668 600.344 578.901 588.396C563.291 564.381 555.482 535.621 547.929 507.807C546.445 502.345 544.911 496.698 543.353 491.219C532.725 453.872 519.252 421.158 502.168 391.209C468.087 331.464 420.159 280.476 363.561 243.758C298.107 201.296 227.732 180.143 165.4 184.199C128.765 186.584 80.3588 209.262 58.7251 247.991C45.8863 270.977 44.8511 296.485 55.7332 321.754L55.5172 321.86C49.8113 308.608 47.3253 295.323 48.1302 282.373C48.8687 270.494 52.3639 258.881 58.5209 247.859C68.3132 230.328 84.4619 214.789 105.222 202.923C124.405 191.959 145.771 185.218 165.386 183.942C198.006 181.821 232.7 186.528 268.502 197.934C300.956 208.275 332.98 223.617 363.684 243.537C420.315 280.275 468.272 331.291 502.372 391.071C519.466 421.041 532.946 453.773 543.581 491.14C545.141 496.619 546.675 502.269 548.156 507.731C555.703 535.524 563.507 564.264 579.096 588.244C594.171 611.438 614.577 625.488 639.744 630.004C674.597 636.259 716.919 623.177 752.954 595.007C804.883 554.414 840.923 495.327 875.778 438.189C881.887 428.174 888.203 417.817 894.458 407.817C910.694 381.849 932.684 348.2 958.817 318.222C985.53 287.58 1012.68 265.068 1041.8 249.395C1059.63 239.801 1078.53 233.338 1097.97 230.185C1115.92 227.271 1134.92 227.091 1154.45 229.644C1187.94 234.025 1224.02 246.4 1264.76 267.473C1344.97 308.972 1425.09 359.342 1502.9 417.187C1576.86 472.166 1649.4 534.38 1718.49 602.093L1718.33 602.282C1575.1 461.915 1422.46 349.346 1264.66 267.702C1175.5 221.576 1104.72 215.829 1041.91 249.621C978.013 283.998 933.375 346.036 894.655 407.957C888.403 417.955 882.087 428.311 875.977 438.326C841.113 495.485 805.061 554.589 753.096 595.21C736.304 608.338 717.413 618.577 698.467 624.82C688.459 628.117 678.51 630.273 668.893 631.23C665.061 631.619 661.278 631.809 657.557 631.809Z" fill="#E4E0E0"/>
<path d="M663.559 617.569C647.906 617.569 633.408 614.378 620.45 608.08C606.002 601.057 593.533 590.174 583.39 575.737C582.492 574.458 581.602 573.136 580.742 571.804C565.298 547.893 557.142 519.507 549.257 492.054C547.661 486.505 546.013 480.767 544.342 475.198C534.385 442.042 522.397 412.82 507.687 385.865C505.875 382.547 503.999 379.221 502.107 375.982C467.525 316.751 419.207 266.409 362.377 230.397C296.45 188.66 225.876 168.382 163.656 173.302C127.286 176.208 79.1034 199.257 57.3771 237.689C44.3674 260.703 42.8952 286.262 53.1149 311.604L52.8964 311.706C47.5397 298.423 45.3385 285.112 46.3572 272.147C47.2927 260.24 50.9304 248.603 57.1729 237.557C67.0649 220.056 83.1661 204.5 103.731 192.573C122.739 181.548 144.012 174.614 163.634 173.048C196.214 170.472 230.946 174.728 266.862 185.697C299.394 195.634 331.571 210.6 362.496 230.178C419.359 266.21 467.703 316.583 502.306 375.847C504.199 379.089 506.077 382.417 507.889 385.738C522.608 412.71 534.604 441.948 544.565 475.122C546.239 480.69 547.887 486.429 549.482 491.98C557.365 519.415 565.515 547.781 580.937 571.659C581.794 572.986 582.684 574.308 583.58 575.585C604.541 605.428 633.343 617.569 663.632 617.569C663.798 617.569 663.962 617.569 664.128 617.569C663.938 617.566 663.748 617.569 663.559 617.569ZM670.019 617.391C698.178 615.842 727.235 604.256 752.162 587.019C805.931 549.685 844.576 492.023 881.95 436.26C883.488 433.962 885.027 431.668 886.566 429.375C889.945 424.34 893.95 418.38 898.039 412.372C916.382 385.428 938.581 354.077 964.147 325.858C991.348 295.832 1018.52 273.551 1047.22 257.738C1064.86 248.033 1083.5 241.196 1102.62 237.417C1120.33 233.916 1139.06 232.927 1158.26 234.476C1191.43 237.153 1227.1 247.303 1267.31 265.509C1306.5 283.231 1338.73 299.913 1368.71 318.009C1411.18 343.67 1451.64 373.236 1485.62 398.771C1564.61 458.31 1642.11 525.917 1715.97 599.714L1715.81 599.9C1641.96 526.112 1564.46 458.511 1485.48 398.98C1451.51 373.447 1411.06 343.886 1368.59 318.233C1338.62 300.142 1306.41 283.465 1267.22 265.748C1179.63 226.087 1109.76 223.613 1047.33 257.967C982.539 293.661 936.396 356.462 898.231 412.525C894.14 418.533 890.137 424.49 886.758 429.527C885.219 431.818 883.681 434.114 882.142 436.413C844.756 492.193 806.098 549.876 752.29 587.238C738.948 596.462 724.751 603.79 710.091 609.015C696.445 613.874 682.993 616.684 670.019 617.391Z" fill="#E4E0E0"/>
<path d="M670.174 603.653C668.291 603.653 666.42 603.61 664.563 603.521C648.925 602.781 634.453 598.939 621.55 592.097C607.439 584.613 595.212 573.53 585.214 559.151C584.326 557.87 583.44 556.545 582.585 555.213C567.315 531.419 558.819 503.411 550.606 476.33C548.894 470.685 547.122 464.847 545.327 459.182C534.88 426.138 522.575 397.149 507.706 370.558C505.866 367.27 503.962 363.973 502.041 360.759C466.958 302.044 418.251 252.348 361.188 217.043C294.791 176.03 224.017 156.625 161.906 162.409C126.935 165.717 78.8927 187.452 56.0504 227.351C42.8531 250.403 40.9321 276.03 50.4941 301.462L50.2733 301.556C45.2632 288.232 43.3517 274.891 44.5864 261.903C45.7214 249.958 49.5111 238.289 55.8485 227.219C65.845 209.758 81.894 194.197 102.262 182.214C121.092 171.136 142.267 164.014 161.885 162.158C194.427 159.129 229.196 162.933 265.224 173.465C297.837 183 330.163 197.587 361.307 216.824C418.403 252.152 467.136 301.876 502.24 360.624C504.161 363.84 506.068 367.138 507.908 370.431C522.784 397.037 535.096 426.044 545.548 459.106C547.343 464.773 549.115 470.611 550.827 476.256C559.038 503.322 567.526 531.309 582.777 555.076C583.632 556.408 584.513 557.73 585.401 559.007C626.031 617.431 698.034 611.159 751.367 579.027C807.38 544.984 849.007 488.402 889.264 433.684L889.677 433.122C893.576 427.819 897.607 422.337 901.62 416.923C943.964 359.815 990.506 301.126 1052.65 266.076C1070.09 256.256 1088.47 249.045 1107.27 244.644C1124.76 240.55 1143.2 238.752 1162.07 239.301C1194.98 240.257 1230.24 248.185 1269.86 263.538C1311.5 279.615 1342.83 294.393 1371.46 311.457C1412.24 335.818 1451.75 366.602 1486.61 393.762C1564.22 454.56 1640.54 523.048 1713.45 597.322L1713.29 597.505C1640.38 523.239 1564.07 454.758 1486.47 393.966C1451.61 366.81 1412.11 336.031 1371.34 311.678C1342.72 294.619 1311.4 279.847 1269.78 263.774C1183.89 230.496 1114.93 231.297 1052.75 266.297C990.656 301.324 944.133 359.988 901.806 417.076C897.793 422.489 893.761 427.974 889.862 433.275L889.449 433.837C869.387 461.104 848.644 489.3 826.243 514.485C801.069 542.787 776.614 563.97 751.481 579.243C725.186 595.084 696.543 603.653 670.174 603.653Z" fill="#E4E0E0"/>
<path d="M1710.78 595.107C1638.81 520.363 1563.68 451.002 1487.46 388.951C1484.23 386.343 1481 383.721 1477.75 381.092C1444.74 354.338 1410.6 326.674 1374.09 305.123C1338.68 284.273 1302.79 271.524 1272.35 261.804C1188.32 234.806 1120.27 238.882 1058.19 274.626C994.454 311.429 945.07 372.531 905.39 421.63C903.009 424.576 900.632 427.528 898.25 430.483C896.493 432.665 894.734 434.846 892.974 437.025C870.381 465.01 849.83 490.029 827.123 512.86C801.182 538.94 776.179 558.04 750.68 571.254C726.783 583.64 701.255 590.192 677.51 590.194C673.184 590.194 668.922 589.978 664.733 589.538C649.442 587.934 635.285 583.426 622.658 576.139C608.879 568.188 596.895 556.893 587.034 542.568C586.153 541.284 585.274 539.957 584.424 538.622C569.335 514.952 560.509 487.339 551.975 460.636C550.137 454.885 548.235 448.935 546.312 443.161C535.366 410.221 522.743 381.463 507.727 355.243C505.858 351.981 503.923 348.714 501.976 345.528C466.39 287.329 417.295 238.279 360.002 203.679C293.135 163.39 222.164 144.862 160.162 151.504C117.776 156.134 74.4325 183.05 54.7577 216.956C41.3539 240.056 38.977 265.765 47.8789 291.304L47.6557 291.392C42.9946 278.021 41.3705 264.639 42.8284 251.618C44.17 239.629 48.1163 227.923 54.5559 216.822C64.6568 199.412 80.6536 183.851 100.818 171.824C119.467 160.7 140.533 153.393 160.139 151.252C192.643 147.768 227.448 151.122 263.587 161.216C296.279 170.35 328.759 184.561 360.121 203.455C417.45 238.076 466.57 287.154 502.178 345.388C504.127 348.577 506.062 351.847 507.931 355.109C522.957 381.344 535.584 410.116 546.537 443.072C548.461 448.849 550.363 454.796 552.201 460.55C560.73 487.237 569.551 514.833 584.622 538.474C585.472 539.807 586.348 541.132 587.226 542.413C629.641 604.032 701.732 596.335 750.577 571.023C808.854 540.821 853.449 485.59 892.796 436.857C894.555 434.676 896.313 432.494 898.072 430.315C900.451 427.361 902.83 424.409 905.212 421.462C927.862 393.437 950.229 366.202 974.819 341.106C1003.1 312.245 1030.33 290.426 1058.08 274.403C1075.34 264.463 1093.46 256.879 1111.94 251.862C1129.2 247.171 1147.36 244.567 1165.9 244.12C1198.59 243.331 1233.44 249.037 1272.42 261.56C1302.87 271.285 1338.78 284.039 1374.21 304.902C1410.73 326.461 1444.88 354.132 1477.9 380.891C1481.14 383.52 1484.38 386.142 1487.61 388.751C1563.83 450.806 1638.98 520.175 1710.95 594.926L1710.78 595.107Z" fill="#E4E0E0"/>
<path d="M1708.26 592.712C1635.89 516.061 1561.94 445.818 1488.45 383.938C1484.05 380.235 1479.56 376.419 1475.21 372.73C1444.05 346.306 1411.84 318.983 1376.85 298.568C1341.91 278.255 1305.71 267.586 1274.91 259.831C1192.93 238.989 1125.79 246.337 1063.61 282.956C1004.31 318.012 957.849 370.726 912.917 421.704L907.983 427.3C904.087 431.722 900.057 436.291 896.085 440.773C851.108 491.459 806.083 538.963 749.877 563.26C736.238 569.157 722.234 573.243 708.248 575.412C693.229 577.738 678.641 577.771 664.886 575.508C649.945 573.05 636.109 567.886 623.762 560.158C610.325 551.75 598.581 540.249 588.86 525.98C587.984 524.688 587.112 523.359 586.269 522.026C571.365 498.497 562.221 471.29 553.378 444.979C551.405 439.108 549.363 433.036 547.302 427.14C535.848 394.301 522.912 365.775 507.753 339.932C505.858 336.703 503.895 333.461 501.917 330.3C465.83 272.618 416.348 224.213 358.82 190.317C291.48 150.759 220.31 133.103 158.415 140.606C116.416 145.806 73.2691 172.91 53.4946 206.522C39.8676 229.68 37.0206 255.488 45.26 281.156L45.0344 281.24C40.7224 267.81 39.3903 254.377 41.0738 241.318C42.6267 229.278 46.7369 217.526 53.2904 206.389C63.5006 189.038 79.4404 173.493 99.3906 161.43C117.854 150.266 138.807 142.783 158.387 140.357C190.853 136.421 225.693 139.322 261.946 148.979C294.719 157.71 327.349 171.542 358.931 190.096C416.493 224.01 466.003 272.445 502.111 330.161C504.089 333.324 506.055 336.568 507.95 339.797C523.118 365.653 536.061 394.195 547.521 427.051C549.582 432.947 551.624 439.022 553.597 444.893C562.435 471.189 571.574 498.382 586.462 521.884C587.302 523.211 588.174 524.538 589.048 525.83C630.442 586.592 699.22 584.886 749.784 563.027C805.945 538.749 850.951 491.263 895.909 440.601C899.881 436.118 903.911 431.549 907.807 427.127L912.742 421.531C934.798 396.508 957.602 370.632 982.37 346.561C1010.42 319.298 1036.96 298.421 1063.5 282.733C1080.58 272.669 1098.45 264.71 1116.59 259.081C1133.64 253.787 1151.52 250.375 1169.71 248.938C1202.26 246.368 1236.69 249.851 1274.97 259.582C1305.78 267.342 1341.99 278.013 1376.96 298.344C1411.97 318.767 1444.19 346.098 1475.35 372.529C1479.7 376.218 1484.2 380.032 1488.6 383.737C1562.09 445.622 1636.05 515.871 1708.42 592.529L1708.26 592.712Z" fill="#E4E0E0"/>
<path d="M1705.74 590.317C1633.99 512.814 1561.22 441.691 1489.44 378.926C1484.05 374.209 1478.52 369.305 1473.17 364.563C1443.7 338.424 1413.22 311.396 1379.6 292.018C1344.82 272.053 1308.46 263.548 1277.48 257.863C1197.77 243.011 1131.54 253.634 1069.04 291.291C1014.5 324.292 969.719 371.062 926.412 416.29C921.855 421.05 917.142 425.97 912.549 430.738C907.157 436.336 903.037 440.59 899.193 444.526C878.604 465.595 854.09 489.854 828.365 510.033C801.104 531.414 775.168 546.212 749.072 555.274C735.35 560.039 721.405 563.044 707.621 564.204C692.821 565.45 678.491 564.534 665.033 561.481C650.451 558.173 636.938 552.352 624.864 544.183C611.771 535.324 600.272 523.618 590.684 509.394C589.82 508.105 588.953 506.773 588.112 505.435C573.405 482.063 563.955 455.277 554.813 429.372C552.692 423.364 550.501 417.152 548.29 411.118C536.321 378.372 523.069 350.08 507.775 324.62C505.851 321.419 503.859 318.208 501.853 315.072C465.265 257.906 415.394 210.147 357.633 176.956C289.825 138.124 218.456 121.346 156.67 129.706C121.514 134.567 75.5963 156.963 52.2649 196.033C38.3933 219.263 35.0642 245.188 42.6412 271.003L42.4156 271.08C38.4526 257.581 37.4173 244.089 39.3359 230.979C41.1072 218.879 45.3884 207.076 52.0654 195.896C62.3848 178.616 78.2652 163.096 97.9946 151.008C116.273 139.81 137.1 132.157 156.641 129.454C189.07 125.065 223.948 127.514 260.311 136.734C293.161 145.063 325.943 158.519 357.744 176.732C415.539 209.942 465.438 257.728 502.048 314.928C504.054 318.063 506.048 321.279 507.972 324.483C523.273 349.955 536.532 378.262 548.509 411.024C550.722 417.061 552.913 423.272 555.034 429.281C564.168 455.172 573.616 481.944 588.307 505.291C589.148 506.625 590.012 507.955 590.876 509.242C625.313 560.334 684.425 577.451 748.999 555.027C807.477 534.722 855.18 489.211 899.029 444.338C902.874 440.402 906.991 436.148 912.383 430.549C916.975 425.782 921.689 420.862 926.245 416.102C947.566 393.836 969.61 370.812 993.125 349.253C1019.71 324.872 1044.51 305.838 1068.93 291.065C1085.85 280.869 1103.45 272.536 1121.25 266.302C1138.1 260.395 1155.69 256.177 1173.53 253.759C1206 249.36 1240.02 250.619 1277.52 257.606C1308.52 263.296 1344.9 271.804 1379.71 291.787C1413.35 311.177 1443.84 338.213 1473.32 364.359C1478.67 369.101 1484.2 374.006 1489.59 378.723C1561.37 441.495 1634.16 512.624 1705.91 590.131L1705.74 590.317Z" fill="#E4E0E0"/>
<path d="M1703.22 587.922C1632.1 509.562 1560.5 437.557 1490.43 373.912C1484.47 368.499 1478.35 362.816 1472.42 357.321C1444.21 331.147 1415.05 304.083 1382.35 285.463C1347.55 265.738 1311.1 259.444 1280.05 255.89C1203.95 246.947 1136.71 261.252 1074.47 299.621C1024.91 330.311 982.427 371.367 941.344 411.073C933.045 419.092 924.466 427.386 916.125 435.292C911.022 440.13 906.501 444.379 902.298 448.279C882.754 466.398 856.756 489.63 828.975 508.616C801.061 527.691 774.659 540.341 748.262 547.285C719.472 554.86 690.739 554.916 665.17 547.45C650.954 543.298 637.762 536.825 625.958 528.208C613.215 518.904 601.96 506.994 592.502 492.814C591.645 491.522 590.786 490.187 589.95 488.85C575.451 465.656 565.706 439.309 556.285 413.832C554.005 407.668 551.65 401.296 549.273 395.105C536.778 362.445 523.211 334.381 507.793 309.316C505.842 306.143 503.821 302.959 501.786 299.852C464.697 243.202 414.439 196.087 356.445 163.604C288.17 125.503 216.601 109.599 154.922 118.816C113.122 125.198 71.3861 151.997 51.0702 185.499C36.9326 208.813 33.1121 234.872 40.0218 260.861L39.7939 260.929C36.1823 247.349 35.4462 233.787 37.6046 220.621C39.5991 208.452 44.0632 196.588 50.8707 185.359C61.2994 168.161 77.118 152.676 96.6171 140.578C114.703 129.357 135.399 121.536 154.889 118.561C187.279 113.72 222.195 115.719 258.669 124.498C291.601 132.426 324.535 145.506 356.554 163.376C414.581 195.878 464.868 243.019 501.981 299.705C504.016 302.812 506.036 305.998 507.99 309.174C523.415 334.254 536.99 362.33 549.491 395.006C551.868 401.197 554.224 407.572 556.503 413.735C565.92 439.2 575.66 465.534 590.144 488.705C590.98 490.042 591.837 491.372 592.695 492.664C626.54 543.425 684.674 563.751 748.205 547.038C806.123 531.8 856.419 490.475 902.142 448.089C906.342 444.188 910.866 439.942 915.966 435.103C924.305 427.198 932.886 418.907 941.183 410.887C982.275 371.174 1024.76 330.107 1074.34 299.405C1091.12 289.064 1108.46 280.36 1125.9 273.531C1142.58 267.001 1159.88 261.974 1177.34 258.59C1209.81 252.297 1243.41 251.333 1280.07 255.641C1311.15 259.198 1347.62 265.493 1382.46 285.242C1415.18 303.875 1444.36 330.949 1472.58 357.133C1478.5 362.628 1484.62 368.308 1490.58 373.721C1560.66 437.371 1632.27 509.382 1703.39 587.746L1703.22 587.922Z" fill="#E4E0E0"/>
<path d="M1700.71 585.526C1630.21 506.302 1559.8 433.42 1491.42 368.9C1485.14 362.971 1478.67 356.693 1472.42 350.621C1445.24 324.226 1417.14 296.93 1385.1 278.911C1350.15 259.353 1313.68 255.302 1282.61 253.919C1209.39 250.42 1143.08 268.094 1079.89 307.953C1035.58 336.039 996.073 371.585 957.868 405.959C944.732 417.78 932.323 428.945 919.703 439.845C914.569 444.282 909.894 448.269 905.406 452.029C876.45 476.274 852.359 493.803 829.587 507.192C801.02 523.991 774.156 534.493 747.457 539.293C737.1 541.154 726.78 542.082 716.648 542.082C698.688 542.082 681.309 539.174 665.31 533.412C636.356 522.985 612.474 503.744 594.326 476.225C593.471 474.921 592.618 473.586 591.792 472.254C577.514 449.26 567.497 423.381 557.809 398.352C555.354 392.01 552.818 385.455 550.26 379.081C537.232 346.497 523.346 318.667 507.817 294.001C505.836 290.856 503.787 287.701 501.724 284.621C464.134 228.487 413.486 182.018 355.26 150.24C286.517 112.871 214.751 97.8384 153.179 107.912C111.205 114.922 70.6733 141.213 49.9229 174.893C35.498 198.304 31.1718 224.518 37.4071 250.705L37.1768 250.769C33.9214 237.094 33.4893 223.45 35.8946 210.216C38.1218 197.965 42.7734 186.035 49.7258 174.754C60.2637 157.649 76.0135 142.215 95.2752 130.117C113.167 118.879 133.718 110.905 153.143 107.661C185.495 102.367 220.45 103.913 257.033 112.255C290.045 119.784 323.129 132.487 355.369 150.011C413.629 181.809 464.305 228.304 501.919 284.471C503.982 287.553 506.031 290.709 508.014 293.856C523.552 318.535 537.445 346.38 550.479 378.977C553.036 385.351 555.574 391.908 558.027 398.25C567.71 423.267 577.723 449.136 591.989 472.109C592.815 473.439 593.665 474.773 594.52 476.075C628.409 527.467 684.137 550.417 747.417 539.039C807.654 528.207 861.009 488.875 905.259 451.826C909.745 448.065 914.42 444.081 919.553 439.644C932.171 428.744 944.58 417.582 957.716 405.761C995.926 371.379 1035.44 335.828 1079.77 307.732C1096.42 297.23 1113.5 288.153 1130.56 280.749C1147.07 273.579 1164.1 267.743 1181.16 263.408C1213.69 255.142 1246.88 251.953 1282.62 253.662C1313.71 255.045 1350.22 259.101 1385.2 278.682C1417.28 296.714 1445.39 324.022 1472.58 350.428C1478.83 356.5 1485.29 362.777 1491.57 368.704C1559.96 433.229 1630.38 506.119 1700.88 585.348L1700.71 585.526Z" fill="#E4E0E0"/>
<path d="M1698.19 583.132C1627.35 501.909 1560.04 430.194 1492.41 363.887C1485.96 357.561 1479.6 351.1 1472.88 344.26C1446.58 317.522 1419.4 289.875 1387.85 272.359C1352.46 252.809 1314.39 251.181 1285.18 251.949C1215.29 253.546 1149.92 274.592 1085.32 316.288C1046.56 341.428 1010.77 371.616 976.166 400.814C957.977 416.159 940.798 430.649 923.279 444.402C918.079 448.488 913.247 452.211 908.512 455.783C879.162 477.894 854.277 493.775 830.195 505.767C800.966 520.321 773.638 528.673 746.65 531.302C732.783 532.653 719.011 532.398 705.717 530.547C691.641 528.587 678.092 524.826 665.448 519.372C637.422 507.282 614.107 487.188 596.149 459.643C595.302 458.336 594.456 456.999 593.635 455.666C579.597 432.91 569.327 407.524 559.395 382.974C556.745 376.425 554.005 369.651 551.248 363.066C537.673 330.553 523.474 302.955 507.838 278.695C505.827 275.578 503.749 272.451 501.662 269.399C463.571 213.782 412.537 167.958 354.078 136.884C300.12 108.323 244.477 93.4202 193.452 93.4202C179.027 93.4202 164.982 94.6102 151.436 97.0181C109.969 104.534 69.6905 130.919 48.819 164.238C34.0878 187.758 29.2367 214.15 34.7906 240.561L34.5579 240.617C31.6587 226.836 31.5376 213.098 34.197 199.787C36.6617 187.447 41.5151 175.438 48.6195 164.096C59.2666 147.098 74.9428 131.728 93.9575 119.643C111.906 108.234 131.768 100.324 151.393 96.7689C183.707 91.0225 218.7 92.1184 255.395 100.021C288.485 107.145 321.723 119.47 354.182 136.653C412.675 167.744 463.74 213.593 501.855 269.244C503.944 272.296 506.024 275.426 508.035 278.545C523.678 302.817 537.885 330.428 551.467 362.956C554.223 369.542 556.966 376.315 559.616 382.868C569.543 407.407 579.808 432.782 593.834 455.521C594.656 456.851 595.501 458.189 596.346 459.493C629.928 510.999 684.703 537.077 746.631 531.046C809.295 524.941 865.988 487.503 908.379 455.57C913.114 451.997 917.944 448.275 923.144 444.191C940.66 430.443 957.837 415.95 976.023 400.608C1010.64 371.408 1046.43 341.212 1085.2 316.065C1118.46 294.597 1151.09 278.952 1184.98 268.232C1217.66 257.894 1250.43 252.483 1285.18 251.69C1305 251.169 1321.17 252.074 1336.07 254.535C1355.32 257.713 1372.29 263.467 1387.96 272.128C1419.54 289.659 1446.74 317.321 1473.05 344.072C1479.77 350.912 1486.12 357.37 1492.57 363.696C1560.2 430.006 1627.52 501.726 1698.37 582.954L1698.19 583.132Z" fill="#E4E0E0"/>
<path d="M1695.67 580.736C1625.48 498.623 1559.31 426.053 1493.4 358.872C1486.88 352.225 1480.45 345.378 1473.64 338.129C1448.13 310.968 1421.76 282.879 1390.59 265.803C1354.92 246.344 1316.89 247.122 1287.74 249.972C1221.79 256.199 1157.35 280.616 1090.74 324.615C1057.92 346.397 1026.67 371.326 996.455 395.435C972.566 414.492 950.003 432.494 926.857 448.948C921.626 452.67 916.497 456.23 911.618 459.525C882.21 479.368 855.775 494.021 830.803 504.324C800.901 516.661 773.111 522.87 745.842 523.302C731.968 523.521 718.251 522.178 705.08 519.308C691.273 516.297 677.985 511.591 665.586 505.315C638.522 491.618 615.772 470.669 597.97 443.049C597.135 441.744 596.294 440.404 595.475 439.064C581.701 416.585 571.208 391.735 561.059 367.705C558.189 360.906 555.218 353.873 552.234 347.036C538.103 314.584 523.588 287.22 507.86 263.375C505.82 260.285 503.714 257.186 501.598 254.163C463.006 199.061 411.582 153.883 352.89 123.514C283.214 87.6116 211.047 74.3288 149.688 86.1114C108.757 94.1081 68.7478 120.562 47.7599 153.502C32.6963 177.146 27.3063 203.737 32.1692 230.404L31.9365 230.453C29.4006 216.552 29.5953 202.707 32.5182 189.305C35.2323 176.864 40.2922 164.768 47.5628 153.357C58.3144 136.481 73.9122 121.187 92.6705 109.128C110.412 97.7212 130.113 89.6762 149.646 85.8597C181.924 79.6633 216.952 80.304 253.756 87.7692C286.928 94.4971 320.315 106.445 352.992 123.282C411.72 153.667 463.172 198.873 501.786 254.008C503.904 257.031 506.012 260.133 508.052 263.225C523.79 287.082 538.31 314.459 552.447 346.924C555.434 353.761 558.402 360.794 561.275 367.595C571.419 391.616 581.907 416.455 595.672 438.919C596.491 440.257 597.332 441.597 598.165 442.899C632.101 495.552 684.546 524.019 745.838 523.043C795.571 522.255 848.208 502 911.49 459.304C916.367 456.008 921.493 452.451 926.724 448.729C949.863 432.278 972.426 414.281 996.31 395.224C1026.53 371.112 1057.79 346.179 1090.62 324.391C1124.2 302.206 1156.31 285.414 1188.79 273.05C1221.69 260.524 1254.05 252.889 1287.72 249.711C1316.9 246.855 1354.97 246.08 1390.7 265.569C1421.9 282.666 1448.29 310.767 1473.81 337.941C1480.61 345.19 1487.04 352.034 1493.56 358.678C1559.48 425.863 1625.65 498.438 1695.84 580.555L1695.67 580.736Z" fill="#E4E0E0"/>
<path d="M1693.15 578.34C1623.62 495.336 1558.6 421.906 1494.39 353.86C1487.87 346.952 1481.44 339.774 1474.62 332.174C1449.84 304.528 1424.21 275.941 1393.35 259.251C1357.34 239.863 1319.37 243.054 1290.31 247.999C1228.26 258.361 1166.57 285.354 1096.17 332.947C1069.77 350.878 1043.96 370.548 1019.01 389.569C988.703 412.672 960.077 434.495 930.436 453.501C925.096 456.929 919.811 460.219 914.727 463.275C884.792 481.262 857.54 494.219 831.414 502.885C816.78 507.739 802.334 511.255 788.477 513.338C773.696 515.557 759.081 516.221 745.038 515.311C716.547 513.462 689.863 505.371 665.729 491.265C639.664 476.029 617.482 454.229 599.799 426.463C598.968 425.148 598.135 423.806 597.32 422.473C583.841 400.324 573.16 376.065 562.834 352.607C559.707 345.505 556.475 338.162 553.224 331.017C538.524 298.619 523.693 271.486 507.884 248.066C505.816 245.002 503.679 241.93 501.537 238.937C462.444 184.349 410.633 139.817 351.708 110.157C281.567 74.99 209.203 62.5819 147.946 75.2163C82.3564 88.9543 18.443 148.312 29.5555 220.257L29.3204 220.297C26.5399 202.3 28.1688 184.571 34.1596 167.596C39.6303 152.093 48.6082 137.504 60.8438 124.236C72.2198 111.899 85.8682 101.248 101.407 92.5775C116.185 84.3317 132.263 78.2395 147.899 74.9646C180.139 68.3156 215.205 68.5063 252.121 75.5342C285.373 81.8628 318.912 93.4344 351.808 109.929C410.766 139.609 462.608 184.166 501.725 238.785C503.869 241.78 506.006 244.852 508.076 247.918C523.893 271.349 538.731 298.496 553.438 330.908C556.689 338.052 559.92 345.396 563.047 352.5C573.372 375.951 584.047 400.2 597.52 422.336C598.332 423.669 599.163 425.011 599.994 426.323C633.98 479.683 685.496 511.194 745.052 515.059C795.472 518.326 850.934 501.318 914.61 463.057C919.692 460 924.975 456.713 930.315 453.285C959.948 434.284 988.57 412.463 1018.87 389.363C1043.83 370.339 1069.63 350.667 1096.04 332.733C1166.47 285.12 1228.19 258.117 1290.28 247.748C1309.8 244.424 1325.96 243.362 1341.15 244.407C1360.56 245.742 1377.67 250.522 1393.45 259.022C1424.35 275.73 1449.99 304.334 1474.79 331.996C1481.6 339.593 1488.04 346.771 1494.55 353.677C1558.77 421.728 1623.79 495.16 1693.33 578.17L1693.15 578.34Z" fill="#E4E0E0"/>
<path d="M1690.64 575.945C1621.76 492.035 1557.89 417.752 1495.38 348.846C1488.91 341.716 1482.52 334.249 1475.75 326.338C1451.64 298.163 1426.71 269.027 1396.1 252.696C1359.3 233.145 1319.57 239.525 1292.88 246.024C1220.45 263.446 1155.54 303.95 1101.6 341.279C1082.21 354.75 1062.87 369.019 1044.17 382.818C1006.65 410.5 971.215 436.646 934.016 458.055C928.546 461.206 923.103 464.224 917.837 467.028C887.318 483.248 859.249 494.507 832.028 501.443C801.17 509.307 771.634 511.286 744.235 507.319C716.088 503.243 689.722 493.113 665.873 477.209C640.858 460.529 619.243 437.877 601.625 409.88C600.803 408.565 599.975 407.22 599.165 405.883C586.02 384.14 575.207 360.547 564.747 337.729C561.321 330.252 557.776 322.522 554.214 314.998C538.721 282.193 524.006 256.062 507.91 232.756C505.813 229.72 503.65 226.679 501.477 223.712C461.878 169.643 409.678 125.756 350.521 96.7982C279.914 62.3682 207.35 50.8322 146.198 64.3184C80.3732 79.0276 17.7658 137.58 26.9359 210.109L26.7009 210.142C24.4261 192.148 26.3946 174.435 32.5492 157.499C38.1909 141.981 47.221 127.376 59.3925 114.093C70.7424 101.706 84.3196 90.9755 99.7488 82.1958C114.44 73.8355 130.486 67.5679 146.151 64.0667C178.355 56.9651 213.457 56.7057 250.482 63.2937C283.815 69.2232 317.506 80.4185 350.62 96.5668C409.813 125.54 462.042 169.452 501.66 223.554C503.833 226.524 505.998 229.568 508.097 232.604C524.203 255.92 538.922 282.066 554.423 314.884C557.985 322.407 561.53 330.14 564.956 337.618C575.413 360.428 586.224 384.013 599.36 405.745C600.169 407.083 600.996 408.425 601.817 409.74C636.066 464.163 686.654 498.728 744.264 507.067C795.932 514.548 852.672 501.374 917.73 466.799C922.994 463.997 928.436 460.982 933.902 457.832C971.091 436.427 1006.52 410.287 1044.03 382.607C1062.74 368.808 1082.08 354.536 1101.47 341.063C1137.74 315.964 1167.92 297.421 1196.42 282.707C1229.98 265.386 1261.52 253.306 1292.83 245.775C1311.91 241.127 1328.55 239.021 1343.68 239.342C1363.17 239.754 1380.35 244.046 1396.2 252.467C1426.85 268.819 1451.8 297.973 1475.93 326.166C1482.69 334.073 1489.08 341.541 1495.55 348.665C1558.06 417.574 1621.93 491.862 1690.81 575.775L1690.64 575.945Z" fill="#E4E0E0"/>
<path d="M1688.12 573.547C1619.91 488.73 1557.19 413.589 1496.37 343.829C1489.99 336.514 1483.68 328.787 1477 320.605C1453.52 291.862 1429.25 262.141 1398.85 246.141C1361.65 226.636 1322.02 235.604 1295.45 244.048C1229.83 264.722 1171.29 304.088 1107.03 349.609C1095.44 357.849 1083.72 366.354 1072.38 374.582C1028.77 406.223 983.686 438.939 937.595 462.606C931.997 465.485 926.393 468.233 920.943 470.776C890.218 485.096 860.509 494.926 832.639 499.994C801.069 505.735 771.055 505.509 743.426 499.325C715.673 493.113 689.628 480.941 666.012 463.148C642.113 445.141 621.061 421.639 603.442 393.296C602.628 391.979 601.806 390.632 601.001 389.294C588.253 368.061 577.37 345.235 566.847 323.163C563.055 315.209 559.135 306.986 555.195 298.984C539.097 266.212 524.076 240.305 507.925 217.452C505.804 214.452 503.61 211.436 501.407 208.492C461.314 154.931 408.729 111.69 349.334 83.439C278.264 49.7464 205.503 39.0851 144.451 53.4205C80.7159 68.5493 16.9521 125.047 24.3153 199.958L24.0803 199.984C22.3113 181.99 24.6193 164.298 30.9377 147.399C36.748 131.864 45.8327 117.246 57.9377 103.948C80.2719 79.4166 111.786 60.9086 144.399 53.1688C176.566 45.6171 211.706 44.9052 248.842 51.0533C282.256 56.5861 316.096 67.4026 349.429 83.2051C408.857 111.472 461.473 154.74 501.592 208.326C503.798 211.273 505.992 214.289 508.115 217.292C524.273 240.158 539.301 266.075 555.404 298.86C559.344 306.864 563.266 315.087 567.058 323.04C577.579 345.108 588.459 367.928 601.201 389.152C602.003 390.489 602.825 391.834 603.639 393.151C638.888 449.858 687.242 486.484 743.471 499.073C795.539 510.729 855.213 501.13 920.844 470.542C926.291 467.999 931.89 465.253 937.486 462.378C983.56 438.718 1028.64 406.007 1072.24 374.371C1083.58 366.143 1095.3 357.638 1106.89 349.398C1135.02 329.471 1167.75 306.615 1200.24 287.532C1234.22 267.573 1265.34 253.27 1295.38 243.806C1314.29 237.798 1330.92 234.681 1346.22 234.279C1365.52 233.771 1383.26 237.686 1398.95 245.914C1412.57 253.082 1426.27 263.779 1440.85 278.618C1453.72 291.72 1465.64 306.32 1477.17 320.437C1483.85 328.616 1490.16 336.344 1496.54 343.656C1557.36 413.419 1620.08 488.562 1688.3 573.382L1688.12 573.547Z" fill="#E4E0E0"/>
<path d="M1685.6 571.152C1618.06 485.419 1556.48 409.422 1497.36 338.818C1491.1 331.342 1484.89 323.381 1478.33 314.955C1455.47 285.615 1431.83 255.277 1401.6 239.591C1373.36 224.978 1339.47 225.792 1298.02 242.078C1240.05 264.72 1188.23 302.593 1133.37 342.693C1126.54 347.687 1119.48 352.848 1112.45 357.946C1109.7 359.947 1106.95 361.953 1104.19 363.957C1051.92 402.018 997.873 441.376 941.174 467.163C935.442 469.772 929.681 472.251 924.051 474.529C892.651 487.225 862.104 495.305 833.259 498.544C800.959 502.17 770.464 499.745 742.626 491.334C715.305 483.078 689.58 468.864 666.166 449.087C643.47 429.918 622.984 405.57 605.273 376.713C604.465 375.394 603.651 374.044 602.851 372.704C590.586 352.136 579.74 330.231 569.247 309.049C564.999 300.47 560.604 291.598 556.19 282.963C539.469 250.214 524.144 224.531 507.955 202.14C505.804 199.165 503.584 196.18 501.352 193.264C460.751 140.222 407.777 97.6247 348.149 70.0802C276.618 37.1275 203.656 27.3383 142.706 42.523C80.1409 58.2391 16.4673 115.2 21.6983 189.811L21.4608 189.831C20.2 171.834 22.8451 154.163 29.3274 137.308C35.3087 121.754 44.4456 107.119 56.4865 93.8108C78.7257 69.2284 110.13 50.4459 142.651 42.2764C174.782 34.2721 209.958 33.1076 247.203 38.8184C280.698 43.9494 314.693 54.3895 348.244 69.8463C407.905 97.4086 460.912 140.029 501.53 193.099C503.762 196.015 505.987 199.005 508.138 201.98C524.334 224.383 539.668 250.074 556.394 282.836C560.811 291.471 565.203 300.345 569.454 308.924C579.942 330.102 590.788 352.001 603.048 372.561C603.848 373.901 604.66 375.249 605.467 376.569C641.481 435.243 688.93 474.839 742.687 491.082C795.754 507.116 856.745 501.463 923.966 474.285C929.591 472.007 935.349 469.53 941.079 466.924C997.759 441.147 1051.8 401.797 1104.06 363.741C1106.81 361.735 1109.57 359.731 1112.32 357.73C1119.35 352.632 1126.41 347.47 1133.24 342.479C1188.11 302.372 1239.94 264.489 1297.93 241.836C1316.66 234.478 1333.29 230.351 1348.76 229.214C1368.13 227.793 1385.94 231.208 1401.7 239.36C1415.24 246.385 1428.77 257.13 1443.08 272.211C1455.7 285.516 1467.3 300.398 1478.51 314.79C1485.08 323.214 1491.28 331.172 1497.54 338.645C1556.66 409.252 1618.24 485.252 1685.78 570.987L1685.6 571.152Z" fill="#E4E0E0"/>
<path d="M1683.08 568.757C1621.44 488.867 1559.28 409.816 1498.35 333.803C1492.14 326.109 1486 317.843 1479.49 309.094C1458.32 280.631 1434.33 248.373 1404.35 233.038C1375.78 218.451 1341.83 220.762 1300.58 240.102C1251.53 263.021 1208.12 296.721 1162.16 332.4C1147.77 343.572 1132.89 355.129 1117.88 366.275C1091.67 385.775 1063.33 406.409 1033.62 425.201C1001.8 445.329 972.728 460.542 944.745 471.714C938.866 474.061 932.949 476.271 927.153 478.277C895.088 489.37 863.709 495.684 833.889 497.041C800.876 498.542 769.899 493.934 741.814 483.337C689.951 463.524 644.622 422.071 607.089 360.127C606.289 358.805 605.482 357.453 604.686 356.113C593.044 336.453 582.388 315.712 572.083 295.653C567.232 286.213 562.217 276.449 557.171 266.947C539.814 234.205 524.18 208.748 507.972 186.833C505.79 183.884 503.541 180.927 501.283 178.041C460.188 125.51 406.825 83.5609 346.965 56.7207C274.971 24.5053 201.811 15.5934 140.961 31.6248C78.0162 48.302 15.9383 104.507 19.0797 179.663L18.8422 179.673C18.0895 161.671 21.0766 144.02 27.718 127.208C33.8726 111.634 43.0617 96.9836 55.0338 83.6652C66.3125 71.1172 79.6807 60.1457 94.7657 51.0531C109.411 42.2276 124.933 35.6065 140.901 31.3756C172.997 22.9213 208.21 21.3041 245.565 26.5751C279.14 31.312 313.285 41.3733 347.055 56.4842C406.951 83.3397 460.345 125.314 501.464 177.87C503.722 180.759 505.975 183.718 508.157 186.668C524.373 208.596 540.013 234.063 557.378 266.815C562.423 276.319 567.438 286.083 572.289 295.526C582.594 315.583 593.249 336.321 604.886 355.973C605.679 357.315 606.489 358.665 607.286 359.988C644.791 421.883 690.079 463.303 741.892 483.095C795.263 503.233 859.3 501.483 927.079 478.033C932.87 476.026 938.788 473.819 944.662 471.475C1007.23 446.499 1064.47 405.707 1117.74 366.064C1132.75 354.917 1147.63 343.364 1162.02 332.191C1207.99 296.505 1251.41 262.797 1300.48 239.868C1341.8 220.498 1375.81 218.187 1404.45 232.807C1417.88 239.674 1431.21 250.44 1445.2 265.714C1457.55 279.182 1468.79 294.308 1479.67 308.934C1486.18 317.683 1492.33 325.947 1498.53 333.636C1559.47 409.651 1621.62 488.702 1683.27 568.594L1683.08 568.757Z" fill="#E4E0E0"/>
<path d="M1680.57 566.362C1619.86 486.029 1558.89 406.099 1499.34 328.789C1493.33 321.011 1487.37 312.6 1481.05 303.696C1460.4 274.57 1437 241.556 1407.1 226.481C1378.18 211.919 1344.18 215.728 1303.14 238.121C1260.15 261.549 1220.65 294.629 1182.45 326.623C1163.29 342.665 1143.48 359.253 1123.3 374.603C1091.45 398.855 1064.64 417.355 1038.95 432.827C1007.27 451.904 977.621 466.113 948.323 476.263C942.308 478.348 936.23 480.286 930.258 482.022C899.143 491.066 868.589 495.643 839.359 495.646C837.735 495.646 836.12 495.63 834.506 495.602C800.712 495.013 769.255 488.193 741.009 475.338C727.375 469.098 714.023 461.177 701.327 451.795C689.393 442.977 677.665 432.591 666.47 420.925C646.327 399.938 627.497 374.623 608.91 343.539C608.112 342.202 607.317 340.862 606.526 339.517C595.741 321.177 585.538 302.005 575.672 283.464C569.976 272.762 564.087 261.694 558.156 250.921C539.894 217.729 524.424 193.238 507.991 171.516C505.78 168.595 503.503 165.666 501.216 162.808C459.623 110.798 405.872 69.4951 345.779 43.3592C273.325 11.8838 199.966 3.84649 139.215 20.7246C77.4508 37.9332 15.4536 94.5657 16.4627 169.51L16.2253 169.513C15.7551 134.605 28.6746 101.41 53.5851 73.5202C64.8448 60.9137 78.1418 49.8633 93.1104 40.6691C107.675 31.7241 123.166 24.9301 139.156 20.4754C171.214 11.5685 206.465 9.50134 243.929 14.3324C277.585 18.6727 311.882 28.3576 345.867 43.1202C405.998 69.2739 459.78 110.602 501.399 162.643C503.686 165.503 505.968 168.435 508.178 171.356C524.619 193.091 540.096 217.589 558.363 250.794C564.294 261.569 570.185 272.638 575.879 283.34C585.745 301.878 595.946 321.047 606.728 339.382C607.519 340.727 608.312 342.067 609.11 343.402C648.606 409.455 691.781 452.535 741.101 475.104C809.412 506.195 881.636 495.895 930.196 481.778C936.163 480.041 942.237 478.106 948.249 476.021C1015.63 452.675 1077.12 409.447 1123.16 374.397C1143.34 359.052 1163.15 342.464 1182.3 326.425C1220.51 294.426 1260.02 261.335 1303.04 237.897C1321.4 227.877 1338.02 221.724 1353.84 219.089C1373.35 215.84 1391.31 218.25 1407.2 226.255C1420.59 233.005 1433.79 243.857 1447.56 259.428C1459.69 273.149 1470.65 288.6 1481.24 303.546C1487.55 312.448 1493.51 320.856 1499.52 328.629C1559.07 405.938 1620.04 485.869 1680.75 566.202L1680.57 566.362Z" fill="#E4E0E0"/>
<path d="M1678.05 563.967L1500.33 323.778C1494.53 315.934 1488.76 307.398 1482.66 298.364C1462.52 268.549 1439.69 234.757 1409.85 219.931C1380.99 205.596 1345.96 211.052 1305.71 236.151C1267.02 260.278 1231.73 292.364 1197.61 323.394C1175.36 343.621 1152.36 364.534 1128.73 382.941C1057.7 438.263 995.62 470.939 933.369 485.775C907.544 491.929 882.069 495.026 857.362 495.026C849.873 495.026 842.46 494.741 835.126 494.171C800.534 491.486 768.598 482.46 740.206 467.346C713.893 453.336 689.82 433.56 666.622 406.882C648.096 385.58 630.338 360.184 610.736 326.959C600.391 309.425 590.373 291.207 580.685 273.589C558.759 233.72 536.088 192.494 508.02 156.21C464.966 100.559 408.454 56.917 344.592 30.0005C271.68 -0.732472 198.121 -7.89765 137.47 9.82715C78.7498 26.9875 15.0169 81.1001 13.8439 159.363L13.6064 159.358C14.1312 124.376 27.4543 91.1868 52.1345 63.3779C74.4497 38.2336 104.734 19.1282 137.409 9.58051C169.431 0.223565 204.72 -2.2962 242.291 2.09495C276.027 6.03606 310.476 15.3472 344.68 29.7641C376.28 43.0825 406.29 60.614 433.882 81.8731C461.703 103.31 486.709 128.264 508.2 156.042C536.28 192.338 558.959 233.575 580.889 273.454C590.577 291.07 600.595 309.285 610.938 326.817C639.536 375.295 680.087 435.05 740.313 467.112C809.382 503.882 883.391 497.418 933.317 485.521C995.537 470.695 1057.59 438.032 1128.59 382.729C1152.21 364.331 1175.21 343.418 1197.45 323.196C1231.59 292.16 1266.88 260.067 1305.59 235.927C1345.91 210.785 1381.02 205.324 1409.95 219.697C1423.31 226.336 1436.39 237.282 1449.94 253.166C1461.87 267.148 1472.54 282.941 1482.85 298.212C1488.95 307.246 1494.72 315.776 1500.52 323.618L1678.24 563.807L1678.05 563.967Z" fill="#E4E0E0"/>
<path d="M1676.62 545.503C1631.36 478.626 1592.53 424.359 1554.42 374.723C1535.92 350.612 1517.03 326.878 1498.27 304.183C1492.59 297.318 1486.97 290.015 1481.02 282.283C1466.06 262.849 1450.59 242.755 1432.79 227.842C1423.23 219.82 1414.03 214.076 1404.66 210.283C1375.9 198.523 1342.15 206.298 1304.36 233.395C1284.8 247.398 1266.99 263.333 1252.15 277.073C1236.44 291.62 1220.94 307.661 1205.95 323.174C1184.41 345.473 1162.13 368.53 1138.18 388.332C1123.61 400.417 1108.84 411.216 1094.28 420.43C1065.14 438.864 1033.87 454.054 1001.33 465.577C981.228 472.618 961.026 477.94 941.292 481.393C924.283 484.357 907.244 486.069 890.644 486.478C865.8 487.093 841.595 484.746 818.7 479.496C794.357 473.912 771.32 465 750.23 453.004C731.425 442.307 713.661 428.839 695.926 411.826C662.879 380.149 636.52 343.523 617.249 315.152C607.782 301.149 598.538 286.87 589.598 273.061C563.856 233.291 539.542 195.729 509.115 162.27C484.3 135.16 455.987 111.765 424.955 92.731C401.108 78.1031 375.172 66.14 347.868 57.1721C341.364 55.0388 334.737 53.0504 328.177 51.268C299.93 43.607 268.131 38.6183 233.666 36.4393C198.918 34.1916 168.855 36.1367 141.765 42.3916C126.449 45.9005 111.611 51.4053 97.6566 58.751C48.3913 84.6861 16.7563 128.224 13.0331 175.217L12.7363 175.189C13.7289 162.661 16.6423 150.322 21.3936 138.509C25.9075 127.288 32.1072 116.467 39.8195 106.344C54.3915 87.2236 74.3465 70.6659 97.526 58.4637C111.502 51.1053 126.364 45.5928 141.703 42.0789C168.822 35.8189 198.908 33.8712 233.685 36.1215C268.169 38.3005 299.985 43.2943 328.25 50.9604C334.818 52.7453 341.448 54.7337 347.956 56.8695C375.281 65.8425 401.239 77.8158 425.105 92.4564C456.158 111.503 484.495 134.919 509.322 162.046C539.767 195.525 564.087 233.098 589.838 272.878C598.775 286.687 608.019 300.964 617.484 314.964C636.745 343.322 663.092 379.931 696.121 411.587C713.837 428.582 731.581 442.038 750.366 452.722C791.641 476.198 838.833 487.449 890.635 486.16C907.22 485.751 924.248 484.04 941.242 481.077C960.962 477.624 981.149 472.308 1001.24 465.272C1033.76 453.757 1065.01 438.577 1094.13 420.153C1108.68 410.946 1123.44 400.152 1138 388.077C1161.94 368.285 1184.21 345.234 1205.74 322.942C1220.74 307.427 1236.24 291.381 1251.96 276.829C1266.8 263.081 1284.62 247.141 1304.19 233.128C1321.02 221.064 1337.31 212.729 1352.62 208.353C1371.42 202.978 1388.97 203.527 1404.76 209.985C1414.16 213.792 1423.39 219.551 1432.97 227.591C1450.8 242.526 1466.28 262.633 1481.25 282.08C1487.2 289.809 1492.82 297.112 1498.49 303.972C1517.26 326.67 1536.15 350.406 1554.66 374.523C1592.77 424.163 1631.6 478.436 1676.86 545.317L1676.62 545.503Z" fill="#E4E0E0"/>
<path d="M1675.19 527.033C1633.23 459.024 1593.85 402.115 1554.79 353.054C1535.75 329.09 1516.04 306.053 1496.21 284.586C1490.95 278.89 1485.75 272.971 1480.25 266.706C1463.78 247.944 1446.76 228.543 1427.68 215.121C1418.05 208.314 1408.82 203.574 1399.47 200.63C1363.63 189.351 1327.24 210.719 1303.01 230.631C1285.85 244.697 1270.17 260.601 1254.29 277.019C1240.4 291.39 1227.32 306.849 1213.48 323.214C1192.93 347.506 1171.68 372.625 1147.64 393.716C1133.37 406.3 1118.48 417.18 1103.38 426.054C1075.26 442.586 1044.46 455.424 1009.22 465.305C989.507 470.832 969.315 474.771 949.208 477.006C932.242 478.87 915.308 479.536 898.872 478.979C874.419 478.16 850.518 474.478 827.828 468.038C803.998 461.272 781.26 451.386 760.248 438.655C741.839 427.503 724.064 413.666 705.906 396.356C672.93 364.961 644.681 330.158 623.757 303.343C616.011 293.416 608.389 283.429 601.017 273.767C571.656 235.291 543.925 198.947 510.212 168.328C485.017 145.444 456.73 126.095 426.142 110.819C402.998 99.2597 378.468 90.5995 351.152 84.342C344.848 82.9003 338.434 81.601 332.092 80.4797C304.235 75.58 274.504 73.7264 238.533 71.8093C212.604 70.3574 178.661 69.4014 146.053 74.9494C130.609 77.5277 115.681 82.0053 101.679 88.2526C52.3803 110.254 18.9383 148.689 12.2186 191.07L11.8672 191.006C13.648 179.768 17.2572 168.745 22.5879 158.242C27.6692 148.234 34.3462 138.638 42.4313 129.713C57.7964 112.759 78.2358 98.2986 101.541 87.8992C115.569 81.6392 130.526 77.1539 145.996 74.5706C178.635 69.0149 212.604 69.9735 238.55 71.4253C274.533 73.3425 304.273 75.1961 332.149 80.0983C338.496 81.2222 344.914 82.5215 351.225 83.9631C378.567 90.2282 403.122 98.8961 426.292 110.468C456.91 125.759 485.221 145.124 510.443 168.031C544.179 198.672 571.922 235.027 601.292 273.518C608.662 283.177 616.284 293.165 624.03 303.089C644.949 329.893 673.186 364.684 706.144 396.063C724.28 413.356 742.036 427.178 760.424 438.317C801.739 463.349 848.326 476.899 898.884 478.593C915.305 479.147 932.223 478.483 949.172 476.619C969.26 474.387 989.436 470.453 1009.13 464.928C1044.34 455.058 1075.11 442.23 1103.21 425.713C1118.29 416.849 1133.16 405.985 1147.42 393.414C1171.44 372.34 1192.68 347.232 1213.22 322.952C1227.06 306.58 1240.14 291.118 1254.05 276.739C1269.93 260.311 1285.62 244.402 1302.8 230.321C1318.5 217.412 1333.99 208.126 1348.84 202.715C1366.85 196.155 1383.91 195.329 1399.57 200.256C1408.96 203.213 1418.22 207.968 1427.88 214.795C1446.99 228.243 1464.03 247.661 1480.52 266.439C1486.01 272.701 1491.21 278.618 1496.46 284.311C1516.3 305.786 1536.02 328.83 1555.07 352.803C1594.13 401.876 1633.52 458.795 1675.48 526.819L1675.19 527.033Z" fill="#E4E0E0"/>
<path d="M1673.75 508.563C1634.48 438.5 1595.7 380.545 1555.17 331.388C1535.57 307.571 1515.04 285.234 1494.15 264.992C1489.69 260.664 1485.09 256.072 1480.65 251.633C1462.29 233.29 1443.31 214.325 1422.58 202.402C1412.85 196.768 1403.6 193.03 1394.28 190.978C1358.53 183.098 1324.18 206.689 1301.67 227.864C1286.41 242.159 1272.46 258.361 1258.97 274.031L1256.44 276.965C1244.19 291.181 1232.7 306.773 1220.53 323.282C1201.16 349.571 1181.13 376.752 1157.1 399.102C1143.11 412.201 1128.1 423.163 1112.48 431.68C1085.25 446.532 1054.94 457.13 1017.11 465.032C997.549 469.118 977.366 471.671 957.121 472.617C940.198 473.377 923.368 472.996 907.094 471.478C857.824 466.904 811.788 451.033 770.263 424.307C752.312 412.753 734.525 398.552 715.888 380.886C684.348 351.053 656.296 320.389 630.269 291.537C626.779 287.67 623.326 283.828 619.9 280.017C584.352 240.481 550.777 203.137 511.318 174.395C485.558 155.63 457.299 140.328 427.331 128.912C405.329 120.531 381.485 114.841 354.44 111.515C348.345 110.77 342.145 110.157 336.012 109.695C320.582 108.55 304.218 108.365 286.891 108.169C272.974 108.011 258.585 107.849 243.401 107.185C214.074 105.794 180.836 104.22 150.338 107.516C134.603 109.217 119.584 112.664 105.698 117.765C56.4187 135.869 21.1674 169.205 11.4013 206.941L11 206.821C13.5739 196.872 17.8764 187.167 23.7865 177.975C29.4377 169.185 36.5896 160.81 45.0427 153.082C61.2104 138.305 82.1389 125.947 105.561 117.343C119.477 112.23 134.527 108.774 150.293 107.071C180.822 103.773 214.076 105.349 243.415 106.74C258.59 107.401 272.979 107.566 286.891 107.724C304.225 107.92 320.594 108.106 336.038 109.252C342.176 109.718 348.383 110.33 354.483 111.075C381.561 114.404 405.434 120.102 427.467 128.495C457.47 139.924 485.76 155.244 511.549 174.029C551.043 202.796 584.635 240.158 620.197 279.711C623.623 283.523 627.078 287.362 630.566 291.232C656.588 320.079 684.63 350.735 716.161 380.558C734.779 398.204 752.547 412.392 770.477 423.931C811.947 450.623 857.923 466.472 907.129 471.041C923.385 472.556 940.198 472.938 957.102 472.177C977.326 471.231 997.49 468.681 1017.03 464.6C1054.83 456.705 1085.1 446.12 1112.29 431.289C1127.88 422.789 1142.86 411.848 1156.82 398.771C1180.82 376.449 1200.84 349.283 1220.2 323.01C1232.37 306.493 1243.87 290.894 1256.13 276.668L1258.66 273.734C1272.16 258.056 1286.11 241.844 1301.39 227.534C1323.98 206.29 1358.44 182.631 1394.36 190.546C1403.72 192.608 1413.01 196.358 1422.78 202.016C1443.55 213.964 1462.55 232.95 1480.93 251.313C1485.37 255.752 1489.96 260.344 1494.43 264.669C1515.33 284.921 1535.87 307.271 1555.47 331.101C1596.02 380.278 1634.82 438.253 1674.1 508.339L1673.75 508.563Z" fill="#E4E0E0"/>
<path d="M1672.32 490.09C1636.26 418.97 1596.97 358.284 1555.54 309.725C1535.39 286.058 1514.05 264.417 1492.1 245.403C1488.93 242.657 1485.68 239.807 1482.54 237.051C1461.8 218.843 1440.34 200.012 1417.49 189.689C1407.68 185.211 1398.4 182.478 1389.1 181.329C1353.45 176.925 1321.15 202.7 1300.32 225.098C1287.4 238.935 1275.73 254.323 1264.44 269.205C1262.49 271.781 1260.54 274.351 1258.58 276.912C1247.85 290.978 1237.81 306.691 1227.18 323.325C1209.12 351.605 1190.44 380.845 1166.55 404.492C1152.52 418.377 1137.82 429.112 1121.58 437.315C1087.63 454.47 1053.71 460.819 1025 464.77C1005.58 467.44 985.405 468.61 965.032 468.238C948.161 467.895 931.433 466.464 915.315 463.987C867.524 456.662 822.091 438.487 780.28 409.966C762.882 398.102 745.085 383.533 725.869 365.427C706.457 347.18 688.369 329.623 670.874 312.644C658.985 301.103 647.754 290.202 636.786 279.744C595.328 240.211 557.353 205.453 512.431 180.469C486.117 165.836 457.887 154.577 428.524 147.008C407.479 141.582 384.984 138.94 357.732 138.688C351.853 138.643 345.864 138.716 339.935 138.91C330.929 139.222 321.612 139.876 311.75 140.57C292.826 141.9 271.373 143.407 248.264 142.563C239.465 142.24 230.487 141.785 221.803 141.343C199.469 140.206 176.375 139.032 154.618 140.082C138.64 140.855 123.529 143.275 109.71 147.277C60.5133 161.529 23.4551 189.77 10.576 222.822L10.1367 222.626C13.5085 213.971 18.5043 205.585 24.9842 197.701C31.2077 190.129 38.8345 182.976 47.6485 176.444C64.633 163.858 86.0483 153.604 109.582 146.787C123.434 142.774 138.579 140.346 154.592 139.573C176.373 138.521 199.476 139.698 221.822 140.834C230.504 141.277 239.481 141.732 248.279 142.055C271.366 142.899 292.802 141.394 311.717 140.064C321.583 139.37 330.903 138.716 339.919 138.404C345.855 138.21 351.848 138.137 357.734 138.182C385.024 138.432 407.553 141.081 428.633 146.515C458.032 154.094 486.3 165.366 512.647 180.019C532.939 191.303 553.502 205.601 575.511 223.725C595.214 239.949 614.381 257.702 637.099 279.365C648.067 289.826 659.298 300.726 671.19 312.267C688.682 329.245 706.771 346.802 726.177 365.045C745.375 383.134 763.153 397.688 780.529 409.539C822.284 438.022 867.653 456.171 915.377 463.486C931.476 465.96 948.183 467.389 965.034 467.732C985.383 468.104 1005.54 466.937 1024.93 464.267C1053.6 460.323 1087.49 453.982 1121.38 436.857C1137.56 428.677 1152.23 417.97 1166.22 404.121C1190.07 380.515 1208.74 351.297 1226.79 323.041C1237.42 306.396 1247.46 290.675 1258.21 276.594C1260.16 274.034 1262.11 271.463 1264.06 268.89C1275.36 253.997 1287.04 238.599 1299.98 224.744C1313.53 210.172 1327.42 198.962 1341.29 191.425C1357.71 182.498 1373.81 178.933 1389.15 180.83C1398.49 181.985 1407.82 184.731 1417.67 189.226C1440.58 199.577 1462.06 218.431 1482.83 236.662C1485.97 239.418 1489.22 242.268 1492.39 245.012C1514.35 264.041 1535.71 285.702 1555.87 309.387C1577.88 335.172 1599.42 364.549 1619.92 396.704C1638.03 425.123 1655.79 456.463 1672.72 489.851L1672.32 490.09Z" fill="#E4E0E0"/>
<path d="M1670.88 471.613C1637.52 398.453 1598.83 336.698 1555.91 288.059C1535.21 264.542 1513.06 243.601 1490.05 225.813C1488.95 224.966 1487.86 224.119 1486.76 223.27C1462.84 204.749 1438.1 185.598 1412.41 176.976C1402.46 173.635 1393.14 171.903 1383.94 171.68C1348.42 170.82 1318.14 198.749 1298.99 222.327C1287.72 236.121 1277.72 251.239 1268.04 265.859C1265.65 269.475 1263.18 273.213 1260.74 276.854C1251.44 290.721 1242.79 306.488 1233.64 323.183C1216.99 353.55 1199.78 384.949 1176.02 409.878C1162.27 424.299 1147.44 435.116 1130.69 442.947C1097.69 458.374 1064.18 462.424 1032.88 464.504C1013.59 465.785 993.419 465.567 972.944 463.855C956.128 462.406 939.506 459.927 923.538 456.489C877.374 446.573 832.544 426.095 790.3 395.621C773.382 383.419 756.082 368.91 735.858 349.963C697.423 314.05 668.882 288.756 643.318 267.949C592.474 226.568 553.668 202.222 513.566 186.544C486.718 176.048 458.516 168.834 429.74 165.102C409.776 162.513 388.588 162.745 361.045 165.86C355.4 166.505 349.626 167.266 343.88 168.122C338.452 168.944 332.938 169.885 327.099 170.879C305.541 174.553 281.106 178.718 253.139 177.94C238.399 177.53 223.342 176.409 208.782 175.326C192.234 174.095 175.124 172.821 158.902 172.648C142.637 172.475 127.433 173.869 113.725 176.793C64.6926 187.246 25.8226 210.397 9.74985 238.719L9.29395 238.422C13.4683 231.063 19.1575 223.997 26.2025 217.419C33.003 211.068 41.0999 205.141 50.2701 199.799C68.0833 189.42 89.9901 181.268 113.621 176.231C127.367 173.302 142.603 171.903 158.906 172.076C175.143 172.249 192.263 173.523 208.818 174.756C223.373 175.839 238.423 176.961 253.151 177.37C281.068 178.146 305.477 173.986 327.011 170.317C332.853 169.32 338.371 168.382 343.801 167.558C349.555 166.701 355.334 165.941 360.983 165.292C388.569 162.175 409.792 161.941 429.8 164.537C458.616 168.275 486.858 175.499 513.744 186.01C553.901 201.708 592.747 226.08 643.637 267.497C669.209 288.311 697.76 313.613 736.205 349.535C756.414 368.468 773.695 382.961 790.594 395.151C832.782 425.581 877.545 446.031 923.64 455.933C939.587 459.365 956.189 461.839 972.982 463.288C993.433 464.997 1013.57 465.216 1032.85 463.937C1064.09 461.859 1097.55 457.819 1130.48 442.429C1147.17 434.628 1161.94 423.847 1175.64 409.476C1199.35 384.601 1216.55 353.235 1233.18 322.901C1242.33 306.196 1250.98 290.416 1260.3 276.528C1262.74 272.89 1265.21 269.152 1267.61 265.536C1277.29 250.904 1287.3 235.775 1298.58 221.958C1311.08 206.57 1324.18 194.398 1337.53 185.779C1353.15 175.682 1368.78 170.752 1383.95 171.115C1393.2 171.339 1402.57 173.081 1412.57 176.437C1438.35 185.09 1463.12 204.266 1487.07 222.815C1488.17 223.664 1489.27 224.513 1490.36 225.357C1513.39 243.166 1535.58 264.133 1556.3 287.675C1599.26 336.357 1637.97 398.161 1671.36 471.372L1670.88 471.613Z" fill="#E4E0E0"/>
<path d="M1044.7 464.239C1043.36 464.239 1042.05 464.237 1040.76 464.229C1021.56 464.143 1001.4 462.541 980.848 459.464C964.093 456.909 947.577 453.382 931.756 448.986C909.151 442.716 886.465 433.705 864.323 422.204C842.941 411.098 821.407 397.327 800.317 381.27C779.652 365.539 760.35 348.01 745.842 334.496C711.897 302.962 679.6 276.605 649.847 256.154C601.66 223.033 558.718 202.842 514.703 192.613C488.149 186.442 459.66 183.188 432.23 183.188C431.805 183.188 431.383 183.188 430.958 183.19C407.393 183.277 385.021 187.965 364.359 193.02C358.981 194.345 353.417 195.792 347.823 197.325C344.758 198.174 341.687 199.049 338.439 199.974C315.528 206.511 289.558 213.918 258.009 213.31C238.795 212.939 219.17 210.808 200.191 208.746C187.936 207.414 175.266 206.038 163.18 205.207C146.566 204.065 131.277 204.431 117.733 206.3C68.9613 213.023 28.2796 231.086 8.90636 254.621L8.45996 254.201C18.3971 242.131 33.3444 231.681 52.8862 223.138C71.5495 214.981 93.9478 208.94 117.657 205.672C131.236 203.801 146.566 203.43 163.218 204.576C175.316 205.408 187.993 206.786 200.252 208.118C219.22 210.18 238.833 212.311 258.021 212.68C289.49 213.288 315.414 205.891 338.287 199.367C341.538 198.438 344.608 197.564 347.676 196.715C353.275 195.181 358.843 193.732 364.226 192.407C384.924 187.345 407.334 182.649 430.955 182.56C458.822 182.455 487.821 185.72 514.828 191.998C537.545 197.279 559.568 205.052 582.152 215.762C603.902 226.077 626.15 239.116 650.166 255.625C679.941 276.091 712.263 302.468 746.229 334.023C760.725 347.529 780.013 365.045 800.657 380.759C843.452 413.341 887.61 436.09 931.903 448.378C947.703 452.769 964.198 456.291 980.928 458.844C1001.46 461.915 1021.59 463.517 1040.76 463.601C1070.76 463.733 1105.59 462.65 1139.57 447.992C1156.76 440.572 1171.64 429.723 1185.05 414.825C1208.59 388.662 1224.2 355.081 1239.3 322.604C1247.07 305.898 1254.4 290.119 1262.38 276.46C1264.94 272.084 1267.51 267.576 1270.01 263.215C1278.43 248.483 1287.14 233.252 1297.18 219.174C1308.64 202.977 1320.95 189.839 1333.75 180.126C1348.6 168.865 1363.73 162.564 1378.72 161.4C1387.98 160.68 1397.38 161.415 1407.45 163.647C1434.38 169.612 1461.07 186.943 1488.32 205.7C1512.08 222.055 1535.73 242.892 1556.7 265.961C1580.01 291.512 1601.9 321.487 1621.78 355.053C1639.49 384.957 1655.71 417.874 1669.99 452.891L1669.44 453.146C1638.77 377.944 1600.7 315.115 1556.28 266.406C1535.33 243.37 1511.72 222.563 1488 206.237C1460.8 187.513 1434.16 170.215 1407.33 164.27C1397.31 162.051 1387.97 161.321 1378.77 162.035C1351.21 164.179 1322.4 184.606 1297.65 219.56C1287.63 233.613 1278.93 248.831 1270.51 263.548C1268.02 267.911 1265.44 272.422 1262.88 276.798C1254.92 290.431 1247.59 306.198 1239.84 322.888C1232.43 338.823 1224.77 355.302 1215.98 371.143C1206.01 389.101 1196.04 403.534 1185.48 415.268C1172.01 430.231 1157.07 441.129 1139.79 448.584C1124.55 455.16 1108.18 459.505 1089.72 461.875C1074.1 463.871 1058.4 464.239 1044.7 464.239Z" fill="#E4E0E0"/>
<path d="M1082.77 465.513C1070.67 465.513 1059.04 464.74 1048.63 463.957C1029.5 462.518 1009.35 459.53 988.745 455.075C972.063 451.416 955.65 446.845 939.964 441.482C897.013 426.829 854.607 402.437 810.326 366.919C791.014 351.432 772.809 334.767 755.822 319.028C722.286 288.046 688.829 262.925 656.378 244.358C608.651 217.053 563.997 202.537 515.847 198.677C488.413 196.478 459.482 197.375 432.181 201.271C409.329 204.53 387.785 212.397 367.674 220.173C362.642 222.128 357.29 224.264 351.77 226.519C350.39 227.086 348.999 227.663 347.588 228.246C324.425 237.836 298.216 248.688 264.579 248.688C264.012 248.688 263.447 248.686 262.874 248.678C240.118 248.432 216.883 244.953 194.412 241.587C185.503 240.252 176.29 238.874 167.45 237.758C150.182 235.581 135.228 234.938 121.729 235.797C72.6325 238.925 31.191 251.577 8.03522 270.517L7.63867 269.96C19.086 260.598 35.6384 252.469 55.5007 246.453C75.0378 240.537 97.9253 236.611 121.689 235.098C135.226 234.236 150.218 234.879 167.523 237.061C176.373 238.177 185.588 239.558 194.499 240.89C216.95 244.252 240.163 247.727 262.877 247.974C297.214 248.35 323.851 237.318 347.348 227.587C348.756 227.005 350.15 226.428 351.53 225.858C357.055 223.6 362.41 221.464 367.446 219.509C387.591 211.718 409.175 203.841 432.088 200.571C459.433 196.671 488.41 195.771 515.89 197.973C539.751 199.885 562.501 204.401 585.438 211.774C609.062 219.369 632.365 229.822 656.679 243.735C689.171 262.327 722.67 287.479 756.243 318.492C773.223 334.226 791.416 350.88 810.711 366.352C854.933 401.822 897.274 426.178 940.157 440.808C955.819 446.161 972.21 450.727 988.869 454.381C1009.45 458.831 1029.57 461.816 1048.67 463.25C1080.82 465.665 1115.01 466.906 1148.65 453.54C1166.36 446.504 1181.34 435.586 1194.45 420.16C1217.81 392.681 1232.35 355.2 1245.18 322.13C1251.63 305.491 1257.73 289.775 1264.45 276.378C1266.88 271.544 1269.32 266.548 1271.69 261.717C1279.08 246.601 1286.72 230.971 1295.76 216.374C1306.23 199.369 1317.74 185.265 1329.97 174.453C1344.03 162.038 1358.67 154.369 1373.49 151.666C1382.76 149.975 1392.19 149.706 1402.32 150.835C1430.64 153.995 1459.4 169.612 1486.27 186.02C1511.08 201.169 1535.58 221.296 1557.11 244.226C1581.06 269.658 1603.13 299.933 1622.7 334.205C1640.2 364.854 1655.65 398.56 1668.61 434.391L1668.01 434.643C1640.44 358.48 1601.94 292.806 1556.65 244.719C1535.16 221.833 1510.71 201.744 1485.95 186.625C1459.15 170.255 1430.45 154.677 1402.26 151.529C1392.18 150.405 1382.81 150.674 1373.61 152.353C1346.24 157.344 1318.79 180.215 1296.31 216.755C1287.28 231.322 1279.65 246.937 1272.27 262.037C1269.91 266.871 1267.46 271.867 1265.03 276.706C1258.32 290.073 1252.23 305.773 1245.78 322.395C1232.93 355.515 1218.37 393.058 1194.93 420.627C1181.75 436.138 1166.68 447.117 1148.88 454.193C1133.43 460.331 1116.77 463.886 1097.93 465.053C1092.84 465.383 1087.77 465.513 1082.77 465.513Z" fill="#E4E0E0"/>
<path d="M1106.67 468.266C1106.5 468.266 1106.33 468.266 1106.16 468.266C1089.05 468.22 1072.25 465.978 1056.5 463.684C1037.4 460.902 1017.26 456.527 996.646 450.684C980.039 445.926 963.731 440.305 948.179 433.978C906.944 417.23 866.324 391.364 820.342 352.57C803.783 338.604 787.487 323.564 771.725 309.022C769.754 307.202 767.781 305.384 765.808 303.566C732.098 272.591 697.48 248.703 662.92 232.568C615.595 210.474 567.866 201.372 517.005 204.741C489.117 206.589 460.212 211.642 433.416 219.351C412.274 225.435 393.435 235.197 371.001 247.325C366.454 249.794 361.598 252.459 355.724 255.713L355.396 255.896C344.063 262.217 331.217 269.38 316.809 274.826C300.261 281.081 284.208 284.092 267.745 284.056C242.075 283.988 215.878 278.872 190.544 273.921C184.338 272.708 177.917 271.455 171.72 270.321C153.947 267.074 138.902 265.434 125.726 265.309C77.2114 264.852 33.9914 272.551 7.15049 286.428L6.8418 285.742C19.9892 278.943 37.7241 273.425 58.1278 269.784C78.5696 266.136 101.949 264.325 125.734 264.549C138.947 264.674 154.03 266.316 171.841 269.571C178.043 270.705 184.463 271.958 190.673 273.171C215.975 278.114 242.139 283.225 267.748 283.293C267.862 283.293 267.978 283.293 268.092 283.293C304.723 283.293 332.63 267.732 355.069 255.22L355.399 255.037C361.275 251.78 366.131 249.115 370.681 246.646C393.153 234.497 412.025 224.718 433.234 218.616C460.075 210.891 489.026 205.832 516.962 203.981C541.851 202.333 565.327 203.589 588.737 207.825C613.964 212.389 638.323 220.253 663.205 231.871C697.832 248.037 732.509 271.963 766.273 302.989C768.247 304.807 770.22 306.627 772.191 308.448C787.945 322.984 804.236 338.019 820.782 351.975C866.704 390.72 907.264 416.551 948.43 433.272C963.962 439.59 980.246 445.202 996.829 449.954C1017.42 455.789 1037.53 460.157 1056.6 462.934C1090.76 467.913 1124.2 471.365 1157.76 459.12C1175.96 452.474 1191.05 441.487 1203.86 425.529C1227.01 396.703 1239.66 356.761 1250.82 321.517C1256.04 305.018 1260.98 289.431 1266.54 276.334C1268.68 271.295 1270.83 266.082 1272.91 261.04C1279.41 245.276 1286.12 228.977 1294.36 213.61C1303.84 195.788 1314.56 180.715 1326.21 168.811C1339.49 155.243 1353.64 146.212 1368.27 141.97C1377.34 139.341 1386.6 138.06 1396.55 138.06C1396.77 138.06 1396.98 138.06 1397.2 138.062C1428.13 138.235 1459.96 153.283 1484.24 166.372C1510.1 180.319 1535.44 199.734 1557.53 222.522C1582.13 247.836 1604.37 278.409 1623.63 313.393C1640.92 344.787 1655.59 379.283 1667.25 415.928L1666.57 416.175C1649.23 361.65 1616.14 283.891 1557.03 223.073C1535 200.337 1509.72 180.967 1483.92 167.054C1459.71 154 1427.98 138.996 1397.2 138.825C1387.06 138.762 1377.67 140.038 1368.46 142.708C1341.35 150.567 1315.25 175.882 1294.98 213.988C1286.76 229.321 1280.05 245.601 1273.56 261.348C1271.48 266.392 1269.33 271.607 1267.19 276.649C1261.64 289.714 1256.71 305.28 1251.49 321.761C1240.31 357.068 1227.64 397.087 1204.4 426.025C1191.5 442.089 1176.32 453.15 1157.99 459.84C1142.45 465.507 1125.66 468.266 1106.67 468.266Z" fill="#E4E0E0"/>
<path d="M1125.68 471.847C1121.99 471.847 1118.23 471.72 1114.37 471.466C1097.49 470.355 1081.09 467.021 1064.37 463.411C1045 459.226 1025.42 453.627 1004.54 446.294C988.022 440.441 971.821 433.774 956.39 426.474C917.242 407.984 878.372 380.765 830.358 338.221C818.433 327.656 806.513 316.576 794.985 305.858C788.71 300.025 782.223 293.992 775.795 288.1C741.684 256.917 705.91 234.267 669.467 220.776C621.315 202.95 571.826 199.685 518.168 210.796C489.819 216.667 460.941 225.874 434.658 237.42C413.545 246.696 395.152 259.722 375.679 273.513L374.333 274.467C371.291 276.628 368.216 278.82 365.103 281.037C363.31 282.316 361.506 283.602 359.685 284.899C348.33 293.028 336.066 301.508 322.002 308.035C305.673 315.612 289.522 319.339 272.62 319.431C244.483 319.578 215.783 312.576 188.03 305.797C184.069 304.829 179.971 303.829 175.994 302.881C157.347 298.431 142.647 295.871 129.725 294.818C82.041 290.935 37.0402 293.671 6.25765 302.327L6.06055 301.528C36.9238 292.85 82.0173 290.104 129.784 293.994C142.742 295.049 157.48 297.618 176.162 302.075C180.142 303.026 184.24 304.025 188.203 304.994C215.616 311.689 243.953 318.607 271.718 318.607C272.017 318.607 272.316 318.607 272.618 318.605C308.529 318.411 334.093 302.225 359.26 284.213C361.081 282.916 362.885 281.629 364.678 280.35C367.791 278.131 370.864 275.941 373.908 273.778L375.254 272.824C394.76 259.01 413.184 245.961 434.366 236.655C460.697 225.086 489.625 215.864 518.023 209.983C571.817 198.843 621.438 202.118 669.721 219.993C706.254 233.52 742.111 256.221 776.298 287.472C782.726 293.366 789.215 299.397 795.491 305.233C807.014 315.948 818.932 327.026 830.849 337.583C878.806 380.078 917.622 407.259 956.701 425.719C972.111 433.006 988.288 439.665 1004.79 445.508C1025.64 452.831 1045.18 458.422 1064.53 462.6C1093.9 468.944 1130.45 476.841 1166.86 464.677C1185.57 458.425 1200.76 447.369 1213.27 430.878C1236.2 400.671 1246.83 358.186 1256.21 320.705C1260.29 304.422 1264.13 289.041 1268.63 276.277C1270.38 271.304 1272.13 266.16 1273.83 261.184C1279.52 244.497 1285.4 227.242 1292.96 210.832C1301.48 192.182 1311.4 176.14 1322.43 163.152C1334.94 148.435 1348.61 138.043 1363.04 132.264C1372.31 128.554 1381.8 126.268 1392.07 125.274C1405.83 123.942 1420.46 125.366 1436.82 129.617C1450.67 133.217 1465.51 138.806 1482.2 146.706C1509.11 159.447 1535.3 178.154 1557.94 200.801C1583.2 225.996 1605.61 256.872 1624.56 292.565C1641.63 324.707 1655.53 359.994 1665.88 397.45L1665.14 397.683C1643.28 318.607 1605.02 248.9 1557.41 201.406C1534.83 178.82 1508.72 160.167 1481.88 147.464C1445.93 130.443 1417.42 123.652 1392.14 126.098C1381.94 127.085 1372.51 129.355 1363.31 133.037C1328.96 146.785 1306.47 183.13 1293.65 211.195C1286.11 227.565 1280.23 244.799 1274.55 261.466C1272.85 266.445 1271.1 271.591 1269.35 276.567C1264.87 289.293 1261.03 304.656 1256.96 320.918C1247.56 358.481 1236.9 401.055 1213.87 431.399C1201.25 448.02 1185.95 459.165 1167.09 465.468C1154.3 469.74 1140.66 471.847 1125.68 471.847Z" fill="#E4E0E0"/>
<path d="M1142.14 475.951C1117.03 475.951 1092.89 469.043 1072.24 463.133C1052.81 457.575 1033.25 450.629 1012.44 441.9C996.007 434.958 979.91 427.244 964.595 418.968C918.685 394.187 877.756 358.618 840.368 323.87C832.734 316.776 825.022 309.463 817.566 302.392C807.213 292.573 796.507 282.42 785.779 272.636C751.157 241.145 714.227 219.728 676.017 208.98C626.588 195.08 575.335 197.65 519.331 216.842C490.496 226.723 461.646 240.085 435.9 255.483C416.042 267.357 399.24 282.349 381.453 298.22C380.192 299.344 378.929 300.473 377.659 301.601L376.97 302.217C372.646 306.079 368.175 310.071 363.642 314.078C352.782 323.723 340.821 333.697 326.988 341.318C310.929 350.164 294.74 354.575 277.49 354.804C247.211 355.208 216.35 346.093 186.507 337.277C184.415 336.66 182.333 336.044 180.26 335.437C160.581 329.655 146.225 326.227 133.716 324.32C87.2287 317.236 40.4423 315.009 5.35247 318.21L5.28125 317.323C40.4281 314.114 87.2833 316.344 133.832 323.438C146.377 325.35 160.763 328.785 180.479 334.577C182.552 335.185 184.634 335.8 186.728 336.421C216.513 345.218 247.315 354.311 277.478 353.914C314.94 353.416 341.322 332.736 363.11 313.392C367.643 309.385 372.114 305.393 376.438 301.533L377.127 300.918C378.397 299.786 379.66 298.66 380.921 297.536C398.739 281.637 415.569 266.62 435.494 254.705C461.287 239.279 490.192 225.894 519.077 215.996C545.628 206.898 570.567 201.645 595.316 199.936C622.924 198.032 650.145 200.785 676.226 208.121C714.557 218.902 751.596 240.38 786.316 271.957C797.051 281.746 807.76 291.901 818.115 301.724C825.57 308.795 833.278 316.105 840.909 323.196C878.26 357.906 919.138 393.437 964.966 418.172C980.26 426.435 996.332 434.14 1012.74 441.071C1033.52 449.787 1053.05 456.723 1072.45 462.274C1102.24 470.797 1139.31 481.405 1175.95 470.243C1195.17 464.384 1210.45 453.26 1222.67 436.235C1245.36 404.607 1253.85 359.508 1261.34 319.715C1264.35 303.727 1267.19 288.626 1270.7 276.226C1272 271.639 1273.3 266.899 1274.56 262.315C1279.48 244.384 1284.57 225.841 1291.54 208.06C1299.11 188.566 1308.23 171.55 1318.64 157.492C1330.39 141.628 1343.56 129.876 1357.8 122.561C1367.05 117.811 1376.57 114.519 1386.93 112.492C1400.88 109.764 1416.36 109.855 1432.94 112.764C1447.46 115.312 1463.34 120.115 1480.14 127.044C1508.1 138.58 1535.14 156.574 1558.33 179.081C1584.25 204.16 1606.84 235.332 1625.48 271.738C1642.32 304.627 1655.45 340.707 1664.5 378.974L1663.7 379.193C1644.52 298.108 1606.9 227.275 1557.78 179.743C1534.66 157.309 1507.71 139.373 1479.84 127.875C1443.72 112.973 1413.37 108.225 1387.08 113.369C1376.8 115.38 1367.34 118.65 1358.16 123.364C1324.28 140.769 1303.65 179.214 1292.3 208.403C1285.36 226.138 1280.27 244.656 1275.35 262.564C1274.09 267.149 1272.79 271.891 1271.49 276.483C1268 288.842 1265.16 303.923 1262.16 319.891C1258.55 339.034 1254.47 360.731 1248.54 381.072C1241.74 404.378 1233.5 422.598 1223.33 436.776C1217.45 444.974 1210.69 451.951 1203.24 457.514C1195.23 463.497 1186.12 468.069 1176.17 471.099C1164.79 474.57 1153.37 475.951 1142.14 475.951Z" fill="#E4E0E0"/>
<path d="M1156.98 480.453C1148.68 480.453 1139.98 479.589 1130.8 477.862C1112.7 474.463 1095.38 468.294 1080.1 462.855C1060.84 455.998 1040.73 447.467 1020.33 437.503C1004 429.483 988.012 420.721 972.801 411.456C929.142 384.893 891.528 349.573 850.378 309.516C846.722 305.956 843.008 302.325 839.418 298.811C825.278 284.982 810.658 270.682 795.763 257.17C760.567 225.311 722.483 205.13 682.568 197.187C632.22 187.166 577.688 195.811 520.494 222.885C491.146 236.778 462.322 254.292 437.141 273.538C418.181 288.028 402.574 305.112 386.05 323.201C384.371 325.039 382.685 326.882 380.99 328.733C376.77 333.346 372.226 338.296 367.603 343.252C357.908 353.679 346.092 365.561 331.976 374.595C316.174 384.71 299.945 389.808 282.364 390.176C250.181 390.855 217.42 379.444 185.738 368.409L184.532 367.989C169.019 362.589 152.609 357.132 137.712 353.819C92.3027 343.722 44.9772 336.712 4.45703 334.081L4.51164 333.13C45.0746 335.764 92.4428 342.779 137.892 352.886C152.832 356.209 169.271 361.673 184.807 367.082L186.013 367.501C217.627 378.511 250.321 389.894 282.348 389.22C319.335 388.442 344.879 366.342 366.973 342.573C371.596 337.62 376.136 332.669 380.356 328.06C382.051 326.211 383.737 324.365 385.416 322.529C401.968 304.41 417.604 287.296 436.626 272.757C461.855 253.473 490.733 235.927 520.136 222.008C546.97 209.308 573.376 200.556 598.617 195.999C627.457 190.795 655.758 190.876 682.734 196.244C722.801 204.217 761.025 224.469 796.34 256.438C811.247 269.963 825.874 284.267 840.021 298.105C843.611 301.616 847.325 305.247 850.982 308.807C892.091 348.825 929.664 384.107 973.245 410.624C988.435 419.875 1004.4 428.624 1020.7 436.633C1041.07 446.583 1061.15 455.1 1080.39 461.948C1110.53 472.683 1148.06 486.039 1185.05 475.805C1204.79 470.346 1220.17 459.156 1232.08 441.591C1254.52 408.499 1261.02 358.62 1266.23 318.54C1268.27 302.928 1270.19 288.183 1272.79 276.182C1273.61 272.398 1274.44 268.501 1275.24 264.73C1279.39 245.141 1283.69 224.884 1290.14 205.295C1300.09 174.812 1319.01 134.033 1352.57 112.87C1361.84 107.027 1371.4 102.725 1381.8 99.7195C1409.01 91.7432 1441.41 94.324 1478.09 107.386C1507.11 117.716 1535 134.999 1558.75 157.366C1585.32 182.325 1608.09 213.798 1626.41 250.918C1634.82 267.944 1642.25 286.129 1648.5 304.967C1654.47 322.962 1659.4 341.647 1663.14 360.506L1662.27 360.705C1645.77 277.606 1608.8 205.646 1558.16 158.081C1534.49 135.797 1506.71 118.581 1477.81 108.288C1441.3 95.2851 1409.07 92.7119 1382.03 100.637C1371.71 103.62 1362.22 107.889 1353.02 113.689C1319.69 134.704 1300.89 175.274 1290.98 205.608C1284.55 225.146 1280.26 245.375 1276.1 264.938C1275.3 268.709 1274.48 272.609 1273.66 276.395C1271.06 288.356 1269.14 303.081 1267.12 318.67C1264.49 338.838 1261.51 361.696 1256.43 383.271C1250.58 408.061 1242.86 427.322 1232.8 442.151C1227.06 450.61 1220.35 457.745 1212.86 463.354C1204.79 469.398 1195.5 473.898 1185.28 476.726C1176.3 479.212 1166.92 480.453 1156.98 480.453Z" fill="#E4E0E0"/>
<path d="M1170.66 485.209C1160.71 485.209 1150.22 483.828 1139.01 481.059C1120.85 476.576 1103.38 469.137 1087.96 462.572C1068.55 454.308 1048.46 444.394 1028.22 433.102C1012 424.012 996.117 414.203 981.006 403.943C939.425 375.732 903.76 339.373 866.001 300.882C864.133 298.978 862.264 297.07 860.391 295.164C842.831 277.284 824.676 258.793 805.749 241.707C769.94 209.443 730.702 190.495 689.125 185.39C636.901 178.975 580.558 193.623 521.657 228.922C492.194 246.579 462.621 268.834 438.382 291.589C420.08 308.769 405.401 328.101 389.86 348.569C388.02 350.992 386.175 353.423 384.315 355.859C380.602 360.733 376.183 366.513 371.557 372.424C362.99 383.401 351.318 397.35 336.962 407.844C321.411 419.212 305.146 425.006 287.236 425.553C272.514 425.947 256.268 423.514 237.567 418.111C221.51 413.473 205.979 407.411 188.793 400.546C173.105 394.202 156.547 387.65 141.693 383.322C97.6917 370.502 51.2139 359.276 3.55371 349.95L3.72467 348.951C51.4134 358.28 97.9172 369.516 141.942 382.341C156.837 386.681 173.418 393.244 189.125 399.593C217.932 411.103 253.784 425.434 287.209 424.536C325.424 423.366 349.983 398.484 370.829 371.768C375.452 365.862 379.868 360.085 383.579 355.213C385.439 352.777 387.284 350.347 389.121 347.926C404.688 327.425 419.393 308.06 437.755 290.823C462.044 268.023 491.674 245.724 521.194 228.035C580.273 192.629 636.811 177.942 689.234 184.38C709.334 186.849 729.078 192.583 747.912 201.421C768.121 210.903 787.787 224.198 806.362 240.931C825.31 258.036 843.477 276.536 861.046 294.429C862.919 296.338 864.79 298.243 866.659 300.147C904.382 338.605 940.016 374.929 981.517 403.086C996.606 413.331 1012.47 423.127 1028.66 432.202C1048.87 443.476 1068.94 453.377 1088.32 461.628C1118.77 474.596 1156.67 490.734 1194.15 481.374C1214.45 476.304 1229.94 465.046 1241.48 446.957C1263.72 412.408 1267.68 359.63 1270.87 317.224C1272.01 302.057 1273.08 287.731 1274.87 276.147C1275.24 273.757 1275.6 271.354 1275.97 268.939C1279.3 247.12 1282.74 224.557 1288.73 202.537C1297.27 170.866 1314.37 127.921 1347.33 103.186C1356.53 96.2852 1366.12 90.9761 1376.66 86.9537C1391.31 81.3115 1407.64 78.6595 1425.19 79.0664C1441.22 79.4376 1458.32 82.354 1476.04 87.7317C1506.09 96.8522 1534.84 113.423 1559.15 135.65C1586.38 160.487 1609.32 192.265 1627.34 230.097C1635.61 247.456 1642.76 266.015 1648.61 285.257C1654.22 303.686 1658.64 322.792 1661.76 342.042L1660.83 342.215C1647.23 258.331 1609.95 183.323 1558.53 136.423C1534.32 114.292 1505.71 97.7904 1475.78 88.7055C1438.88 77.5026 1404.71 77.228 1376.98 87.9072C1366.51 91.8991 1357 97.1675 1347.87 104.015C1315.14 128.579 1298.14 171.303 1289.64 202.817C1283.67 224.778 1280.23 247.308 1276.91 269.099C1276.54 271.514 1276.17 273.92 1275.8 276.31C1274.02 287.851 1272.95 302.158 1271.81 317.302C1268.62 359.831 1264.65 412.761 1242.26 447.532C1236.7 456.25 1230.04 463.548 1222.48 469.215C1214.35 475.313 1204.89 479.737 1194.37 482.366C1186.77 484.258 1178.9 485.209 1170.66 485.209Z" fill="#E4E0E0"/>
<path d="M1183.51 490.16C1172.17 490.16 1160.16 488.197 1147.22 484.256C1128.91 478.68 1111.33 469.971 1095.82 462.29C1076.22 452.582 1056.13 441.28 1036.11 428.704C1020.01 418.559 1004.23 407.699 989.206 396.433C952.219 368.697 920.608 334.72 887.14 298.747C881.669 292.865 876.011 286.786 870.398 280.808C850.666 259.806 833.817 242.488 815.73 226.243C779.282 193.552 738.893 175.837 695.68 173.59C641.381 170.765 583.218 191.411 522.812 234.954C492.803 256.587 463.255 283.107 439.613 309.632C421.802 329.614 407.878 351.367 393.138 374.395C391.312 377.248 389.479 380.111 387.634 382.977C384.347 388.09 379.997 394.828 375.507 401.584C356.611 430.082 331.924 459.422 292.102 460.922C290.86 460.965 289.613 460.985 288.369 460.985C257.273 460.985 225.527 447.807 193.049 433.092L191.021 432.167C174.934 424.814 159.737 417.87 145.671 412.815C92.6611 393.765 41.3941 377.686 2.65234 365.806L2.93017 364.766C41.6814 376.651 92.9627 392.733 145.992 411.79C160.096 416.858 175.309 423.812 191.417 431.173L193.443 432.098C227.11 447.352 259.99 460.957 292.066 459.844C331.447 458.359 355.927 429.245 374.683 400.961C379.171 394.21 383.516 387.477 386.802 382.367C388.647 379.499 390.478 376.638 392.304 373.785C407.069 350.721 421.014 328.933 438.882 308.887C462.572 282.306 492.179 255.733 522.247 234.056C550.154 213.939 578.07 198.492 605.22 188.141C636.37 176.265 666.823 171.006 695.727 172.509C739.163 174.767 779.757 192.568 816.376 225.411C834.489 241.682 851.354 259.018 871.105 280.038C876.721 286.015 882.379 292.098 887.852 297.979C921.287 333.916 952.867 367.861 989.783 395.54C1004.78 406.794 1020.54 417.636 1036.61 427.766C1056.61 440.326 1076.67 451.611 1096.24 461.303C1126.96 476.521 1165.19 495.459 1203.25 486.933C1224.05 482.272 1239.63 470.947 1250.88 452.312C1272.84 416.189 1274.16 360.441 1275.22 315.648C1275.57 301.032 1275.9 287.226 1276.94 276.102L1276.97 275.847C1279.32 250.937 1281.74 225.18 1287.31 199.766C1292.14 177.599 1298.85 157.67 1307.27 140.528C1316.77 121.201 1328.48 105.376 1342.08 93.4887C1351.18 85.5352 1360.81 79.2168 1371.51 74.1747C1400.43 60.4724 1435.86 58.3569 1473.98 68.0622C1489.32 71.9677 1504.45 77.8844 1518.96 85.6446C1533.55 93.4505 1547.21 102.968 1559.55 113.926C1587.44 138.644 1610.56 170.722 1628.26 209.271C1644.18 243.919 1655.29 283.445 1660.39 323.57L1659.39 323.715C1648.47 237.835 1611.84 161.672 1558.91 114.758C1534.15 92.7843 1504.7 76.9996 1473.75 69.1199C1435.84 59.4705 1400.63 61.5631 1371.92 75.1714C1361.3 80.1753 1351.76 86.443 1342.73 94.3328C1317.33 116.528 1298.51 153.073 1288.3 200.018C1282.74 225.366 1280.32 251.087 1277.97 275.962L1277.95 276.216C1276.91 287.3 1276.58 301.086 1276.23 315.681C1275.17 360.612 1273.84 416.527 1251.72 452.905C1246.3 461.891 1239.69 469.346 1232.09 475.061C1223.89 481.225 1214.26 485.575 1203.45 487.998C1197.02 489.438 1190.39 490.16 1183.51 490.16Z" fill="#E4E0E0"/>
<path d="M292.841 496.386C278.936 496.386 263.794 493.485 246.705 487.561C229.726 481.675 212.933 473.548 197.314 465.646C194.486 464.207 191.68 462.77 188.892 461.344C175.016 454.242 161.908 447.535 149.659 442.309C100.814 421.483 54.2551 402.764 9.22815 384.665L1.76758 381.665L2.14273 380.594L9.60331 383.595C54.6326 401.698 101.198 420.417 150.053 441.249C162.336 446.487 175.46 453.202 189.353 460.314C192.138 461.74 194.944 463.177 197.77 464.614C229.832 480.836 263.896 496.557 296.935 495.156C337.548 493.345 361.886 459.467 378.55 430.158C382.819 422.662 386.932 415.192 390.037 409.522C391.752 406.397 393.454 403.275 395.152 400.16C409.233 374.339 422.532 349.95 440.022 326.954C463.109 296.605 492.688 265.753 523.314 240.085C551.726 216.27 580.398 197.455 608.536 184.162C640.809 168.914 672.333 161.001 702.229 160.642C747.216 159.925 788.999 176.498 826.402 209.896C847.136 228.432 865.725 248.483 881.178 265.654C889.586 274.998 897.994 284.576 906.127 293.839C934.913 326.632 964.679 360.538 998.061 388.001C1012.97 400.272 1028.63 412.161 1044.58 423.336C1064.32 437.135 1084.37 449.803 1104.18 460.985C1135.13 478.463 1173.65 500.216 1212.35 492.496C1233.65 488.247 1249.33 476.856 1260.29 457.672C1281.95 419.911 1280.49 361.11 1279.31 313.862C1278.97 299.891 1278.64 286.692 1279.03 276.066C1279.92 252.112 1281.27 224.272 1285.91 197.005C1289.83 173.9 1295.74 152.997 1303.49 134.878C1312.25 114.381 1323.47 97.1982 1336.85 83.8035C1345.72 74.9271 1355.65 67.3933 1366.38 61.4079C1381.68 52.8391 1398.86 47.4513 1417.43 45.3968C1434.82 43.472 1453.15 44.484 1471.92 48.4022C1487.75 51.7077 1503.36 57.1438 1518.3 64.5633C1533.33 72.0285 1547.35 81.3295 1559.96 92.207C1574.5 104.732 1587.86 119.523 1599.69 136.169C1610.89 151.941 1620.82 169.531 1629.2 188.449C1644.87 223.84 1655.19 264.182 1659.02 305.106L1657.96 305.22C1649.72 217.338 1613.76 140.024 1559.29 93.0994C1534.35 71.5835 1503.25 56.109 1471.72 49.5261C1432.73 41.387 1396.48 45.8469 1366.87 62.4224C1356.23 68.3595 1346.38 75.8348 1337.58 84.64C1312.37 109.878 1295.34 147.751 1286.96 197.211C1282.33 224.404 1280.99 252.196 1280.1 276.112C1279.71 286.699 1280.03 299.878 1280.38 313.832C1280.96 337.14 1281.62 363.561 1279.42 389.102C1276.86 418.739 1270.9 441.364 1261.2 458.27C1255.92 467.52 1249.36 475.135 1241.71 480.902C1233.44 487.131 1223.63 491.41 1212.55 493.62C1206.96 494.736 1201.37 495.242 1195.82 495.242C1162.56 495.242 1130.33 477.042 1103.68 461.995C1083.85 450.794 1063.77 438.109 1044 424.29C1028.02 413.099 1012.35 401.192 997.413 388.904C963.962 361.384 934.165 327.443 905.35 294.62C897.22 285.359 888.815 275.784 880.411 266.445C864.98 249.294 846.416 229.271 825.721 210.771C788.52 177.551 746.981 161.075 702.246 161.781C631.993 162.626 566.524 205.314 523.974 240.98C493.41 266.597 463.89 297.383 440.853 327.672C423.415 350.599 410.135 374.95 396.076 400.729C394.378 403.844 392.673 406.967 390.959 410.094C387.851 415.767 383.736 423.242 379.464 430.745C372.469 443.049 361.487 460.96 346.941 474.385C339.877 480.904 332.359 486.028 324.597 489.615C315.942 493.615 306.649 495.863 296.98 496.292C295.61 496.356 294.23 496.386 292.841 496.386Z" fill="#E4E0E0"/>
<path d="M297.305 531.784C283.383 531.784 268.272 528.659 251.273 522.282C233.674 515.682 216.274 506.401 201.576 498.191C197.06 495.663 192.553 493.1 188.193 490.621C176.008 483.693 164.496 477.145 153.642 471.801C114.666 452.604 75.943 433.862 38.4929 415.735C26.1053 409.74 13.2975 403.541 0.883789 397.52L1.34917 396.419C13.7629 402.44 26.5707 408.639 38.9583 414.634C76.4083 432.761 115.136 451.505 154.115 470.705C164.997 476.065 176.523 482.617 188.723 489.556C193.08 492.035 197.587 494.595 202.098 497.123C232.582 514.143 267.94 532.161 301.797 530.465C343.367 528.334 366.715 491.341 382.415 459.352C386.44 451.157 390.331 442.929 393.271 436.676C394.781 433.468 396.282 430.261 397.78 427.063C411.248 398.293 423.968 371.119 441.164 345.024C463.529 311.085 493.084 275.958 524.379 246.115C567.963 204.733 635.324 154.257 708.728 148.782C755.41 145.207 798.376 160.55 836.427 194.387C853.523 209.598 870.429 227.142 891.248 251.279C901.769 263.476 912.21 276.118 922.306 288.341C948.575 320.142 975.734 353.026 1006.34 380.474C1021.16 393.774 1036.71 406.709 1052.54 418.919C1071.71 433.689 1091.76 447.739 1112.11 460.682C1143.38 480.44 1182.29 505.036 1221.45 498.074C1242.93 494.336 1259.15 482.551 1269.69 463.049C1291.06 423.579 1286.47 359.006 1283.12 311.858C1282.18 298.626 1281.29 286.129 1281.12 276.047C1280.73 253.641 1280.76 224.098 1284.51 194.26C1290.97 142.555 1306.82 102.138 1331.62 74.1354C1340.31 64.2699 1350.28 55.6986 1361.24 48.658C1376.84 38.6298 1394.43 31.8842 1413.54 28.6118C1431.55 25.5301 1450.5 25.5784 1469.87 28.7567C1486.21 31.4977 1502.28 36.466 1517.63 43.5193C1533.14 50.6438 1547.51 59.7211 1560.37 70.4994C1575.23 82.9533 1588.81 97.7947 1600.72 114.614C1612.01 130.554 1621.9 148.393 1630.13 167.641C1645.56 203.777 1655.08 244.933 1657.66 286.658L1656.53 286.736C1650.98 196.849 1615.68 118.38 1559.68 71.4529C1534.28 50.1633 1502.33 35.4235 1469.7 29.9518C1429.47 23.3536 1392.17 30.1806 1361.82 49.6954C1350.95 56.6775 1341.06 65.1801 1332.44 74.9668C1307.81 102.783 1292.06 142.972 1285.63 194.423C1281.89 224.18 1281.86 253.664 1282.25 276.027C1282.43 286.073 1283.31 298.555 1284.25 311.769C1285.98 336.14 1287.94 363.766 1286.82 390.736C1285.51 422.14 1280.23 445.993 1270.67 463.656C1265.52 473.184 1259.01 480.964 1251.32 486.782C1242.99 493.09 1233 497.291 1221.64 499.269C1204.02 502.399 1185.06 499.587 1163.67 490.67C1145.07 482.917 1127.26 471.658 1111.54 461.727C1091.16 448.767 1071.09 434.696 1051.89 419.905C1036.03 407.678 1020.46 394.725 1005.62 381.407C974.948 353.903 947.758 320.983 921.463 289.149C911.372 276.929 900.934 264.295 890.422 252.108C869.638 228.014 852.763 210.503 835.707 195.328C797.882 161.684 755.189 146.433 708.804 149.985C635.716 155.439 568.578 205.761 525.125 247.018C493.891 276.8 464.398 311.853 442.08 345.721C424.932 371.742 412.231 398.877 398.784 427.604C397.286 430.805 395.786 434.012 394.275 437.221C391.333 443.478 387.439 451.714 383.41 459.916C367.572 492.19 343.989 529.514 301.847 531.672C300.349 531.746 298.831 531.784 297.305 531.784Z" fill="#E4E0E0"/>
<path d="M301.858 567.186C263.819 567.186 223.907 542.169 188.525 519.99C177.653 513.175 167.383 506.737 157.624 501.293L0 413.376L0.548515 412.25L158.172 500.167C167.958 505.624 178.239 512.069 189.126 518.894C225.876 541.93 267.531 568.041 306.659 565.778C349.146 563.324 371.527 523.216 386.28 488.552C391.105 477.215 395.764 465.679 400.27 454.521C412.596 424.01 425.34 392.458 442.301 363.093C455.769 339.777 472.499 315.324 490.683 292.382C510.631 267.212 531.989 244.12 554.159 223.748C578.604 201.289 603.46 182.71 628.034 168.529C655.214 152.846 681.991 142.607 707.626 138.094C758.978 129.055 805.684 142.772 846.441 178.87C880.313 208.866 909.101 245.958 936.942 281.83C961.175 313.054 986.233 345.338 1014.61 372.935C1047.38 404.81 1082.85 434.226 1120.04 460.362C1151.37 482.384 1190.37 509.794 1230.55 503.633C1264.49 498.43 1284.12 474.113 1290.54 429.286C1296.01 391.156 1290.81 345.925 1286.63 309.583C1285.21 297.198 1283.86 285.499 1283.2 276.012C1279.56 223.715 1281.88 180.543 1290.3 144.034C1295.55 121.254 1303.3 100.948 1313.34 83.6812C1324.54 64.3927 1338.93 48.313 1356.1 35.8896C1370.95 25.1418 1387.69 17.3359 1405.85 12.6879C1423.14 8.26373 1441.34 6.78137 1459.95 8.28153C1496.55 11.231 1532.36 25.6122 1560.77 48.7732C1575.95 61.1534 1589.74 76.0482 1601.75 93.0407C1613.12 109.146 1622.98 127.237 1631.05 146.815C1646.24 183.696 1654.96 225.668 1656.27 268.189L1655.09 268.232C1652.29 177.683 1616.76 96.0207 1560.04 49.7877C1499.82 0.68918 1414.32 -4.71394 1356.76 36.9448C1299.73 78.212 1276.06 156.381 1284.38 275.918C1285.04 285.374 1286.39 297.058 1287.81 309.428C1292 345.849 1297.21 391.176 1291.71 429.479C1288.72 450.341 1282.71 467.108 1273.85 479.315C1268.86 486.177 1262.85 491.787 1255.98 495.982C1248.67 500.447 1240.17 503.445 1230.72 504.894C1226.86 505.486 1222.93 505.784 1218.93 505.784C1204.37 505.784 1188.86 501.84 1171.86 493.851C1152.71 484.85 1134.23 471.862 1119.39 461.427C1082.15 435.253 1046.63 405.799 1013.81 373.879C985.366 346.222 960.283 313.9 936.023 282.643C908.218 246.818 879.465 209.771 845.679 179.852C805.195 144 758.809 130.372 707.811 139.35C604.65 157.51 498.383 268.41 443.303 363.764C426.387 393.048 413.66 424.556 401.351 455.027C396.842 466.19 392.181 477.733 387.351 489.081C377.556 512.095 367.883 528.574 356.908 540.936C350.058 548.65 342.626 554.732 334.818 559.012C326.137 563.769 316.682 566.474 306.714 567.051C305.104 567.14 303.482 567.186 301.858 567.186Z" fill="#E4E0E0"/>
</g>
</svg>
